G04*
G04 #@! TF.GenerationSoftware,Altium Limited,Altium Designer,24.1.2 (44)*
G04*
G04 Layer_Color=255*
%FSLAX44Y44*%
%MOMM*%
G71*
G04*
G04 #@! TF.SameCoordinates,B110DDA6-C1C3-4D62-A74E-62470A3AD7F2*
G04*
G04*
G04 #@! TF.FilePolarity,Positive*
G04*
G01*
G75*
%ADD33C,1.2000*%
%ADD34C,6.0000*%
%ADD35C,0.6000*%
%ADD36C,1.0000*%
%ADD37C,1.6000*%
%ADD38R,1.6000X1.6000*%
%ADD53R,3.1725X2.3455*%
%ADD54R,0.6325X2.3455*%
%ADD55R,0.9500X0.9000*%
%ADD56R,0.9000X0.6000*%
%ADD57R,0.9000X0.8000*%
%ADD58R,0.8000X0.9000*%
%ADD59C,1.5000*%
%ADD60R,0.6000X0.9000*%
%ADD61R,0.4000X1.8000*%
%ADD62R,1.2700X0.4000*%
%ADD63R,1.2700X1.5500*%
%ADD64R,2.3000X2.8000*%
%ADD65O,1.8000X0.6000*%
%ADD66R,1.4000X1.4000*%
%ADD67R,2.3000X2.2860*%
G04:AMPARAMS|DCode=68|XSize=0.2746mm|YSize=0.8048mm|CornerRadius=0.1373mm|HoleSize=0mm|Usage=FLASHONLY|Rotation=180.000|XOffset=0mm|YOffset=0mm|HoleType=Round|Shape=RoundedRectangle|*
%AMROUNDEDRECTD68*
21,1,0.2746,0.5302,0,0,180.0*
21,1,0.0000,0.8048,0,0,180.0*
1,1,0.2746,0.0000,0.2651*
1,1,0.2746,0.0000,0.2651*
1,1,0.2746,0.0000,-0.2651*
1,1,0.2746,0.0000,-0.2651*
%
%ADD68ROUNDEDRECTD68*%
G04:AMPARAMS|DCode=69|XSize=0.2746mm|YSize=0.8048mm|CornerRadius=0.1373mm|HoleSize=0mm|Usage=FLASHONLY|Rotation=90.000|XOffset=0mm|YOffset=0mm|HoleType=Round|Shape=RoundedRectangle|*
%AMROUNDEDRECTD69*
21,1,0.2746,0.5302,0,0,90.0*
21,1,0.0000,0.8048,0,0,90.0*
1,1,0.2746,0.2651,0.0000*
1,1,0.2746,0.2651,0.0000*
1,1,0.2746,-0.2651,0.0000*
1,1,0.2746,-0.2651,0.0000*
%
%ADD69ROUNDEDRECTD69*%
%ADD70R,2.5000X2.5000*%
%ADD71R,3.5000X2.2098*%
%ADD72O,1.2500X0.3500*%
%ADD73R,3.3000X3.1500*%
%ADD74R,1.4000X1.3000*%
%ADD75R,2.3622X1.8796*%
%ADD76R,0.9000X0.9500*%
%ADD77R,1.8796X2.3622*%
%ADD78R,0.9100X1.2200*%
%ADD79R,1.7018X0.8128*%
D33*
X52165Y19835D02*
D03*
X19835D02*
D03*
Y52165D02*
D03*
X52165D02*
D03*
X58860Y36000D02*
D03*
X36000Y13140D02*
D03*
X13140Y36000D02*
D03*
X36000Y58860D02*
D03*
X830164Y239835D02*
D03*
X797835D02*
D03*
Y272164D02*
D03*
X830164D02*
D03*
X836860Y256000D02*
D03*
X814000Y233140D02*
D03*
X791140Y256000D02*
D03*
X814000Y278860D02*
D03*
X36000Y836860D02*
D03*
X13140Y814000D02*
D03*
X36000Y791140D02*
D03*
X58860Y814000D02*
D03*
X52165Y830164D02*
D03*
X19835D02*
D03*
Y797835D02*
D03*
X52165D02*
D03*
X36000Y278860D02*
D03*
X13140Y256000D02*
D03*
X36000Y233140D02*
D03*
X58860Y256000D02*
D03*
X52165Y272164D02*
D03*
X19835D02*
D03*
Y239835D02*
D03*
X52165D02*
D03*
Y347836D02*
D03*
X19835D02*
D03*
Y380164D02*
D03*
X52165D02*
D03*
X58860Y364000D02*
D03*
X36000Y341140D02*
D03*
X13140Y364000D02*
D03*
X36000Y386860D02*
D03*
X830164Y797835D02*
D03*
X797835D02*
D03*
Y830164D02*
D03*
X830164D02*
D03*
X836860Y814000D02*
D03*
X814000Y791140D02*
D03*
X791140Y814000D02*
D03*
X814000Y836860D02*
D03*
Y386860D02*
D03*
X791140Y364000D02*
D03*
X814000Y341140D02*
D03*
X836860Y364000D02*
D03*
X830164Y380164D02*
D03*
X797835D02*
D03*
Y347836D02*
D03*
X830164D02*
D03*
X425000Y58860D02*
D03*
X402140Y36000D02*
D03*
X425000Y13140D02*
D03*
X447860Y36000D02*
D03*
X441164Y52165D02*
D03*
X408835D02*
D03*
Y19835D02*
D03*
X441164D02*
D03*
X425000Y836860D02*
D03*
X402140Y814000D02*
D03*
X425000Y791140D02*
D03*
X447860Y814000D02*
D03*
X441164Y830164D02*
D03*
X408835D02*
D03*
Y797835D02*
D03*
X441164D02*
D03*
X830164Y19835D02*
D03*
X797835D02*
D03*
Y52165D02*
D03*
X830164D02*
D03*
X836860Y36000D02*
D03*
X814000Y13140D02*
D03*
X791140Y36000D02*
D03*
X814000Y58860D02*
D03*
D34*
X36000Y36000D02*
D03*
X814000Y256000D02*
D03*
X36000Y814000D02*
D03*
Y256000D02*
D03*
Y364000D02*
D03*
X814000Y814000D02*
D03*
Y364000D02*
D03*
X425000Y36000D02*
D03*
Y814000D02*
D03*
X814000Y36000D02*
D03*
D35*
X5024Y96317D02*
D03*
X576358Y5024D02*
D03*
X844976Y222862D02*
D03*
X5024Y112317D02*
D03*
X5024Y815243D02*
D03*
X25024Y697361D02*
D03*
X824976Y678187D02*
D03*
X175173Y816976D02*
D03*
X5024Y272317D02*
D03*
X402189Y844976D02*
D03*
X844976Y174862D02*
D03*
X287173Y816976D02*
D03*
X111173D02*
D03*
X95808Y821438D02*
D03*
X775303Y844976D02*
D03*
X5024Y304317D02*
D03*
X844976Y382862D02*
D03*
X5024Y144317D02*
D03*
X303173Y816976D02*
D03*
X844976Y94862D02*
D03*
X25024Y489361D02*
D03*
X112359Y5024D02*
D03*
X844976Y286862D02*
D03*
X25024Y441361D02*
D03*
Y505361D02*
D03*
X384359Y5024D02*
D03*
X544358D02*
D03*
X532346Y816976D02*
D03*
X844976Y302862D02*
D03*
Y366862D02*
D03*
Y334862D02*
D03*
X844976Y829843D02*
D03*
X25024Y649361D02*
D03*
X5024Y368317D02*
D03*
X64359Y5024D02*
D03*
X628346Y816976D02*
D03*
X736358Y5024D02*
D03*
X5024Y224317D02*
D03*
X724346Y816976D02*
D03*
X256359Y5024D02*
D03*
X6008Y783273D02*
D03*
X160359Y5024D02*
D03*
X640359Y5024D02*
D03*
X143173Y816976D02*
D03*
X25024Y425362D02*
D03*
Y665361D02*
D03*
X5024Y240317D02*
D03*
X824976Y438187D02*
D03*
X704358Y5024D02*
D03*
X844976Y781843D02*
D03*
X564346Y816976D02*
D03*
X823303Y844976D02*
D03*
X5024Y799243D02*
D03*
X676346Y816976D02*
D03*
X844976Y126862D02*
D03*
X96359Y5024D02*
D03*
X25024Y553361D02*
D03*
X824976Y614187D02*
D03*
X376593Y832105D02*
D03*
X824976Y726187D02*
D03*
X335173Y816976D02*
D03*
X824976Y646187D02*
D03*
X224359Y5024D02*
D03*
X844976Y30863D02*
D03*
X500346Y816976D02*
D03*
X5024Y128317D02*
D03*
X450189Y844976D02*
D03*
X5024Y384317D02*
D03*
X473818Y830573D02*
D03*
X844976Y158862D02*
D03*
X25024Y585361D02*
D03*
X824976Y470187D02*
D03*
X791303Y844976D02*
D03*
X20614Y776742D02*
D03*
X592359Y5024D02*
D03*
X255173Y816976D02*
D03*
X271173D02*
D03*
X48359Y5024D02*
D03*
X784358Y5024D02*
D03*
X844976Y62863D02*
D03*
X59740Y844976D02*
D03*
X528358Y5024D02*
D03*
X386190Y844907D02*
D03*
X25024Y633361D02*
D03*
X191173Y816976D02*
D03*
X824976Y550187D02*
D03*
X831912Y772605D02*
D03*
X272359Y5024D02*
D03*
X824976Y758187D02*
D03*
X844976Y206863D02*
D03*
X351173Y816976D02*
D03*
X16359Y5024D02*
D03*
X672358Y5024D02*
D03*
X25024Y617361D02*
D03*
X740346Y816976D02*
D03*
X844976Y398862D02*
D03*
X5024Y192317D02*
D03*
X27740Y844976D02*
D03*
X824976Y710187D02*
D03*
X320359Y5024D02*
D03*
X336359D02*
D03*
X612346Y816976D02*
D03*
X844976Y190863D02*
D03*
X824976Y502187D02*
D03*
X5024Y320317D02*
D03*
X580346Y816976D02*
D03*
X768358Y5024D02*
D03*
X5024Y64317D02*
D03*
X824976Y566187D02*
D03*
X43740Y844976D02*
D03*
X25024Y601361D02*
D03*
X844976Y318862D02*
D03*
X844976Y797843D02*
D03*
X304359Y5024D02*
D03*
X24659Y409366D02*
D03*
X13535Y397865D02*
D03*
X192359Y5024D02*
D03*
X25024Y457361D02*
D03*
X5024Y288317D02*
D03*
X434189Y844976D02*
D03*
X824976Y694187D02*
D03*
X844976Y350862D02*
D03*
X5024Y48317D02*
D03*
Y32317D02*
D03*
X844976Y110863D02*
D03*
X692346Y816976D02*
D03*
X416359Y5024D02*
D03*
X207173Y816976D02*
D03*
X239173D02*
D03*
X128359Y5024D02*
D03*
X844976Y78863D02*
D03*
X824976Y486187D02*
D03*
X844976Y14863D02*
D03*
X708346Y816976D02*
D03*
X368359Y5024D02*
D03*
X608358Y5024D02*
D03*
X319173Y816976D02*
D03*
X496358Y5024D02*
D03*
X223173Y816976D02*
D03*
X400359Y5024D02*
D03*
X25024Y761361D02*
D03*
X832358Y5024D02*
D03*
X824976Y454187D02*
D03*
X720358Y5024D02*
D03*
X844976Y238862D02*
D03*
X13234Y844976D02*
D03*
X800358Y5024D02*
D03*
X844976Y254862D02*
D03*
X32359Y5024D02*
D03*
X75740Y844976D02*
D03*
X755352Y822528D02*
D03*
X176359Y5024D02*
D03*
X844976Y142863D02*
D03*
X25024Y729361D02*
D03*
Y681361D02*
D03*
X824976Y518187D02*
D03*
X688358Y5024D02*
D03*
X548346Y816976D02*
D03*
X25024Y569361D02*
D03*
X844976Y270863D02*
D03*
X466186Y844635D02*
D03*
X816358Y5024D02*
D03*
X25024Y473361D02*
D03*
X352359Y5024D02*
D03*
X5024Y831243D02*
D03*
X824976Y422187D02*
D03*
X367004Y819297D02*
D03*
X5024Y176317D02*
D03*
X25024Y745361D02*
D03*
X752358Y5024D02*
D03*
X484429Y818598D02*
D03*
X448358Y5024D02*
D03*
X824976Y598187D02*
D03*
X844976Y46863D02*
D03*
X5024Y336317D02*
D03*
X127173Y816976D02*
D03*
X88895Y835867D02*
D03*
X824976Y742187D02*
D03*
X432359Y5024D02*
D03*
X807303Y844976D02*
D03*
X208359Y5024D02*
D03*
X624358Y5024D02*
D03*
X25024Y521361D02*
D03*
X824976Y582187D02*
D03*
X5024Y352317D02*
D03*
Y256317D02*
D03*
X644346Y816976D02*
D03*
X5024Y80317D02*
D03*
X656358Y5024D02*
D03*
X831582Y407614D02*
D03*
X5024Y160317D02*
D03*
X159173Y816976D02*
D03*
X844976Y813843D02*
D03*
X144359Y5024D02*
D03*
X516346Y816976D02*
D03*
X288359Y5024D02*
D03*
X80359Y5024D02*
D03*
X480359Y5024D02*
D03*
X839302Y844803D02*
D03*
X464358Y5024D02*
D03*
X5024Y16317D02*
D03*
X240359Y5024D02*
D03*
X560359Y5024D02*
D03*
X824976Y630187D02*
D03*
X512359Y5024D02*
D03*
X5024Y208317D02*
D03*
X596346Y816976D02*
D03*
X761199Y837421D02*
D03*
X25024Y713361D02*
D03*
Y537361D02*
D03*
X418189Y844976D02*
D03*
X660346Y816976D02*
D03*
X824976Y534187D02*
D03*
Y662187D02*
D03*
D36*
X555400Y427000D02*
D03*
X568100Y439700D02*
D03*
Y414300D02*
D03*
X580800Y427000D02*
D03*
X555400Y355000D02*
D03*
X568100Y367700D02*
D03*
Y342300D02*
D03*
X580800Y355000D02*
D03*
X462060D02*
D03*
X474760Y367700D02*
D03*
Y342300D02*
D03*
X487460Y355000D02*
D03*
X368720Y427000D02*
D03*
X381420Y439700D02*
D03*
Y414300D02*
D03*
X394120Y427000D02*
D03*
X462060D02*
D03*
X474760Y439700D02*
D03*
Y414300D02*
D03*
X487460Y427000D02*
D03*
X368720Y355000D02*
D03*
X381420Y367700D02*
D03*
Y342300D02*
D03*
X394120Y355000D02*
D03*
X275380D02*
D03*
X288080Y367700D02*
D03*
Y342300D02*
D03*
X300780Y355000D02*
D03*
X275380Y427000D02*
D03*
X288080Y439700D02*
D03*
Y414300D02*
D03*
X300780Y427000D02*
D03*
X275380Y499000D02*
D03*
X288080Y511700D02*
D03*
Y486300D02*
D03*
X300780Y499000D02*
D03*
X368720D02*
D03*
X381420Y511700D02*
D03*
Y486300D02*
D03*
X394120Y499000D02*
D03*
X462060D02*
D03*
X474760Y511700D02*
D03*
Y486300D02*
D03*
X487460Y499000D02*
D03*
X555400D02*
D03*
X568100Y511700D02*
D03*
Y486300D02*
D03*
X580800Y499000D02*
D03*
X555400Y571000D02*
D03*
X568100Y583700D02*
D03*
Y558300D02*
D03*
X580800Y571000D02*
D03*
X462060D02*
D03*
X474760Y583700D02*
D03*
Y558300D02*
D03*
X487460Y571000D02*
D03*
X368720D02*
D03*
X381420Y583700D02*
D03*
Y558300D02*
D03*
X394120Y571000D02*
D03*
X275380D02*
D03*
X288080Y583700D02*
D03*
Y558300D02*
D03*
X300780Y571000D02*
D03*
X182040D02*
D03*
X194740Y583700D02*
D03*
Y558300D02*
D03*
X207440Y571000D02*
D03*
X182040Y499000D02*
D03*
X194740Y511700D02*
D03*
Y486300D02*
D03*
X207440Y499000D02*
D03*
X182040Y427000D02*
D03*
X194740Y439700D02*
D03*
Y414300D02*
D03*
X207440Y427000D02*
D03*
X182040Y355000D02*
D03*
X194740Y367700D02*
D03*
Y342300D02*
D03*
X207440Y355000D02*
D03*
X88700D02*
D03*
X101400Y367700D02*
D03*
Y342300D02*
D03*
X114100Y355000D02*
D03*
X88700Y427000D02*
D03*
X101400Y439700D02*
D03*
Y414300D02*
D03*
X114100Y427000D02*
D03*
X88700Y499000D02*
D03*
X101400Y511700D02*
D03*
Y486300D02*
D03*
X114100Y499000D02*
D03*
X88700Y571000D02*
D03*
X101400Y583700D02*
D03*
Y558300D02*
D03*
X114100Y571000D02*
D03*
X182040Y643000D02*
D03*
X194740Y655700D02*
D03*
Y630300D02*
D03*
X207440Y643000D02*
D03*
X275380D02*
D03*
X288080Y655700D02*
D03*
Y630300D02*
D03*
X300780Y643000D02*
D03*
X368720D02*
D03*
X381420Y655700D02*
D03*
Y630300D02*
D03*
X394120Y643000D02*
D03*
X462060D02*
D03*
X474760Y655700D02*
D03*
Y630300D02*
D03*
X487460Y643000D02*
D03*
X580800D02*
D03*
X568100Y630300D02*
D03*
Y655700D02*
D03*
X555400Y643000D02*
D03*
Y715000D02*
D03*
X568100Y727700D02*
D03*
Y702300D02*
D03*
X580800Y715000D02*
D03*
X462060D02*
D03*
X474760Y727700D02*
D03*
Y702300D02*
D03*
X487460Y715000D02*
D03*
X368720D02*
D03*
X381420Y727700D02*
D03*
Y702300D02*
D03*
X394120Y715000D02*
D03*
X275380D02*
D03*
X288080Y727700D02*
D03*
Y702300D02*
D03*
X300780Y715000D02*
D03*
X182040D02*
D03*
X194740Y727700D02*
D03*
Y702300D02*
D03*
X207440Y715000D02*
D03*
X88700D02*
D03*
X101400Y727700D02*
D03*
Y702300D02*
D03*
X114100Y715000D02*
D03*
X88700Y643000D02*
D03*
X101400Y655700D02*
D03*
Y630300D02*
D03*
X114100Y643000D02*
D03*
D37*
X762700Y113800D02*
D03*
Y139200D02*
D03*
Y164600D02*
D03*
Y190000D02*
D03*
Y215400D02*
D03*
Y240800D02*
D03*
Y266200D02*
D03*
X737300Y139200D02*
D03*
Y164600D02*
D03*
Y190000D02*
D03*
Y215400D02*
D03*
Y240800D02*
D03*
Y266200D02*
D03*
D38*
Y113800D02*
D03*
D53*
X447040Y159643D02*
D03*
D54*
X421640Y99437D02*
D03*
X434340D02*
D03*
X447040D02*
D03*
X459740D02*
D03*
X472440D02*
D03*
D55*
X289346Y51140D02*
D03*
X264346Y60641D02*
D03*
X289346Y70141D02*
D03*
X265430Y279436D02*
D03*
X290430Y288936D02*
D03*
X265430Y298436D02*
D03*
X767280Y548030D02*
D03*
X792280Y557530D02*
D03*
X767280Y567030D02*
D03*
Y505697D02*
D03*
X792280Y515197D02*
D03*
X767280Y524697D02*
D03*
Y463363D02*
D03*
X792280Y472863D02*
D03*
X767280Y482363D02*
D03*
Y421030D02*
D03*
X792280Y430530D02*
D03*
X767280Y440030D02*
D03*
D56*
X265430Y149541D02*
D03*
X265429Y131383D02*
D03*
X265430Y174940D02*
D03*
X265431Y193099D02*
D03*
X364498Y68261D02*
D03*
X364497Y50103D02*
D03*
X364490Y204150D02*
D03*
X364491Y222309D02*
D03*
X570229Y102491D02*
D03*
X570230Y120650D02*
D03*
X570231Y164209D02*
D03*
X570230Y146050D02*
D03*
X701039Y345733D02*
D03*
X701040Y363892D02*
D03*
X701039Y417733D02*
D03*
X701040Y435892D02*
D03*
X701039Y561733D02*
D03*
X701040Y579892D02*
D03*
X701039Y633733D02*
D03*
X701040Y651892D02*
D03*
X701039Y705733D02*
D03*
X701040Y723892D02*
D03*
Y507892D02*
D03*
X701039Y489733D02*
D03*
D57*
X283963Y103820D02*
D03*
X265963D02*
D03*
X328398Y54290D02*
D03*
X310398D02*
D03*
X313580Y268920D02*
D03*
X331580D02*
D03*
X413910Y295888D02*
D03*
X431910D02*
D03*
Y269240D02*
D03*
X413910D02*
D03*
X413800Y191770D02*
D03*
X431800D02*
D03*
X453280D02*
D03*
X471280D02*
D03*
X622630Y102870D02*
D03*
X640630D02*
D03*
X451054Y295888D02*
D03*
X469054D02*
D03*
X488198D02*
D03*
X506198D02*
D03*
D58*
X265430Y236010D02*
D03*
Y218011D02*
D03*
X288290D02*
D03*
Y236010D02*
D03*
X364490Y88470D02*
D03*
Y106470D02*
D03*
Y145841D02*
D03*
Y127840D02*
D03*
Y185210D02*
D03*
Y167211D02*
D03*
X488188Y163940D02*
D03*
Y145940D02*
D03*
X514858D02*
D03*
Y163940D02*
D03*
X488188Y120760D02*
D03*
Y102760D02*
D03*
X541528D02*
D03*
Y120760D02*
D03*
X514858Y102760D02*
D03*
Y120760D02*
D03*
X541528Y189247D02*
D03*
Y207247D02*
D03*
X570230D02*
D03*
Y189247D02*
D03*
X541528Y145940D02*
D03*
Y163940D02*
D03*
X718820Y346000D02*
D03*
Y364000D02*
D03*
X736600D02*
D03*
Y346000D02*
D03*
X718820Y418000D02*
D03*
Y436000D02*
D03*
X736600D02*
D03*
Y418000D02*
D03*
X718820Y490000D02*
D03*
Y508000D02*
D03*
X736600D02*
D03*
Y490000D02*
D03*
X718820Y562000D02*
D03*
Y580000D02*
D03*
X736600D02*
D03*
Y562000D02*
D03*
X718820Y634000D02*
D03*
Y652000D02*
D03*
X736600Y634000D02*
D03*
Y652000D02*
D03*
X718820Y706000D02*
D03*
Y724000D02*
D03*
X736600D02*
D03*
Y706000D02*
D03*
D59*
X265430Y258761D02*
D03*
X346710Y79690D02*
D03*
X364490Y242250D02*
D03*
Y267651D02*
D03*
X736600Y299720D02*
D03*
X608330Y751840D02*
D03*
X528320D02*
D03*
X265430Y28725D02*
D03*
X736600Y613410D02*
D03*
Y397192D02*
D03*
X589280Y240030D02*
D03*
X626110D02*
D03*
X736600Y469265D02*
D03*
Y685800D02*
D03*
Y541338D02*
D03*
Y325120D02*
D03*
D60*
X328288Y79690D02*
D03*
X310129Y79692D02*
D03*
X328288Y103820D02*
D03*
X310129Y103822D02*
D03*
X312421Y218120D02*
D03*
X330580Y218119D02*
D03*
X330201Y239711D02*
D03*
X312042Y239712D02*
D03*
X447931Y214631D02*
D03*
X466090Y214630D02*
D03*
X489841Y214631D02*
D03*
X508000Y214630D02*
D03*
X489842Y191771D02*
D03*
X508001Y191770D02*
D03*
X718821Y309880D02*
D03*
X700662Y309881D02*
D03*
Y330201D02*
D03*
X718821Y330200D02*
D03*
X700662Y401956D02*
D03*
X718821Y401955D02*
D03*
X700662Y473711D02*
D03*
X718821Y473710D02*
D03*
X700662Y545466D02*
D03*
X718821Y545465D02*
D03*
X700662Y617221D02*
D03*
X718821Y617220D02*
D03*
D61*
X337185Y134173D02*
D03*
X330835D02*
D03*
X324485D02*
D03*
X318135D02*
D03*
X311785D02*
D03*
X305435D02*
D03*
X299085D02*
D03*
X292735D02*
D03*
Y185228D02*
D03*
X299085D02*
D03*
X305435D02*
D03*
X311785D02*
D03*
X318135D02*
D03*
X324485D02*
D03*
X330835D02*
D03*
X337185D02*
D03*
D62*
X329049Y293155D02*
D03*
X329057Y28598D02*
D03*
D63*
X362069Y293155D02*
D03*
X362077Y28598D02*
D03*
D64*
X631630Y143510D02*
D03*
D65*
X659880Y162560D02*
D03*
Y149860D02*
D03*
Y137160D02*
D03*
Y124460D02*
D03*
X603380Y162560D02*
D03*
Y149860D02*
D03*
Y137160D02*
D03*
Y124460D02*
D03*
D66*
X751840Y40640D02*
D03*
Y57940D02*
D03*
D67*
X713170Y71700D02*
D03*
Y31060D02*
D03*
D68*
X671630Y695976D02*
D03*
X666630D02*
D03*
X661630D02*
D03*
X656630D02*
D03*
X651630D02*
D03*
X646630D02*
D03*
Y734024D02*
D03*
X651630D02*
D03*
X656630D02*
D03*
X661630D02*
D03*
X666630D02*
D03*
X671630D02*
D03*
Y518024D02*
D03*
X666630D02*
D03*
X661630D02*
D03*
X656630D02*
D03*
X651630D02*
D03*
X646630D02*
D03*
Y479976D02*
D03*
X651630D02*
D03*
X656630D02*
D03*
X661630D02*
D03*
X666630D02*
D03*
X671630D02*
D03*
Y623976D02*
D03*
X666630D02*
D03*
X661630D02*
D03*
X656630D02*
D03*
X651630D02*
D03*
X646630D02*
D03*
Y662024D02*
D03*
X651630D02*
D03*
X656630D02*
D03*
X661630D02*
D03*
X666630D02*
D03*
X671630D02*
D03*
Y446024D02*
D03*
X666630D02*
D03*
X661630D02*
D03*
X656630D02*
D03*
X651630D02*
D03*
X646630D02*
D03*
Y407976D02*
D03*
X651630D02*
D03*
X656630D02*
D03*
X661630D02*
D03*
X666630D02*
D03*
X671630D02*
D03*
Y335976D02*
D03*
X666630D02*
D03*
X661630D02*
D03*
X656630D02*
D03*
X651630D02*
D03*
X646630D02*
D03*
Y374024D02*
D03*
X651630D02*
D03*
X656630D02*
D03*
X661630D02*
D03*
X666630D02*
D03*
X671630D02*
D03*
Y590024D02*
D03*
X666630D02*
D03*
X661630D02*
D03*
X656630D02*
D03*
X651630D02*
D03*
X646630D02*
D03*
Y551976D02*
D03*
X651630D02*
D03*
X656630D02*
D03*
X661630D02*
D03*
X666630D02*
D03*
X671630D02*
D03*
D69*
X640106Y702500D02*
D03*
Y707500D02*
D03*
Y712500D02*
D03*
Y717500D02*
D03*
Y722500D02*
D03*
Y727500D02*
D03*
X678154D02*
D03*
Y722500D02*
D03*
Y717500D02*
D03*
Y712500D02*
D03*
Y707500D02*
D03*
Y702500D02*
D03*
Y486500D02*
D03*
Y491500D02*
D03*
Y496500D02*
D03*
Y501500D02*
D03*
Y506500D02*
D03*
Y511500D02*
D03*
X640106D02*
D03*
Y506500D02*
D03*
Y501500D02*
D03*
Y496500D02*
D03*
Y491500D02*
D03*
Y486500D02*
D03*
Y630500D02*
D03*
Y635500D02*
D03*
Y640500D02*
D03*
Y645500D02*
D03*
Y650500D02*
D03*
Y655500D02*
D03*
X678154D02*
D03*
Y650500D02*
D03*
Y645500D02*
D03*
Y640500D02*
D03*
Y635500D02*
D03*
Y630500D02*
D03*
Y414500D02*
D03*
Y419500D02*
D03*
Y424500D02*
D03*
Y429500D02*
D03*
Y434500D02*
D03*
Y439500D02*
D03*
X640106D02*
D03*
Y434500D02*
D03*
Y429500D02*
D03*
Y424500D02*
D03*
Y419500D02*
D03*
Y414500D02*
D03*
Y342500D02*
D03*
Y347500D02*
D03*
Y352500D02*
D03*
Y357500D02*
D03*
Y362500D02*
D03*
Y367500D02*
D03*
X678154D02*
D03*
Y362500D02*
D03*
Y357500D02*
D03*
Y352500D02*
D03*
Y347500D02*
D03*
Y342500D02*
D03*
Y558500D02*
D03*
Y563500D02*
D03*
Y568500D02*
D03*
Y573500D02*
D03*
Y578500D02*
D03*
Y583500D02*
D03*
X640106D02*
D03*
Y578500D02*
D03*
Y573500D02*
D03*
Y568500D02*
D03*
Y563500D02*
D03*
Y558500D02*
D03*
D70*
X659130Y715000D02*
D03*
Y499000D02*
D03*
Y643000D02*
D03*
Y427000D02*
D03*
Y355000D02*
D03*
Y571000D02*
D03*
D71*
X792435Y741480D02*
D03*
Y602980D02*
D03*
D72*
X505770Y274770D02*
D03*
Y268270D02*
D03*
Y261770D02*
D03*
Y255270D02*
D03*
Y248770D02*
D03*
Y242270D02*
D03*
Y235770D02*
D03*
X449270Y274770D02*
D03*
Y268270D02*
D03*
Y261770D02*
D03*
Y255270D02*
D03*
Y248770D02*
D03*
Y242270D02*
D03*
Y235770D02*
D03*
D73*
X659130Y54610D02*
D03*
X604130D02*
D03*
D74*
X416167Y221870D02*
D03*
Y237870D02*
D03*
D75*
X392938Y98298D02*
D03*
Y143002D02*
D03*
X502920Y73152D02*
D03*
Y28448D02*
D03*
X553720Y73240D02*
D03*
Y28536D02*
D03*
D76*
X558931Y227530D02*
D03*
X549431Y252530D02*
D03*
X539931Y227530D02*
D03*
X672440D02*
D03*
X662940Y252530D02*
D03*
X653440Y227530D02*
D03*
Y271980D02*
D03*
X662940Y296980D02*
D03*
X672440Y271980D02*
D03*
X597320D02*
D03*
X606820Y296980D02*
D03*
X616320Y271980D02*
D03*
X539931D02*
D03*
X549431Y296980D02*
D03*
X558931Y271980D02*
D03*
D77*
X615370Y195580D02*
D03*
X660074D02*
D03*
D78*
X458410Y391840D02*
D03*
X491110D02*
D03*
X551750D02*
D03*
X584450D02*
D03*
X551750Y463840D02*
D03*
X584450D02*
D03*
X458410D02*
D03*
X491110D02*
D03*
X458410Y535840D02*
D03*
X491110D02*
D03*
X551750D02*
D03*
X584450D02*
D03*
X551750Y607840D02*
D03*
X584450D02*
D03*
X458410D02*
D03*
X491110D02*
D03*
X365070D02*
D03*
X397770D02*
D03*
X365070Y535840D02*
D03*
X397770D02*
D03*
X365070Y463840D02*
D03*
X397770D02*
D03*
X365070Y391840D02*
D03*
X397770D02*
D03*
X271730D02*
D03*
X304430D02*
D03*
X271730Y463840D02*
D03*
X304430D02*
D03*
X271730Y535840D02*
D03*
X304430D02*
D03*
X178390Y607840D02*
D03*
X211090D02*
D03*
X271730D02*
D03*
X304430D02*
D03*
X178390Y535840D02*
D03*
X211090D02*
D03*
X178390Y463840D02*
D03*
X211090D02*
D03*
X178390Y391840D02*
D03*
X211090D02*
D03*
X85050D02*
D03*
X117750D02*
D03*
X85050Y463840D02*
D03*
X117750D02*
D03*
X85050Y535840D02*
D03*
X117750D02*
D03*
X85050Y607840D02*
D03*
X117750D02*
D03*
X85050Y679840D02*
D03*
X117750D02*
D03*
X178390D02*
D03*
X211090D02*
D03*
X271730D02*
D03*
X304430D02*
D03*
X365070D02*
D03*
X397770D02*
D03*
X458410D02*
D03*
X491110D02*
D03*
X551750D02*
D03*
X584450D02*
D03*
X551750Y751840D02*
D03*
X584450D02*
D03*
X458410D02*
D03*
X491110D02*
D03*
X365070D02*
D03*
X397770D02*
D03*
X271730D02*
D03*
X304430D02*
D03*
X178390D02*
D03*
X211090D02*
D03*
X85050D02*
D03*
X117750D02*
D03*
D79*
X763435Y715980D02*
D03*
Y703480D02*
D03*
Y690980D02*
D03*
Y678480D02*
D03*
Y665980D02*
D03*
Y653480D02*
D03*
Y640980D02*
D03*
Y628480D02*
D03*
M02*
