G04*
G04 #@! TF.GenerationSoftware,Altium Limited,Altium Designer,24.1.2 (44)*
G04*
G04 Layer_Color=255*
%FSLAX44Y44*%
%MOMM*%
G71*
G04*
G04 #@! TF.SameCoordinates,B110DDA6-C1C3-4D62-A74E-62470A3AD7F2*
G04*
G04*
G04 #@! TF.FilePolarity,Positive*
G04*
G01*
G75*
%ADD33C,1.2000*%
%ADD34C,6.0000*%
%ADD35C,0.6000*%
%ADD36C,1.0000*%
%ADD37C,1.6000*%
%ADD38R,1.6000X1.6000*%
D33*
X52165Y19835D02*
D03*
X19835D02*
D03*
Y52165D02*
D03*
X52165D02*
D03*
X58860Y36000D02*
D03*
X36000Y13140D02*
D03*
X13140Y36000D02*
D03*
X36000Y58860D02*
D03*
X830164Y239835D02*
D03*
X797835D02*
D03*
Y272164D02*
D03*
X830164D02*
D03*
X836860Y256000D02*
D03*
X814000Y233140D02*
D03*
X791140Y256000D02*
D03*
X814000Y278860D02*
D03*
X36000Y836860D02*
D03*
X13140Y814000D02*
D03*
X36000Y791140D02*
D03*
X58860Y814000D02*
D03*
X52165Y830164D02*
D03*
X19835D02*
D03*
Y797835D02*
D03*
X52165D02*
D03*
X36000Y278860D02*
D03*
X13140Y256000D02*
D03*
X36000Y233140D02*
D03*
X58860Y256000D02*
D03*
X52165Y272164D02*
D03*
X19835D02*
D03*
Y239835D02*
D03*
X52165D02*
D03*
Y347836D02*
D03*
X19835D02*
D03*
Y380164D02*
D03*
X52165D02*
D03*
X58860Y364000D02*
D03*
X36000Y341140D02*
D03*
X13140Y364000D02*
D03*
X36000Y386860D02*
D03*
X830164Y797835D02*
D03*
X797835D02*
D03*
Y830164D02*
D03*
X830164D02*
D03*
X836860Y814000D02*
D03*
X814000Y791140D02*
D03*
X791140Y814000D02*
D03*
X814000Y836860D02*
D03*
Y386860D02*
D03*
X791140Y364000D02*
D03*
X814000Y341140D02*
D03*
X836860Y364000D02*
D03*
X830164Y380164D02*
D03*
X797835D02*
D03*
Y347836D02*
D03*
X830164D02*
D03*
X425000Y58860D02*
D03*
X402140Y36000D02*
D03*
X425000Y13140D02*
D03*
X447860Y36000D02*
D03*
X441164Y52165D02*
D03*
X408835D02*
D03*
Y19835D02*
D03*
X441164D02*
D03*
X425000Y836860D02*
D03*
X402140Y814000D02*
D03*
X425000Y791140D02*
D03*
X447860Y814000D02*
D03*
X441164Y830164D02*
D03*
X408835D02*
D03*
Y797835D02*
D03*
X441164D02*
D03*
X830164Y19835D02*
D03*
X797835D02*
D03*
Y52165D02*
D03*
X830164D02*
D03*
X836860Y36000D02*
D03*
X814000Y13140D02*
D03*
X791140Y36000D02*
D03*
X814000Y58860D02*
D03*
D34*
X36000Y36000D02*
D03*
X814000Y256000D02*
D03*
X36000Y814000D02*
D03*
Y256000D02*
D03*
Y364000D02*
D03*
X814000Y814000D02*
D03*
Y364000D02*
D03*
X425000Y36000D02*
D03*
Y814000D02*
D03*
X814000Y36000D02*
D03*
D35*
X5024Y96317D02*
D03*
X576358Y5024D02*
D03*
X844976Y222862D02*
D03*
X5024Y112317D02*
D03*
X5024Y815243D02*
D03*
X25024Y697361D02*
D03*
X824976Y678187D02*
D03*
X175173Y816976D02*
D03*
X5024Y272317D02*
D03*
X402189Y844976D02*
D03*
X844976Y174862D02*
D03*
X287173Y816976D02*
D03*
X111173D02*
D03*
X95808Y821438D02*
D03*
X775303Y844976D02*
D03*
X5024Y304317D02*
D03*
X844976Y382862D02*
D03*
X5024Y144317D02*
D03*
X303173Y816976D02*
D03*
X844976Y94862D02*
D03*
X25024Y489361D02*
D03*
X112359Y5024D02*
D03*
X844976Y286862D02*
D03*
X25024Y441361D02*
D03*
Y505361D02*
D03*
X384359Y5024D02*
D03*
X544358D02*
D03*
X532346Y816976D02*
D03*
X844976Y302862D02*
D03*
Y366862D02*
D03*
Y334862D02*
D03*
X844976Y829843D02*
D03*
X25024Y649361D02*
D03*
X5024Y368317D02*
D03*
X64359Y5024D02*
D03*
X628346Y816976D02*
D03*
X736358Y5024D02*
D03*
X5024Y224317D02*
D03*
X724346Y816976D02*
D03*
X256359Y5024D02*
D03*
X6008Y783273D02*
D03*
X160359Y5024D02*
D03*
X640359Y5024D02*
D03*
X143173Y816976D02*
D03*
X25024Y425362D02*
D03*
Y665361D02*
D03*
X5024Y240317D02*
D03*
X824976Y438187D02*
D03*
X704358Y5024D02*
D03*
X844976Y781843D02*
D03*
X564346Y816976D02*
D03*
X823303Y844976D02*
D03*
X5024Y799243D02*
D03*
X676346Y816976D02*
D03*
X844976Y126862D02*
D03*
X96359Y5024D02*
D03*
X25024Y553361D02*
D03*
X824976Y614187D02*
D03*
X376593Y832105D02*
D03*
X824976Y726187D02*
D03*
X335173Y816976D02*
D03*
X824976Y646187D02*
D03*
X224359Y5024D02*
D03*
X844976Y30863D02*
D03*
X500346Y816976D02*
D03*
X5024Y128317D02*
D03*
X450189Y844976D02*
D03*
X5024Y384317D02*
D03*
X473818Y830573D02*
D03*
X844976Y158862D02*
D03*
X25024Y585361D02*
D03*
X824976Y470187D02*
D03*
X791303Y844976D02*
D03*
X20614Y776742D02*
D03*
X592359Y5024D02*
D03*
X255173Y816976D02*
D03*
X271173D02*
D03*
X48359Y5024D02*
D03*
X784358Y5024D02*
D03*
X844976Y62863D02*
D03*
X59740Y844976D02*
D03*
X528358Y5024D02*
D03*
X386190Y844907D02*
D03*
X25024Y633361D02*
D03*
X191173Y816976D02*
D03*
X824976Y550187D02*
D03*
X831912Y772605D02*
D03*
X272359Y5024D02*
D03*
X824976Y758187D02*
D03*
X844976Y206863D02*
D03*
X351173Y816976D02*
D03*
X16359Y5024D02*
D03*
X672358Y5024D02*
D03*
X25024Y617361D02*
D03*
X740346Y816976D02*
D03*
X844976Y398862D02*
D03*
X5024Y192317D02*
D03*
X27740Y844976D02*
D03*
X824976Y710187D02*
D03*
X320359Y5024D02*
D03*
X336359D02*
D03*
X612346Y816976D02*
D03*
X844976Y190863D02*
D03*
X824976Y502187D02*
D03*
X5024Y320317D02*
D03*
X580346Y816976D02*
D03*
X768358Y5024D02*
D03*
X5024Y64317D02*
D03*
X824976Y566187D02*
D03*
X43740Y844976D02*
D03*
X25024Y601361D02*
D03*
X844976Y318862D02*
D03*
X844976Y797843D02*
D03*
X304359Y5024D02*
D03*
X24659Y409366D02*
D03*
X13535Y397865D02*
D03*
X192359Y5024D02*
D03*
X25024Y457361D02*
D03*
X5024Y288317D02*
D03*
X434189Y844976D02*
D03*
X824976Y694187D02*
D03*
X844976Y350862D02*
D03*
X5024Y48317D02*
D03*
Y32317D02*
D03*
X844976Y110863D02*
D03*
X692346Y816976D02*
D03*
X416359Y5024D02*
D03*
X207173Y816976D02*
D03*
X239173D02*
D03*
X128359Y5024D02*
D03*
X844976Y78863D02*
D03*
X824976Y486187D02*
D03*
X844976Y14863D02*
D03*
X708346Y816976D02*
D03*
X368359Y5024D02*
D03*
X608358Y5024D02*
D03*
X319173Y816976D02*
D03*
X496358Y5024D02*
D03*
X223173Y816976D02*
D03*
X400359Y5024D02*
D03*
X25024Y761361D02*
D03*
X832358Y5024D02*
D03*
X824976Y454187D02*
D03*
X720358Y5024D02*
D03*
X844976Y238862D02*
D03*
X13234Y844976D02*
D03*
X800358Y5024D02*
D03*
X844976Y254862D02*
D03*
X32359Y5024D02*
D03*
X75740Y844976D02*
D03*
X755352Y822528D02*
D03*
X176359Y5024D02*
D03*
X844976Y142863D02*
D03*
X25024Y729361D02*
D03*
Y681361D02*
D03*
X824976Y518187D02*
D03*
X688358Y5024D02*
D03*
X548346Y816976D02*
D03*
X25024Y569361D02*
D03*
X844976Y270863D02*
D03*
X466186Y844635D02*
D03*
X816358Y5024D02*
D03*
X25024Y473361D02*
D03*
X352359Y5024D02*
D03*
X5024Y831243D02*
D03*
X824976Y422187D02*
D03*
X367004Y819297D02*
D03*
X5024Y176317D02*
D03*
X25024Y745361D02*
D03*
X752358Y5024D02*
D03*
X484429Y818598D02*
D03*
X448358Y5024D02*
D03*
X824976Y598187D02*
D03*
X844976Y46863D02*
D03*
X5024Y336317D02*
D03*
X127173Y816976D02*
D03*
X88895Y835867D02*
D03*
X824976Y742187D02*
D03*
X432359Y5024D02*
D03*
X807303Y844976D02*
D03*
X208359Y5024D02*
D03*
X624358Y5024D02*
D03*
X25024Y521361D02*
D03*
X824976Y582187D02*
D03*
X5024Y352317D02*
D03*
Y256317D02*
D03*
X644346Y816976D02*
D03*
X5024Y80317D02*
D03*
X656358Y5024D02*
D03*
X831582Y407614D02*
D03*
X5024Y160317D02*
D03*
X159173Y816976D02*
D03*
X844976Y813843D02*
D03*
X144359Y5024D02*
D03*
X516346Y816976D02*
D03*
X288359Y5024D02*
D03*
X80359Y5024D02*
D03*
X480359Y5024D02*
D03*
X839302Y844803D02*
D03*
X464358Y5024D02*
D03*
X5024Y16317D02*
D03*
X240359Y5024D02*
D03*
X560359Y5024D02*
D03*
X824976Y630187D02*
D03*
X512359Y5024D02*
D03*
X5024Y208317D02*
D03*
X596346Y816976D02*
D03*
X761199Y837421D02*
D03*
X25024Y713361D02*
D03*
Y537361D02*
D03*
X418189Y844976D02*
D03*
X660346Y816976D02*
D03*
X824976Y534187D02*
D03*
Y662187D02*
D03*
D36*
X555400Y427000D02*
D03*
X568100Y439700D02*
D03*
Y414300D02*
D03*
X580800Y427000D02*
D03*
X555400Y355000D02*
D03*
X568100Y367700D02*
D03*
Y342300D02*
D03*
X580800Y355000D02*
D03*
X462060D02*
D03*
X474760Y367700D02*
D03*
Y342300D02*
D03*
X487460Y355000D02*
D03*
X368720Y427000D02*
D03*
X381420Y439700D02*
D03*
Y414300D02*
D03*
X394120Y427000D02*
D03*
X462060D02*
D03*
X474760Y439700D02*
D03*
Y414300D02*
D03*
X487460Y427000D02*
D03*
X368720Y355000D02*
D03*
X381420Y367700D02*
D03*
Y342300D02*
D03*
X394120Y355000D02*
D03*
X275380D02*
D03*
X288080Y367700D02*
D03*
Y342300D02*
D03*
X300780Y355000D02*
D03*
X275380Y427000D02*
D03*
X288080Y439700D02*
D03*
Y414300D02*
D03*
X300780Y427000D02*
D03*
X275380Y499000D02*
D03*
X288080Y511700D02*
D03*
Y486300D02*
D03*
X300780Y499000D02*
D03*
X368720D02*
D03*
X381420Y511700D02*
D03*
Y486300D02*
D03*
X394120Y499000D02*
D03*
X462060D02*
D03*
X474760Y511700D02*
D03*
Y486300D02*
D03*
X487460Y499000D02*
D03*
X555400D02*
D03*
X568100Y511700D02*
D03*
Y486300D02*
D03*
X580800Y499000D02*
D03*
X555400Y571000D02*
D03*
X568100Y583700D02*
D03*
Y558300D02*
D03*
X580800Y571000D02*
D03*
X462060D02*
D03*
X474760Y583700D02*
D03*
Y558300D02*
D03*
X487460Y571000D02*
D03*
X368720D02*
D03*
X381420Y583700D02*
D03*
Y558300D02*
D03*
X394120Y571000D02*
D03*
X275380D02*
D03*
X288080Y583700D02*
D03*
Y558300D02*
D03*
X300780Y571000D02*
D03*
X182040D02*
D03*
X194740Y583700D02*
D03*
Y558300D02*
D03*
X207440Y571000D02*
D03*
X182040Y499000D02*
D03*
X194740Y511700D02*
D03*
Y486300D02*
D03*
X207440Y499000D02*
D03*
X182040Y427000D02*
D03*
X194740Y439700D02*
D03*
Y414300D02*
D03*
X207440Y427000D02*
D03*
X182040Y355000D02*
D03*
X194740Y367700D02*
D03*
Y342300D02*
D03*
X207440Y355000D02*
D03*
X88700D02*
D03*
X101400Y367700D02*
D03*
Y342300D02*
D03*
X114100Y355000D02*
D03*
X88700Y427000D02*
D03*
X101400Y439700D02*
D03*
Y414300D02*
D03*
X114100Y427000D02*
D03*
X88700Y499000D02*
D03*
X101400Y511700D02*
D03*
Y486300D02*
D03*
X114100Y499000D02*
D03*
X88700Y571000D02*
D03*
X101400Y583700D02*
D03*
Y558300D02*
D03*
X114100Y571000D02*
D03*
X182040Y643000D02*
D03*
X194740Y655700D02*
D03*
Y630300D02*
D03*
X207440Y643000D02*
D03*
X275380D02*
D03*
X288080Y655700D02*
D03*
Y630300D02*
D03*
X300780Y643000D02*
D03*
X368720D02*
D03*
X381420Y655700D02*
D03*
Y630300D02*
D03*
X394120Y643000D02*
D03*
X462060D02*
D03*
X474760Y655700D02*
D03*
Y630300D02*
D03*
X487460Y643000D02*
D03*
X580800D02*
D03*
X568100Y630300D02*
D03*
Y655700D02*
D03*
X555400Y643000D02*
D03*
Y715000D02*
D03*
X568100Y727700D02*
D03*
Y702300D02*
D03*
X580800Y715000D02*
D03*
X462060D02*
D03*
X474760Y727700D02*
D03*
Y702300D02*
D03*
X487460Y715000D02*
D03*
X368720D02*
D03*
X381420Y727700D02*
D03*
Y702300D02*
D03*
X394120Y715000D02*
D03*
X275380D02*
D03*
X288080Y727700D02*
D03*
Y702300D02*
D03*
X300780Y715000D02*
D03*
X182040D02*
D03*
X194740Y727700D02*
D03*
Y702300D02*
D03*
X207440Y715000D02*
D03*
X88700D02*
D03*
X101400Y727700D02*
D03*
Y702300D02*
D03*
X114100Y715000D02*
D03*
X88700Y643000D02*
D03*
X101400Y655700D02*
D03*
Y630300D02*
D03*
X114100Y643000D02*
D03*
D37*
X762700Y113800D02*
D03*
Y139200D02*
D03*
Y164600D02*
D03*
Y190000D02*
D03*
Y215400D02*
D03*
Y240800D02*
D03*
Y266200D02*
D03*
X737300Y139200D02*
D03*
Y164600D02*
D03*
Y190000D02*
D03*
Y215400D02*
D03*
Y240800D02*
D03*
Y266200D02*
D03*
D38*
Y113800D02*
D03*
M02*
