G04*
G04 #@! TF.GenerationSoftware,Altium Limited,Altium Designer,24.1.2 (44)*
G04*
G04 Layer_Physical_Order=1*
G04 Layer_Color=255*
%FSLAX44Y44*%
%MOMM*%
G71*
G04*
G04 #@! TF.SameCoordinates,B110DDA6-C1C3-4D62-A74E-62470A3AD7F2*
G04*
G04*
G04 #@! TF.FilePolarity,Positive*
G04*
G01*
G75*
%ADD11C,0.4000*%
%ADD13C,0.2540*%
%ADD14C,1.0000*%
%ADD26C,0.3000*%
%ADD27C,0.5000*%
%ADD28C,0.6000*%
%ADD29R,2.2016X1.9106*%
%ADD30R,2.1673X2.4556*%
%ADD31R,2.0376X6.5196*%
%ADD32R,2.2860X2.0320*%
%ADD33C,1.2000*%
%ADD34C,6.0000*%
%ADD35C,0.6000*%
%ADD36C,1.0000*%
%ADD37C,1.6000*%
%ADD38R,1.6000X1.6000*%
%ADD39C,0.4000*%
G36*
X792626Y837174D02*
X789973Y834521D01*
X787059Y830510D01*
X784808Y826092D01*
X783276Y821376D01*
X782500Y816479D01*
Y811521D01*
X783276Y806624D01*
X784808Y801908D01*
X787059Y797490D01*
X789973Y793479D01*
X793479Y789973D01*
X797490Y787059D01*
X801908Y784808D01*
X806624Y783276D01*
X811521Y782500D01*
X816479D01*
X821376Y783276D01*
X826092Y784808D01*
X830510Y787059D01*
X834521Y789973D01*
X837174Y792626D01*
X838444Y792100D01*
Y781451D01*
X835786Y781189D01*
X831733Y779959D01*
X827998Y777963D01*
X824725Y775276D01*
X822038Y772002D01*
X820041Y768268D01*
X818812Y764215D01*
X818403Y760062D01*
X818403D01*
X818444Y758810D01*
Y420000D01*
X818396D01*
X818811Y415785D01*
X820041Y411732D01*
X822037Y407998D01*
X824724Y404724D01*
X827998Y402037D01*
X831732Y400041D01*
X835785Y398811D01*
X838444Y398549D01*
Y385900D01*
X837174Y385374D01*
X834521Y388027D01*
X830510Y390941D01*
X826092Y393192D01*
X821376Y394724D01*
X816479Y395500D01*
X811521D01*
X806624Y394724D01*
X801908Y393192D01*
X797490Y390941D01*
X793479Y388027D01*
X789973Y384521D01*
X787059Y380510D01*
X784808Y376092D01*
X783276Y371376D01*
X782500Y366479D01*
Y361521D01*
X783276Y356624D01*
X784808Y351908D01*
X787059Y347490D01*
X789973Y343479D01*
X793479Y339973D01*
X797490Y337059D01*
X801908Y334808D01*
X806624Y333276D01*
X811521Y332500D01*
X816479D01*
X821376Y333276D01*
X826092Y334808D01*
X830510Y337059D01*
X834521Y339973D01*
X837174Y342626D01*
X838444Y342100D01*
X838444Y277900D01*
X837174Y277374D01*
X834521Y280027D01*
X830510Y282941D01*
X826092Y285192D01*
X821376Y286724D01*
X816479Y287500D01*
X811521D01*
X806624Y286724D01*
X801908Y285192D01*
X797490Y282941D01*
X793479Y280027D01*
X789973Y276521D01*
X787059Y272510D01*
X784808Y268092D01*
X783276Y263376D01*
X782500Y258479D01*
Y253521D01*
X783276Y248624D01*
X784808Y243908D01*
X787059Y239490D01*
X789973Y235479D01*
X793479Y231973D01*
X797490Y229059D01*
X801908Y226808D01*
X806624Y225276D01*
X811521Y224500D01*
X816479D01*
X821376Y225276D01*
X826092Y226808D01*
X830510Y229059D01*
X834521Y231973D01*
X837174Y234626D01*
X838444Y234100D01*
X838444Y57900D01*
X837174Y57374D01*
X834521Y60027D01*
X830510Y62941D01*
X826092Y65192D01*
X821376Y66724D01*
X816479Y67500D01*
X811521D01*
X806624Y66724D01*
X801908Y65192D01*
X797490Y62941D01*
X793479Y60027D01*
X789973Y56521D01*
X787059Y52510D01*
X784808Y48092D01*
X783276Y43376D01*
X782500Y38479D01*
Y33521D01*
X783276Y28624D01*
X784808Y23908D01*
X787059Y19490D01*
X789973Y15479D01*
X792626Y12826D01*
X792100Y11556D01*
X446900Y11556D01*
X446374Y12826D01*
X449027Y15479D01*
X451941Y19490D01*
X454192Y23908D01*
X455724Y28624D01*
X456500Y33521D01*
Y38479D01*
X455724Y43376D01*
X454192Y48092D01*
X451941Y52510D01*
X449027Y56521D01*
X445521Y60027D01*
X441510Y62941D01*
X437092Y65192D01*
X432376Y66724D01*
X427479Y67500D01*
X422521D01*
X417624Y66724D01*
X412908Y65192D01*
X408490Y62941D01*
X404479Y60027D01*
X400973Y56521D01*
X398059Y52510D01*
X395808Y48092D01*
X394276Y43376D01*
X393500Y38479D01*
Y33521D01*
X394276Y28624D01*
X395808Y23908D01*
X398059Y19490D01*
X400973Y15479D01*
X403626Y12826D01*
X403100Y11556D01*
X57900Y11556D01*
X57374Y12826D01*
X60027Y15479D01*
X62941Y19490D01*
X65192Y23908D01*
X66724Y28624D01*
X67500Y33521D01*
Y38479D01*
X66724Y43376D01*
X65192Y48092D01*
X62941Y52510D01*
X60027Y56521D01*
X56521Y60027D01*
X52510Y62941D01*
X48092Y65192D01*
X43376Y66724D01*
X38479Y67500D01*
X33521D01*
X28624Y66724D01*
X23908Y65192D01*
X19490Y62941D01*
X15479Y60027D01*
X12826Y57374D01*
X11556Y57900D01*
X11556Y234100D01*
X12826Y234626D01*
X15479Y231973D01*
X19490Y229059D01*
X23908Y226808D01*
X28624Y225276D01*
X33521Y224500D01*
X38479D01*
X43376Y225276D01*
X48092Y226808D01*
X52510Y229059D01*
X56521Y231973D01*
X60027Y235479D01*
X62941Y239490D01*
X65192Y243908D01*
X66724Y248624D01*
X67500Y253521D01*
Y258479D01*
X66724Y263376D01*
X65192Y268092D01*
X62941Y272510D01*
X60027Y276521D01*
X56521Y280027D01*
X52510Y282941D01*
X48092Y285192D01*
X43376Y286724D01*
X38479Y287500D01*
X33521D01*
X28624Y286724D01*
X23908Y285192D01*
X19490Y282941D01*
X15479Y280027D01*
X12826Y277374D01*
X11556Y277900D01*
Y342100D01*
X12826Y342626D01*
X15479Y339973D01*
X19490Y337059D01*
X23908Y334808D01*
X28624Y333276D01*
X33521Y332500D01*
X38479D01*
X43376Y333276D01*
X48092Y334808D01*
X52510Y337059D01*
X56521Y339973D01*
X60027Y343479D01*
X62941Y347490D01*
X65192Y351908D01*
X66724Y356624D01*
X67500Y361521D01*
Y366479D01*
X66724Y371376D01*
X65192Y376092D01*
X62941Y380510D01*
X60027Y384521D01*
X56521Y388027D01*
X52510Y390941D01*
X48092Y393192D01*
X43376Y394724D01*
X38479Y395500D01*
X33521D01*
X28624Y394724D01*
X23908Y393192D01*
X19490Y390941D01*
X15479Y388027D01*
X12826Y385374D01*
X11556Y385900D01*
Y390979D01*
X14215Y391241D01*
X18268Y392471D01*
X22003Y394467D01*
X25276Y397154D01*
X27963Y400428D01*
X29960Y404162D01*
X31189Y408215D01*
X31604Y412430D01*
X31556D01*
Y766130D01*
X31604D01*
X31189Y770345D01*
X29960Y774398D01*
X27963Y778132D01*
X26885Y779446D01*
X27024Y779780D01*
Y782715D01*
X28051Y783462D01*
X28624Y783276D01*
X33521Y782500D01*
X38479D01*
X43376Y783276D01*
X48092Y784808D01*
X52510Y787059D01*
X56521Y789973D01*
X60027Y793479D01*
X62941Y797490D01*
X65192Y801908D01*
X66724Y806624D01*
X67500Y811521D01*
Y816479D01*
X66724Y821376D01*
X65192Y826092D01*
X62941Y830510D01*
X60027Y834521D01*
X57374Y837174D01*
X57900Y838444D01*
X78733Y838444D01*
X80003Y838419D01*
X80003Y838419D01*
X80926Y838235D01*
X81711Y837711D01*
X82086Y837150D01*
X82377Y836000D01*
X82377Y836000D01*
X82869Y831001D01*
X84327Y826194D01*
X86695Y821764D01*
X89882Y817881D01*
X93764Y814695D01*
X98194Y812327D01*
X103001Y810869D01*
X108000Y810377D01*
Y810444D01*
X358000D01*
Y810377D01*
X362999Y810869D01*
X367806Y812327D01*
X372236Y814695D01*
X376119Y817881D01*
X379305Y821764D01*
X381673Y826194D01*
X383131Y831001D01*
X383623Y836000D01*
X383623D01*
X383914Y837150D01*
X384289Y837711D01*
X385074Y838235D01*
X386000Y838419D01*
Y838444D01*
X403100D01*
X403626Y837174D01*
X400973Y834521D01*
X398059Y830510D01*
X395808Y826092D01*
X394276Y821376D01*
X393500Y816479D01*
Y811521D01*
X394276Y806624D01*
X395808Y801908D01*
X398059Y797490D01*
X400973Y793479D01*
X404479Y789973D01*
X408490Y787059D01*
X412908Y784808D01*
X417624Y783276D01*
X422521Y782500D01*
X427479D01*
X432376Y783276D01*
X437092Y784808D01*
X441510Y787059D01*
X445521Y789973D01*
X449027Y793479D01*
X451941Y797490D01*
X454192Y801908D01*
X455724Y806624D01*
X456500Y811521D01*
Y816479D01*
X455724Y821376D01*
X454192Y826092D01*
X451941Y830510D01*
X449027Y834521D01*
X446374Y837174D01*
X446900Y838444D01*
X464000D01*
Y838419D01*
X464926Y838235D01*
X465711Y837711D01*
X466086Y837150D01*
X466377Y836000D01*
X466377Y836000D01*
X466869Y831001D01*
X468327Y826194D01*
X470695Y821764D01*
X473882Y817881D01*
X477764Y814695D01*
X482194Y812327D01*
X487001Y810869D01*
X492000Y810377D01*
Y810444D01*
X742000D01*
Y810377D01*
X746999Y810869D01*
X751806Y812327D01*
X756236Y814695D01*
X760118Y817881D01*
X763305Y821764D01*
X765673Y826194D01*
X767131Y831001D01*
X767623Y836000D01*
X767623D01*
X767914Y837150D01*
X768289Y837711D01*
X769074Y838235D01*
X770000Y838419D01*
Y838444D01*
X792100D01*
X792626Y837174D01*
D02*
G37*
%LPC*%
G36*
X642820Y751089D02*
X642820Y751089D01*
X100330D01*
X100330Y751089D01*
X99159Y750856D01*
X98167Y750193D01*
X98167Y750193D01*
X86537Y738563D01*
X85874Y737570D01*
X85641Y736400D01*
X85641Y736400D01*
Y720740D01*
X84709Y720201D01*
X83499Y718991D01*
X82643Y717509D01*
X82200Y715856D01*
Y714144D01*
X82643Y712491D01*
X83499Y711009D01*
X84709Y709799D01*
X86191Y708943D01*
X87844Y708500D01*
X89556D01*
X91209Y708943D01*
X92691Y709799D01*
X93901Y711009D01*
X94757Y712491D01*
X95200Y714144D01*
Y715856D01*
X94757Y717509D01*
X93901Y718991D01*
X92691Y720201D01*
X91759Y720740D01*
Y735133D01*
X101597Y744971D01*
X190346D01*
X190832Y743798D01*
X179877Y732843D01*
X179214Y731851D01*
X178981Y730680D01*
X178981Y730680D01*
Y720740D01*
X178049Y720201D01*
X176839Y718991D01*
X175983Y717509D01*
X175540Y715856D01*
Y714144D01*
X175983Y712491D01*
X176839Y711009D01*
X178049Y709799D01*
X179531Y708943D01*
X181184Y708500D01*
X182896D01*
X184549Y708943D01*
X186031Y709799D01*
X187241Y711009D01*
X188097Y712491D01*
X188540Y714144D01*
Y715856D01*
X188097Y717509D01*
X187241Y718991D01*
X186031Y720201D01*
X185099Y720740D01*
Y729413D01*
X195577Y739891D01*
X280516D01*
X281002Y738718D01*
X273217Y730933D01*
X272554Y729940D01*
X272321Y728770D01*
X272321Y728770D01*
Y720740D01*
X271389Y720201D01*
X270179Y718991D01*
X269323Y717509D01*
X268880Y715856D01*
Y714144D01*
X269323Y712491D01*
X270179Y711009D01*
X271389Y709799D01*
X272871Y708943D01*
X274524Y708500D01*
X276236D01*
X277889Y708943D01*
X279371Y709799D01*
X280581Y711009D01*
X281437Y712491D01*
X281880Y714144D01*
Y715856D01*
X281437Y717509D01*
X280581Y718991D01*
X279371Y720201D01*
X278439Y720740D01*
Y727503D01*
X280548Y729613D01*
X281687Y728955D01*
X281580Y728556D01*
Y726844D01*
X282023Y725191D01*
X282879Y723709D01*
X284089Y722499D01*
X285571Y721643D01*
X287224Y721200D01*
X288936D01*
X290589Y721643D01*
X292071Y722499D01*
X293281Y723709D01*
X294137Y725191D01*
X294580Y726844D01*
Y728556D01*
X294137Y730209D01*
X293281Y731691D01*
X292071Y732901D01*
X290963Y733541D01*
X291303Y734811D01*
X378197D01*
X378537Y733541D01*
X377429Y732901D01*
X376219Y731691D01*
X375363Y730209D01*
X374920Y728556D01*
Y726844D01*
X375363Y725191D01*
X376219Y723709D01*
X377429Y722499D01*
X378911Y721643D01*
X380564Y721200D01*
X382276D01*
X383929Y721643D01*
X385411Y722499D01*
X386621Y723709D01*
X387477Y725191D01*
X387920Y726844D01*
Y728556D01*
X387477Y730209D01*
X386621Y731691D01*
X385411Y732901D01*
X384302Y733541D01*
X384643Y734811D01*
X471537D01*
X471878Y733541D01*
X470769Y732901D01*
X469559Y731691D01*
X468703Y730209D01*
X468260Y728556D01*
Y726844D01*
X468703Y725191D01*
X469559Y723709D01*
X470769Y722499D01*
X472251Y721643D01*
X473904Y721200D01*
X475616D01*
X477269Y721643D01*
X478751Y722499D01*
X479961Y723709D01*
X480817Y725191D01*
X481260Y726844D01*
Y728556D01*
X480817Y730209D01*
X479961Y731691D01*
X478751Y732901D01*
X477643Y733541D01*
X477983Y734811D01*
X564877D01*
X565218Y733541D01*
X564109Y732901D01*
X562899Y731691D01*
X562043Y730209D01*
X561600Y728556D01*
Y726844D01*
X562043Y725191D01*
X562899Y723709D01*
X564109Y722499D01*
X565591Y721643D01*
X567244Y721200D01*
X568956D01*
X570609Y721643D01*
X572091Y722499D01*
X573301Y723709D01*
X574157Y725191D01*
X574600Y726844D01*
Y728556D01*
X574157Y730209D01*
X573301Y731691D01*
X572091Y732901D01*
X570983Y733541D01*
X571323Y734811D01*
X590663D01*
X618892Y706582D01*
X619333Y705517D01*
X620317Y704533D01*
X621604Y704000D01*
X622996D01*
X624283Y704533D01*
X624572Y704822D01*
X625842Y704296D01*
Y702500D01*
X626152Y700939D01*
X626743Y700054D01*
X626169Y698784D01*
X588785D01*
X580340Y707230D01*
X580866Y708500D01*
X581656D01*
X583309Y708943D01*
X584791Y709799D01*
X586001Y711009D01*
X586857Y712491D01*
X587300Y714144D01*
Y715856D01*
X586857Y717509D01*
X586001Y718991D01*
X584791Y720201D01*
X583309Y721057D01*
X581656Y721500D01*
X579944D01*
X578291Y721057D01*
X576809Y720201D01*
X575599Y718991D01*
X574743Y717509D01*
X574300Y715856D01*
Y715066D01*
X573030Y714539D01*
X570573Y716997D01*
X569656Y717609D01*
X568576Y717824D01*
X568575Y717824D01*
X561275D01*
X560601Y718991D01*
X559391Y720201D01*
X557909Y721057D01*
X556256Y721500D01*
X554544D01*
X552891Y721057D01*
X551409Y720201D01*
X550199Y718991D01*
X549343Y717509D01*
X548900Y715856D01*
Y714144D01*
X549343Y712491D01*
X550199Y711009D01*
X551409Y709799D01*
X552891Y708943D01*
X554544Y708500D01*
X556256D01*
X557909Y708943D01*
X559391Y709799D01*
X560601Y711009D01*
X561275Y712176D01*
X567406D01*
X569654Y709928D01*
X568996Y708789D01*
X568956Y708800D01*
X567244D01*
X565591Y708357D01*
X564109Y707501D01*
X562899Y706291D01*
X562043Y704809D01*
X561600Y703156D01*
Y701444D01*
X562043Y699791D01*
X562899Y698309D01*
X564109Y697099D01*
X565591Y696243D01*
X566444Y696014D01*
X566277Y694744D01*
X476583D01*
X476416Y696014D01*
X477269Y696243D01*
X478751Y697099D01*
X479961Y698309D01*
X480817Y699791D01*
X481260Y701444D01*
Y703156D01*
X480817Y704809D01*
X479961Y706291D01*
X478751Y707501D01*
X477269Y708357D01*
X475616Y708800D01*
X473904D01*
X472251Y708357D01*
X470769Y707501D01*
X469559Y706291D01*
X468703Y704809D01*
X468260Y703156D01*
Y701444D01*
X468703Y699791D01*
X469559Y698309D01*
X470769Y697099D01*
X472251Y696243D01*
X473104Y696014D01*
X472937Y694744D01*
X470030D01*
X464884Y699890D01*
Y709125D01*
X466051Y709799D01*
X467261Y711009D01*
X468117Y712491D01*
X468560Y714144D01*
Y715856D01*
X468117Y717509D01*
X467261Y718991D01*
X466051Y720201D01*
X464569Y721057D01*
X462916Y721500D01*
X461204D01*
X459551Y721057D01*
X458069Y720201D01*
X456859Y718991D01*
X456003Y717509D01*
X455560Y715856D01*
Y714144D01*
X456003Y712491D01*
X456859Y711009D01*
X458069Y709799D01*
X459236Y709125D01*
Y698720D01*
X459236Y698720D01*
X459451Y697639D01*
X460063Y696723D01*
X465622Y691164D01*
X465095Y689894D01*
X378360D01*
X371544Y696710D01*
Y709125D01*
X372711Y709799D01*
X373921Y711009D01*
X374777Y712491D01*
X375220Y714144D01*
Y715856D01*
X374777Y717509D01*
X373921Y718991D01*
X372711Y720201D01*
X371229Y721057D01*
X369576Y721500D01*
X367864D01*
X366211Y721057D01*
X364729Y720201D01*
X363519Y718991D01*
X362663Y717509D01*
X362220Y715856D01*
Y714144D01*
X362663Y712491D01*
X363519Y711009D01*
X364729Y709799D01*
X365896Y709125D01*
Y695540D01*
X365896Y695540D01*
X366111Y694459D01*
X366723Y693543D01*
X375193Y685073D01*
X375193Y685073D01*
X376109Y684461D01*
X377190Y684246D01*
X377190Y684246D01*
X644504D01*
X644647Y684103D01*
X645934Y683570D01*
X647121D01*
X647754Y683016D01*
X648130Y682528D01*
Y681294D01*
X648663Y680007D01*
X649647Y679023D01*
X650934Y678490D01*
X652326D01*
X653613Y679023D01*
X654597Y680007D01*
X655130Y681294D01*
Y682528D01*
X655506Y683016D01*
X656139Y683570D01*
X657121D01*
X657754Y683016D01*
X658130Y682528D01*
Y681294D01*
X658663Y680007D01*
X659647Y679023D01*
X660934Y678490D01*
X662326D01*
X663613Y679023D01*
X664597Y680007D01*
X665130Y681294D01*
Y682528D01*
X665506Y683016D01*
X666139Y683570D01*
X667326D01*
X668613Y684103D01*
X669597Y685087D01*
X670130Y686374D01*
Y687766D01*
X669597Y689053D01*
X668613Y690037D01*
X667326Y690570D01*
X667124D01*
X660543Y697152D01*
X661069Y698422D01*
X685990D01*
X685990Y698421D01*
X687551Y698732D01*
X688874Y699616D01*
X691179Y701922D01*
X697807D01*
X698333Y700652D01*
X698072Y700390D01*
X697539Y699104D01*
Y697711D01*
X698072Y696425D01*
X699056Y695440D01*
X700343Y694907D01*
X701735D01*
X703021Y695440D01*
X704006Y696425D01*
X704539Y697711D01*
Y699104D01*
X704006Y700390D01*
X703744Y700652D01*
X704270Y701922D01*
X721092D01*
Y668432D01*
X719822Y667584D01*
X719517Y667710D01*
X718125D01*
X716838Y667177D01*
X715854Y666193D01*
X715321Y664906D01*
Y663514D01*
X715854Y662227D01*
X716838Y661243D01*
X717791Y660848D01*
X717538Y659578D01*
X629920D01*
X628359Y659268D01*
X627036Y658384D01*
X626152Y657061D01*
X625842Y655500D01*
Y653704D01*
X624572Y653178D01*
X624283Y653467D01*
X623217Y653908D01*
X605328Y671798D01*
X605814Y672971D01*
X641553D01*
X643222Y671303D01*
X643663Y670237D01*
X644647Y669253D01*
X645934Y668720D01*
X647326D01*
X648613Y669253D01*
X649597Y670237D01*
X650130Y671524D01*
Y672916D01*
X649597Y674203D01*
X648613Y675187D01*
X647547Y675628D01*
X644983Y678193D01*
X643990Y678856D01*
X642820Y679089D01*
X642820Y679089D01*
X100330D01*
X100330Y679089D01*
X99159Y678856D01*
X98167Y678193D01*
X98167Y678193D01*
X86537Y666563D01*
X85874Y665571D01*
X85641Y664400D01*
X85641Y664400D01*
Y648739D01*
X84709Y648201D01*
X83499Y646991D01*
X82643Y645509D01*
X82200Y643856D01*
Y642144D01*
X82643Y640491D01*
X83499Y639009D01*
X84709Y637799D01*
X86191Y636943D01*
X87844Y636500D01*
X89556D01*
X91209Y636943D01*
X92691Y637799D01*
X93901Y639009D01*
X94757Y640491D01*
X95200Y642144D01*
Y643856D01*
X94757Y645509D01*
X93901Y646991D01*
X92691Y648201D01*
X91759Y648739D01*
Y663133D01*
X101597Y672971D01*
X190346D01*
X190832Y671798D01*
X179877Y660843D01*
X179214Y659850D01*
X178981Y658680D01*
X178981Y658680D01*
Y648739D01*
X178049Y648201D01*
X176839Y646991D01*
X175983Y645509D01*
X175540Y643856D01*
Y642144D01*
X175983Y640491D01*
X176839Y639009D01*
X178049Y637799D01*
X179531Y636943D01*
X181184Y636500D01*
X182896D01*
X184549Y636943D01*
X186031Y637799D01*
X187241Y639009D01*
X188097Y640491D01*
X188540Y642144D01*
Y643856D01*
X188097Y645509D01*
X187241Y646991D01*
X186031Y648201D01*
X185099Y648739D01*
Y657413D01*
X195577Y667891D01*
X280516D01*
X281002Y666718D01*
X273217Y658933D01*
X272554Y657941D01*
X272321Y656770D01*
X272321Y656770D01*
Y648739D01*
X271389Y648201D01*
X270179Y646991D01*
X269323Y645509D01*
X268880Y643856D01*
Y642144D01*
X269323Y640491D01*
X270179Y639009D01*
X271389Y637799D01*
X272871Y636943D01*
X274524Y636500D01*
X276236D01*
X277889Y636943D01*
X279371Y637799D01*
X280581Y639009D01*
X281437Y640491D01*
X281880Y642144D01*
Y643856D01*
X281437Y645509D01*
X280581Y646991D01*
X279371Y648201D01*
X278439Y648739D01*
Y655503D01*
X280548Y657613D01*
X281687Y656955D01*
X281580Y656556D01*
Y654844D01*
X282023Y653191D01*
X282879Y651709D01*
X284089Y650499D01*
X285571Y649643D01*
X287224Y649200D01*
X288936D01*
X290589Y649643D01*
X292071Y650499D01*
X293281Y651709D01*
X294137Y653191D01*
X294580Y654844D01*
Y656556D01*
X294137Y658209D01*
X293281Y659691D01*
X292071Y660901D01*
X290963Y661541D01*
X291303Y662811D01*
X378197D01*
X378537Y661541D01*
X377429Y660901D01*
X376219Y659691D01*
X375363Y658209D01*
X374920Y656556D01*
Y654844D01*
X375363Y653191D01*
X376219Y651709D01*
X377429Y650499D01*
X378911Y649643D01*
X380564Y649200D01*
X382276D01*
X383929Y649643D01*
X385411Y650499D01*
X386621Y651709D01*
X387477Y653191D01*
X387920Y654844D01*
Y656556D01*
X387477Y658209D01*
X386621Y659691D01*
X385411Y660901D01*
X384302Y661541D01*
X384643Y662811D01*
X471537D01*
X471878Y661541D01*
X470769Y660901D01*
X469559Y659691D01*
X468703Y658209D01*
X468260Y656556D01*
Y654844D01*
X468703Y653191D01*
X469559Y651709D01*
X470769Y650499D01*
X472251Y649643D01*
X473904Y649200D01*
X475616D01*
X477269Y649643D01*
X478751Y650499D01*
X479961Y651709D01*
X480817Y653191D01*
X481260Y654844D01*
Y656556D01*
X480817Y658209D01*
X479961Y659691D01*
X478751Y660901D01*
X477643Y661541D01*
X477983Y662811D01*
X564877D01*
X565218Y661541D01*
X564109Y660901D01*
X562899Y659691D01*
X562043Y658209D01*
X561600Y656556D01*
Y654844D01*
X562043Y653191D01*
X562899Y651709D01*
X564109Y650499D01*
X565591Y649643D01*
X567244Y649200D01*
X568956D01*
X570609Y649643D01*
X572091Y650499D01*
X573301Y651709D01*
X574157Y653191D01*
X574600Y654844D01*
Y656556D01*
X574157Y658209D01*
X573301Y659691D01*
X572091Y660901D01*
X570983Y661541D01*
X571323Y662811D01*
X590663D01*
X618892Y634582D01*
X619333Y633517D01*
X620317Y632533D01*
X621604Y632000D01*
X622996D01*
X624283Y632533D01*
X624572Y632822D01*
X625842Y632296D01*
Y630500D01*
X626152Y628939D01*
X626743Y628054D01*
X626169Y626784D01*
X588261D01*
X579754Y635291D01*
X579773Y635414D01*
X580341Y636500D01*
X581656D01*
X583309Y636943D01*
X584791Y637799D01*
X586001Y639009D01*
X586857Y640491D01*
X587300Y642144D01*
Y643856D01*
X586857Y645509D01*
X586001Y646991D01*
X584791Y648201D01*
X583309Y649057D01*
X581656Y649500D01*
X579944D01*
X578291Y649057D01*
X576809Y648201D01*
X575599Y646991D01*
X574743Y645509D01*
X574300Y643856D01*
Y642542D01*
X573214Y641973D01*
X573092Y641954D01*
X570048Y644997D01*
X569132Y645609D01*
X568051Y645824D01*
X568051Y645824D01*
X561275D01*
X560601Y646991D01*
X559391Y648201D01*
X557909Y649057D01*
X556256Y649500D01*
X554544D01*
X552891Y649057D01*
X551409Y648201D01*
X550199Y646991D01*
X549343Y645509D01*
X548900Y643856D01*
Y642144D01*
X549343Y640491D01*
X550199Y639009D01*
X551409Y637799D01*
X552891Y636943D01*
X554544Y636500D01*
X556256D01*
X557909Y636943D01*
X559391Y637799D01*
X560601Y639009D01*
X561275Y640176D01*
X566881D01*
X569010Y638048D01*
X568461Y636800D01*
X567244D01*
X565591Y636357D01*
X564109Y635501D01*
X562899Y634291D01*
X562043Y632809D01*
X561600Y631156D01*
Y629444D01*
X562043Y627791D01*
X562899Y626309D01*
X564109Y625099D01*
X565591Y624243D01*
X566444Y624014D01*
X566277Y622744D01*
X476583D01*
X476416Y624014D01*
X477269Y624243D01*
X478751Y625099D01*
X479961Y626309D01*
X480817Y627791D01*
X481260Y629444D01*
Y631156D01*
X480817Y632809D01*
X479961Y634291D01*
X478751Y635501D01*
X477269Y636357D01*
X475616Y636800D01*
X473904D01*
X472251Y636357D01*
X470769Y635501D01*
X469559Y634291D01*
X468703Y632809D01*
X468260Y631156D01*
Y629444D01*
X468703Y627791D01*
X469559Y626309D01*
X470769Y625099D01*
X472251Y624243D01*
X473104Y624014D01*
X472937Y622744D01*
X470030D01*
X464884Y627890D01*
Y637125D01*
X466051Y637799D01*
X467261Y639009D01*
X468117Y640491D01*
X468560Y642144D01*
Y643856D01*
X468117Y645509D01*
X467261Y646991D01*
X466051Y648201D01*
X464569Y649057D01*
X462916Y649500D01*
X461204D01*
X459551Y649057D01*
X458069Y648201D01*
X456859Y646991D01*
X456003Y645509D01*
X455560Y643856D01*
Y642144D01*
X456003Y640491D01*
X456859Y639009D01*
X458069Y637799D01*
X459236Y637125D01*
Y626720D01*
X459236Y626720D01*
X459451Y625639D01*
X460063Y624723D01*
X465622Y619164D01*
X465095Y617894D01*
X378360D01*
X371544Y624710D01*
Y637125D01*
X372711Y637799D01*
X373921Y639009D01*
X374777Y640491D01*
X375220Y642144D01*
Y643856D01*
X374777Y645509D01*
X373921Y646991D01*
X372711Y648201D01*
X371229Y649057D01*
X369576Y649500D01*
X367864D01*
X366211Y649057D01*
X364729Y648201D01*
X363519Y646991D01*
X362663Y645509D01*
X362220Y643856D01*
Y642144D01*
X362663Y640491D01*
X363519Y639009D01*
X364729Y637799D01*
X365896Y637125D01*
Y623540D01*
X365896Y623540D01*
X366111Y622459D01*
X366723Y621543D01*
X375193Y613073D01*
X375193Y613073D01*
X376109Y612461D01*
X377190Y612246D01*
X377190Y612246D01*
X644504D01*
X644647Y612103D01*
X645934Y611570D01*
X647121D01*
X647754Y611016D01*
X648130Y610528D01*
Y609294D01*
X648663Y608007D01*
X649647Y607023D01*
X650934Y606490D01*
X652326D01*
X653613Y607023D01*
X654597Y608007D01*
X655130Y609294D01*
Y610528D01*
X655506Y611016D01*
X656139Y611570D01*
X657121D01*
X657754Y611016D01*
X658130Y610528D01*
Y609294D01*
X658663Y608007D01*
X659647Y607023D01*
X660934Y606490D01*
X662326D01*
X663613Y607023D01*
X664597Y608007D01*
X665130Y609294D01*
Y610528D01*
X665506Y611016D01*
X666139Y611570D01*
X667326D01*
X668613Y612103D01*
X669597Y613087D01*
X670130Y614374D01*
Y615766D01*
X669597Y617053D01*
X668613Y618037D01*
X667326Y618570D01*
X667124D01*
X659737Y625957D01*
X659737Y625957D01*
X658821Y626569D01*
X657740Y626784D01*
X657740Y626784D01*
X633671D01*
X633097Y628054D01*
X633688Y628939D01*
X633998Y630500D01*
Y643000D01*
Y651422D01*
X721092D01*
Y634000D01*
Y587578D01*
X712154D01*
X711902Y588848D01*
X711913Y588853D01*
X712897Y589837D01*
X713430Y591124D01*
Y592516D01*
X712897Y593803D01*
X711913Y594787D01*
X710626Y595320D01*
X709234D01*
X707947Y594787D01*
X706963Y593803D01*
X706430Y592516D01*
Y591124D01*
X706963Y589837D01*
X707947Y588853D01*
X707958Y588848D01*
X707706Y587578D01*
X629920D01*
X628359Y587268D01*
X627036Y586384D01*
X626152Y585061D01*
X625842Y583500D01*
Y581704D01*
X624572Y581178D01*
X624283Y581467D01*
X623217Y581908D01*
X605328Y599798D01*
X605814Y600971D01*
X641553D01*
X643222Y599303D01*
X643663Y598237D01*
X644647Y597253D01*
X645934Y596720D01*
X647326D01*
X648613Y597253D01*
X649597Y598237D01*
X650130Y599524D01*
Y600916D01*
X649597Y602203D01*
X648613Y603187D01*
X647547Y603628D01*
X644983Y606193D01*
X643990Y606856D01*
X642820Y607089D01*
X642820Y607089D01*
X100330D01*
X100330Y607089D01*
X99159Y606856D01*
X98167Y606193D01*
X98167Y606193D01*
X86537Y594563D01*
X85874Y593571D01*
X85641Y592400D01*
X85641Y592400D01*
Y576740D01*
X84709Y576201D01*
X83499Y574991D01*
X82643Y573509D01*
X82200Y571856D01*
Y570144D01*
X82643Y568491D01*
X83499Y567009D01*
X84709Y565799D01*
X86191Y564943D01*
X87844Y564500D01*
X89556D01*
X91209Y564943D01*
X92691Y565799D01*
X93901Y567009D01*
X94757Y568491D01*
X95200Y570144D01*
Y571856D01*
X94757Y573509D01*
X93901Y574991D01*
X92691Y576201D01*
X91759Y576740D01*
Y591133D01*
X101597Y600971D01*
X190346D01*
X190832Y599798D01*
X179877Y588843D01*
X179214Y587851D01*
X178981Y586680D01*
X178981Y586680D01*
Y576740D01*
X178049Y576201D01*
X176839Y574991D01*
X175983Y573509D01*
X175540Y571856D01*
Y570144D01*
X175983Y568491D01*
X176839Y567009D01*
X178049Y565799D01*
X179531Y564943D01*
X181184Y564500D01*
X182896D01*
X184549Y564943D01*
X186031Y565799D01*
X187241Y567009D01*
X188097Y568491D01*
X188540Y570144D01*
Y571856D01*
X188097Y573509D01*
X187241Y574991D01*
X186031Y576201D01*
X185099Y576740D01*
Y585413D01*
X195577Y595891D01*
X280516D01*
X281002Y594718D01*
X273217Y586933D01*
X272554Y585941D01*
X272321Y584770D01*
X272321Y584770D01*
Y576740D01*
X271389Y576201D01*
X270179Y574991D01*
X269323Y573509D01*
X268880Y571856D01*
Y570144D01*
X269323Y568491D01*
X270179Y567009D01*
X271389Y565799D01*
X272871Y564943D01*
X274524Y564500D01*
X276236D01*
X277889Y564943D01*
X279371Y565799D01*
X280581Y567009D01*
X281437Y568491D01*
X281880Y570144D01*
Y571856D01*
X281437Y573509D01*
X280581Y574991D01*
X279371Y576201D01*
X278439Y576740D01*
Y583503D01*
X280548Y585613D01*
X281687Y584955D01*
X281580Y584556D01*
Y582844D01*
X282023Y581191D01*
X282879Y579709D01*
X284089Y578499D01*
X285571Y577643D01*
X287224Y577200D01*
X288936D01*
X290589Y577643D01*
X292071Y578499D01*
X293281Y579709D01*
X294137Y581191D01*
X294580Y582844D01*
Y584556D01*
X294137Y586209D01*
X293281Y587691D01*
X292071Y588901D01*
X290963Y589541D01*
X291303Y590811D01*
X378197D01*
X378537Y589541D01*
X377429Y588901D01*
X376219Y587691D01*
X375363Y586209D01*
X374920Y584556D01*
Y582844D01*
X375363Y581191D01*
X376219Y579709D01*
X377429Y578499D01*
X378911Y577643D01*
X380564Y577200D01*
X382276D01*
X383929Y577643D01*
X385411Y578499D01*
X386621Y579709D01*
X387477Y581191D01*
X387920Y582844D01*
Y584556D01*
X387477Y586209D01*
X386621Y587691D01*
X385411Y588901D01*
X384302Y589541D01*
X384643Y590811D01*
X471537D01*
X471878Y589541D01*
X470769Y588901D01*
X469559Y587691D01*
X468703Y586209D01*
X468260Y584556D01*
Y582844D01*
X468703Y581191D01*
X469559Y579709D01*
X470769Y578499D01*
X472251Y577643D01*
X473904Y577200D01*
X475616D01*
X477269Y577643D01*
X478751Y578499D01*
X479961Y579709D01*
X480817Y581191D01*
X481260Y582844D01*
Y584556D01*
X480817Y586209D01*
X479961Y587691D01*
X478751Y588901D01*
X477643Y589541D01*
X477983Y590811D01*
X564877D01*
X565218Y589541D01*
X564109Y588901D01*
X562899Y587691D01*
X562043Y586209D01*
X561600Y584556D01*
Y582844D01*
X562043Y581191D01*
X562899Y579709D01*
X564109Y578499D01*
X565591Y577643D01*
X567244Y577200D01*
X568956D01*
X570609Y577643D01*
X572091Y578499D01*
X573301Y579709D01*
X574157Y581191D01*
X574600Y582844D01*
Y584556D01*
X574157Y586209D01*
X573301Y587691D01*
X572091Y588901D01*
X570983Y589541D01*
X571323Y590811D01*
X590663D01*
X618892Y562583D01*
X619333Y561517D01*
X620317Y560533D01*
X621604Y560000D01*
X622996D01*
X624283Y560533D01*
X624572Y560822D01*
X625842Y560296D01*
Y558500D01*
X626152Y556939D01*
X626743Y556054D01*
X626169Y554784D01*
X588400D01*
X579954Y563230D01*
X580480Y564500D01*
X581656D01*
X583309Y564943D01*
X584791Y565799D01*
X586001Y567009D01*
X586857Y568491D01*
X587300Y570144D01*
Y571856D01*
X586857Y573509D01*
X586001Y574991D01*
X584791Y576201D01*
X583309Y577057D01*
X581656Y577500D01*
X579944D01*
X578291Y577057D01*
X576809Y576201D01*
X575599Y574991D01*
X574743Y573509D01*
X574300Y571856D01*
Y570680D01*
X573030Y570154D01*
X570187Y572997D01*
X569271Y573609D01*
X568190Y573824D01*
X568190Y573824D01*
X561275D01*
X560601Y574991D01*
X559391Y576201D01*
X557909Y577057D01*
X556256Y577500D01*
X554544D01*
X552891Y577057D01*
X551409Y576201D01*
X550199Y574991D01*
X549343Y573509D01*
X548900Y571856D01*
Y570144D01*
X549343Y568491D01*
X550199Y567009D01*
X551409Y565799D01*
X552891Y564943D01*
X554544Y564500D01*
X556256D01*
X557909Y564943D01*
X559391Y565799D01*
X560601Y567009D01*
X561275Y568176D01*
X567020D01*
X569183Y566013D01*
X569133Y565748D01*
X568600Y564800D01*
X567244D01*
X565591Y564357D01*
X564109Y563501D01*
X562899Y562291D01*
X562043Y560809D01*
X561600Y559156D01*
Y557444D01*
X562043Y555791D01*
X562899Y554309D01*
X564109Y553099D01*
X565591Y552243D01*
X566444Y552014D01*
X566277Y550744D01*
X476583D01*
X476416Y552014D01*
X477269Y552243D01*
X478751Y553099D01*
X479961Y554309D01*
X480817Y555791D01*
X481260Y557444D01*
Y559156D01*
X480817Y560809D01*
X479961Y562291D01*
X478751Y563501D01*
X477269Y564357D01*
X475616Y564800D01*
X473904D01*
X472251Y564357D01*
X470769Y563501D01*
X469559Y562291D01*
X468703Y560809D01*
X468260Y559156D01*
Y557444D01*
X468703Y555791D01*
X469559Y554309D01*
X470769Y553099D01*
X472251Y552243D01*
X473104Y552014D01*
X472937Y550744D01*
X470030D01*
X464884Y555890D01*
Y565125D01*
X466051Y565799D01*
X467261Y567009D01*
X468117Y568491D01*
X468560Y570144D01*
Y571856D01*
X468117Y573509D01*
X467261Y574991D01*
X466051Y576201D01*
X464569Y577057D01*
X462916Y577500D01*
X461204D01*
X459551Y577057D01*
X458069Y576201D01*
X456859Y574991D01*
X456003Y573509D01*
X455560Y571856D01*
Y570144D01*
X456003Y568491D01*
X456859Y567009D01*
X458069Y565799D01*
X459236Y565125D01*
Y554720D01*
X459236Y554720D01*
X459451Y553639D01*
X460063Y552723D01*
X465622Y547164D01*
X465095Y545894D01*
X378360D01*
X371544Y552710D01*
Y565125D01*
X372711Y565799D01*
X373921Y567009D01*
X374777Y568491D01*
X375220Y570144D01*
Y571856D01*
X374777Y573509D01*
X373921Y574991D01*
X372711Y576201D01*
X371229Y577057D01*
X369576Y577500D01*
X367864D01*
X366211Y577057D01*
X364729Y576201D01*
X363519Y574991D01*
X362663Y573509D01*
X362220Y571856D01*
Y570144D01*
X362663Y568491D01*
X363519Y567009D01*
X364729Y565799D01*
X365896Y565125D01*
Y551540D01*
X365896Y551540D01*
X366111Y550459D01*
X366723Y549543D01*
X375193Y541073D01*
X375193Y541073D01*
X376109Y540461D01*
X377190Y540246D01*
X377190Y540246D01*
X644504D01*
X644647Y540103D01*
X645934Y539570D01*
X647121D01*
X647754Y539016D01*
X648130Y538528D01*
Y537294D01*
X648663Y536007D01*
X649647Y535023D01*
X650934Y534490D01*
X652326D01*
X653613Y535023D01*
X654597Y536007D01*
X655130Y537294D01*
Y538528D01*
X655506Y539016D01*
X656139Y539570D01*
X657121D01*
X657754Y539016D01*
X658130Y538528D01*
Y537294D01*
X658663Y536007D01*
X659647Y535023D01*
X660934Y534490D01*
X662326D01*
X663613Y535023D01*
X664597Y536007D01*
X665130Y537294D01*
Y538528D01*
X665506Y539016D01*
X666139Y539570D01*
X667326D01*
X668613Y540103D01*
X669597Y541087D01*
X670130Y542374D01*
Y543766D01*
X669597Y545053D01*
X668613Y546037D01*
X667326Y546570D01*
X667124D01*
X659737Y553957D01*
X659737Y553957D01*
X658821Y554569D01*
X657740Y554784D01*
X657740Y554784D01*
X633671D01*
X633097Y556054D01*
X633688Y556939D01*
X633998Y558500D01*
Y571000D01*
Y579422D01*
X721092D01*
Y562000D01*
Y540162D01*
X719822Y539314D01*
X719517Y539440D01*
X718125D01*
X716838Y538907D01*
X715854Y537923D01*
X715321Y536636D01*
Y535244D01*
X715854Y533957D01*
X716838Y532973D01*
X718125Y532440D01*
X719517D01*
X719822Y532566D01*
X721092Y531718D01*
Y515578D01*
X629920D01*
X628359Y515268D01*
X627036Y514384D01*
X626152Y513061D01*
X625842Y511500D01*
Y509704D01*
X624572Y509178D01*
X624283Y509467D01*
X623217Y509908D01*
X605328Y527798D01*
X605814Y528971D01*
X641553D01*
X643222Y527303D01*
X643663Y526237D01*
X644647Y525253D01*
X645934Y524720D01*
X647326D01*
X648613Y525253D01*
X649597Y526237D01*
X650130Y527524D01*
Y528916D01*
X649597Y530203D01*
X648613Y531187D01*
X647547Y531628D01*
X644983Y534193D01*
X643990Y534856D01*
X642820Y535089D01*
X642820Y535089D01*
X100330D01*
X100330Y535089D01*
X99159Y534856D01*
X98167Y534193D01*
X98167Y534193D01*
X86537Y522563D01*
X85874Y521571D01*
X85641Y520400D01*
X85641Y520400D01*
Y504739D01*
X84709Y504201D01*
X83499Y502991D01*
X82643Y501509D01*
X82200Y499856D01*
Y498144D01*
X82643Y496491D01*
X83499Y495009D01*
X84709Y493799D01*
X86191Y492943D01*
X87844Y492500D01*
X89556D01*
X91209Y492943D01*
X92691Y493799D01*
X93901Y495009D01*
X94757Y496491D01*
X95200Y498144D01*
Y499856D01*
X94757Y501509D01*
X93901Y502991D01*
X92691Y504201D01*
X91759Y504739D01*
Y519133D01*
X101597Y528971D01*
X190346D01*
X190832Y527798D01*
X179877Y516843D01*
X179214Y515851D01*
X178981Y514680D01*
X178981Y514680D01*
Y504739D01*
X178049Y504201D01*
X176839Y502991D01*
X175983Y501509D01*
X175540Y499856D01*
Y498144D01*
X175983Y496491D01*
X176839Y495009D01*
X178049Y493799D01*
X179531Y492943D01*
X181184Y492500D01*
X182896D01*
X184549Y492943D01*
X186031Y493799D01*
X187241Y495009D01*
X188097Y496491D01*
X188540Y498144D01*
Y499856D01*
X188097Y501509D01*
X187241Y502991D01*
X186031Y504201D01*
X185099Y504739D01*
Y513413D01*
X195577Y523891D01*
X280516D01*
X281002Y522718D01*
X273217Y514933D01*
X272554Y513941D01*
X272321Y512770D01*
X272321Y512770D01*
Y504739D01*
X271389Y504201D01*
X270179Y502991D01*
X269323Y501509D01*
X268880Y499856D01*
Y498144D01*
X269323Y496491D01*
X270179Y495009D01*
X271389Y493799D01*
X272871Y492943D01*
X274524Y492500D01*
X276236D01*
X277889Y492943D01*
X279371Y493799D01*
X280581Y495009D01*
X281437Y496491D01*
X281880Y498144D01*
Y499856D01*
X281437Y501509D01*
X280581Y502991D01*
X279371Y504201D01*
X278439Y504739D01*
Y511503D01*
X280548Y513613D01*
X281687Y512955D01*
X281580Y512556D01*
Y510844D01*
X282023Y509191D01*
X282879Y507709D01*
X284089Y506499D01*
X285571Y505643D01*
X287224Y505200D01*
X288936D01*
X290589Y505643D01*
X292071Y506499D01*
X293281Y507709D01*
X294137Y509191D01*
X294580Y510844D01*
Y512556D01*
X294137Y514209D01*
X293281Y515691D01*
X292071Y516901D01*
X290963Y517541D01*
X291303Y518811D01*
X378197D01*
X378537Y517541D01*
X377429Y516901D01*
X376219Y515691D01*
X375363Y514209D01*
X374920Y512556D01*
Y510844D01*
X375363Y509191D01*
X376219Y507709D01*
X377429Y506499D01*
X378911Y505643D01*
X380564Y505200D01*
X382276D01*
X383929Y505643D01*
X385411Y506499D01*
X386621Y507709D01*
X387477Y509191D01*
X387920Y510844D01*
Y512556D01*
X387477Y514209D01*
X386621Y515691D01*
X385411Y516901D01*
X384302Y517541D01*
X384643Y518811D01*
X471537D01*
X471878Y517541D01*
X470769Y516901D01*
X469559Y515691D01*
X468703Y514209D01*
X468260Y512556D01*
Y510844D01*
X468703Y509191D01*
X469559Y507709D01*
X470769Y506499D01*
X472251Y505643D01*
X473904Y505200D01*
X475616D01*
X477269Y505643D01*
X478751Y506499D01*
X479961Y507709D01*
X480817Y509191D01*
X481260Y510844D01*
Y512556D01*
X480817Y514209D01*
X479961Y515691D01*
X478751Y516901D01*
X477643Y517541D01*
X477983Y518811D01*
X564877D01*
X565218Y517541D01*
X564109Y516901D01*
X562899Y515691D01*
X562043Y514209D01*
X561600Y512556D01*
Y510844D01*
X562043Y509191D01*
X562899Y507709D01*
X564109Y506499D01*
X565591Y505643D01*
X567244Y505200D01*
X568956D01*
X570609Y505643D01*
X572091Y506499D01*
X573301Y507709D01*
X574157Y509191D01*
X574600Y510844D01*
Y512556D01*
X574157Y514209D01*
X573301Y515691D01*
X572091Y516901D01*
X570983Y517541D01*
X571323Y518811D01*
X590663D01*
X618892Y490583D01*
X619333Y489517D01*
X620317Y488533D01*
X621604Y488000D01*
X622996D01*
X624283Y488533D01*
X624572Y488822D01*
X625842Y488296D01*
Y486500D01*
X626152Y484939D01*
X626743Y484054D01*
X626169Y482784D01*
X588367D01*
X579905Y491246D01*
X580448Y492500D01*
X581656D01*
X583309Y492943D01*
X584791Y493799D01*
X586001Y495009D01*
X586857Y496491D01*
X587300Y498144D01*
Y499856D01*
X586857Y501509D01*
X586001Y502991D01*
X584791Y504201D01*
X583309Y505057D01*
X581656Y505500D01*
X579944D01*
X578291Y505057D01*
X576809Y504201D01*
X575599Y502991D01*
X574743Y501509D01*
X574300Y499856D01*
Y498647D01*
X573046Y498105D01*
X570154Y500997D01*
X569238Y501609D01*
X568157Y501824D01*
X568157Y501824D01*
X561275D01*
X560601Y502991D01*
X559391Y504201D01*
X557909Y505057D01*
X556256Y505500D01*
X554544D01*
X552891Y505057D01*
X551409Y504201D01*
X550199Y502991D01*
X549343Y501509D01*
X548900Y499856D01*
Y498144D01*
X549343Y496491D01*
X550199Y495009D01*
X551409Y493799D01*
X552891Y492943D01*
X554544Y492500D01*
X556256D01*
X557909Y492943D01*
X559391Y493799D01*
X560601Y495009D01*
X561275Y496176D01*
X566987D01*
X569154Y494010D01*
X569129Y493857D01*
X568567Y492800D01*
X567244D01*
X565591Y492357D01*
X564109Y491501D01*
X562899Y490291D01*
X562043Y488809D01*
X561600Y487156D01*
Y485444D01*
X562043Y483791D01*
X562899Y482309D01*
X564109Y481099D01*
X565591Y480243D01*
X566444Y480014D01*
X566277Y478744D01*
X476583D01*
X476416Y480014D01*
X477269Y480243D01*
X478751Y481099D01*
X479961Y482309D01*
X480817Y483791D01*
X481260Y485444D01*
Y487156D01*
X480817Y488809D01*
X479961Y490291D01*
X478751Y491501D01*
X477269Y492357D01*
X475616Y492800D01*
X473904D01*
X472251Y492357D01*
X470769Y491501D01*
X469559Y490291D01*
X468703Y488809D01*
X468260Y487156D01*
Y485444D01*
X468703Y483791D01*
X469559Y482309D01*
X470769Y481099D01*
X472251Y480243D01*
X473104Y480014D01*
X472937Y478744D01*
X470030D01*
X464884Y483890D01*
Y493125D01*
X466051Y493799D01*
X467261Y495009D01*
X468117Y496491D01*
X468560Y498144D01*
Y499856D01*
X468117Y501509D01*
X467261Y502991D01*
X466051Y504201D01*
X464569Y505057D01*
X462916Y505500D01*
X461204D01*
X459551Y505057D01*
X458069Y504201D01*
X456859Y502991D01*
X456003Y501509D01*
X455560Y499856D01*
Y498144D01*
X456003Y496491D01*
X456859Y495009D01*
X458069Y493799D01*
X459236Y493125D01*
Y482720D01*
X459236Y482720D01*
X459451Y481639D01*
X460063Y480723D01*
X465622Y475164D01*
X465095Y473894D01*
X378360D01*
X371544Y480710D01*
Y493125D01*
X372711Y493799D01*
X373921Y495009D01*
X374777Y496491D01*
X375220Y498144D01*
Y499856D01*
X374777Y501509D01*
X373921Y502991D01*
X372711Y504201D01*
X371229Y505057D01*
X369576Y505500D01*
X367864D01*
X366211Y505057D01*
X364729Y504201D01*
X363519Y502991D01*
X362663Y501509D01*
X362220Y499856D01*
Y498144D01*
X362663Y496491D01*
X363519Y495009D01*
X364729Y493799D01*
X365896Y493125D01*
Y479540D01*
X365896Y479540D01*
X366111Y478459D01*
X366723Y477543D01*
X375193Y469073D01*
X375193Y469073D01*
X376109Y468461D01*
X377190Y468246D01*
X377190Y468246D01*
X644504D01*
X644647Y468103D01*
X645934Y467570D01*
X647121D01*
X647754Y467016D01*
X648130Y466528D01*
Y465294D01*
X648663Y464007D01*
X649647Y463023D01*
X650934Y462490D01*
X652326D01*
X653613Y463023D01*
X654597Y464007D01*
X655130Y465294D01*
Y466528D01*
X655506Y467016D01*
X656139Y467570D01*
X657121D01*
X657754Y467016D01*
X658130Y466528D01*
Y465294D01*
X658663Y464007D01*
X659647Y463023D01*
X660934Y462490D01*
X662326D01*
X663613Y463023D01*
X664597Y464007D01*
X665130Y465294D01*
Y466528D01*
X665506Y467016D01*
X666139Y467570D01*
X667326D01*
X668613Y468103D01*
X669597Y469087D01*
X670130Y470374D01*
Y471766D01*
X669597Y473053D01*
X668613Y474037D01*
X667326Y474570D01*
X667124D01*
X659737Y481957D01*
X659737Y481957D01*
X658821Y482569D01*
X657740Y482784D01*
X657740Y482784D01*
X633671D01*
X633097Y484054D01*
X633688Y484939D01*
X633998Y486500D01*
Y499000D01*
Y507422D01*
X721092D01*
Y490000D01*
Y451262D01*
X719822Y450414D01*
X719516Y450540D01*
X718124D01*
X716837Y450007D01*
X715853Y449023D01*
X715320Y447736D01*
Y446344D01*
X715853Y445057D01*
X716062Y444848D01*
X715536Y443578D01*
X629920D01*
X628359Y443268D01*
X627036Y442384D01*
X626152Y441061D01*
X625842Y439500D01*
Y437704D01*
X624572Y437178D01*
X624283Y437467D01*
X623217Y437908D01*
X605328Y455798D01*
X605814Y456971D01*
X641553D01*
X643222Y455303D01*
X643663Y454238D01*
X644647Y453253D01*
X645934Y452720D01*
X647326D01*
X648613Y453253D01*
X649597Y454238D01*
X650130Y455524D01*
Y456916D01*
X649597Y458203D01*
X648613Y459187D01*
X647547Y459628D01*
X644983Y462193D01*
X643990Y462856D01*
X642820Y463089D01*
X642820Y463089D01*
X100330D01*
X100330Y463089D01*
X99159Y462856D01*
X98167Y462193D01*
X98167Y462193D01*
X86537Y450563D01*
X85874Y449571D01*
X85641Y448400D01*
X85641Y448400D01*
Y432739D01*
X84709Y432201D01*
X83499Y430991D01*
X82643Y429509D01*
X82200Y427856D01*
Y426144D01*
X82643Y424491D01*
X83499Y423009D01*
X84709Y421799D01*
X86191Y420943D01*
X87844Y420500D01*
X89556D01*
X91209Y420943D01*
X92691Y421799D01*
X93901Y423009D01*
X94757Y424491D01*
X95200Y426144D01*
Y427856D01*
X94757Y429509D01*
X93901Y430991D01*
X92691Y432201D01*
X91759Y432739D01*
Y447133D01*
X101597Y456971D01*
X190346D01*
X190832Y455798D01*
X179877Y444843D01*
X179214Y443851D01*
X178981Y442680D01*
X178981Y442680D01*
Y432739D01*
X178049Y432201D01*
X176839Y430991D01*
X175983Y429509D01*
X175540Y427856D01*
Y426144D01*
X175983Y424491D01*
X176839Y423009D01*
X178049Y421799D01*
X179531Y420943D01*
X181184Y420500D01*
X182896D01*
X184549Y420943D01*
X186031Y421799D01*
X187241Y423009D01*
X188097Y424491D01*
X188540Y426144D01*
Y427856D01*
X188097Y429509D01*
X187241Y430991D01*
X186031Y432201D01*
X185099Y432739D01*
Y441413D01*
X195577Y451891D01*
X280516D01*
X281002Y450718D01*
X273217Y442933D01*
X272554Y441941D01*
X272321Y440770D01*
X272321Y440770D01*
Y432739D01*
X271389Y432201D01*
X270179Y430991D01*
X269323Y429509D01*
X268880Y427856D01*
Y426144D01*
X269323Y424491D01*
X270179Y423009D01*
X271389Y421799D01*
X272871Y420943D01*
X274524Y420500D01*
X276236D01*
X277889Y420943D01*
X279371Y421799D01*
X280581Y423009D01*
X281437Y424491D01*
X281880Y426144D01*
Y427856D01*
X281437Y429509D01*
X280581Y430991D01*
X279371Y432201D01*
X278439Y432739D01*
Y439503D01*
X280548Y441613D01*
X281687Y440955D01*
X281580Y440556D01*
Y438844D01*
X282023Y437191D01*
X282879Y435709D01*
X284089Y434499D01*
X285571Y433643D01*
X287224Y433200D01*
X288936D01*
X290589Y433643D01*
X292071Y434499D01*
X293281Y435709D01*
X294137Y437191D01*
X294580Y438844D01*
Y440556D01*
X294137Y442209D01*
X293281Y443691D01*
X292071Y444901D01*
X290963Y445541D01*
X291303Y446811D01*
X378197D01*
X378537Y445541D01*
X377429Y444901D01*
X376219Y443691D01*
X375363Y442209D01*
X374920Y440556D01*
Y438844D01*
X375363Y437191D01*
X376219Y435709D01*
X377429Y434499D01*
X378911Y433643D01*
X380564Y433200D01*
X382276D01*
X383929Y433643D01*
X385411Y434499D01*
X386621Y435709D01*
X387477Y437191D01*
X387920Y438844D01*
Y440556D01*
X387477Y442209D01*
X386621Y443691D01*
X385411Y444901D01*
X384302Y445541D01*
X384643Y446811D01*
X471537D01*
X471878Y445541D01*
X470769Y444901D01*
X469559Y443691D01*
X468703Y442209D01*
X468260Y440556D01*
Y438844D01*
X468703Y437191D01*
X469559Y435709D01*
X470769Y434499D01*
X472251Y433643D01*
X473904Y433200D01*
X475616D01*
X477269Y433643D01*
X478751Y434499D01*
X479961Y435709D01*
X480817Y437191D01*
X481260Y438844D01*
Y440556D01*
X480817Y442209D01*
X479961Y443691D01*
X478751Y444901D01*
X477643Y445541D01*
X477983Y446811D01*
X564877D01*
X565218Y445541D01*
X564109Y444901D01*
X562899Y443691D01*
X562043Y442209D01*
X561600Y440556D01*
Y438844D01*
X562043Y437191D01*
X562899Y435709D01*
X564109Y434499D01*
X565591Y433643D01*
X567244Y433200D01*
X568956D01*
X570609Y433643D01*
X572091Y434499D01*
X573301Y435709D01*
X574157Y437191D01*
X574600Y438844D01*
Y440556D01*
X574157Y442209D01*
X573301Y443691D01*
X572091Y444901D01*
X570983Y445541D01*
X571323Y446811D01*
X590663D01*
X618892Y418583D01*
X619333Y417517D01*
X620317Y416533D01*
X621604Y416000D01*
X622996D01*
X624283Y416533D01*
X624572Y416822D01*
X625842Y416296D01*
Y414500D01*
X626152Y412939D01*
X626743Y412054D01*
X626169Y410784D01*
X588102D01*
X579613Y419274D01*
X579788Y419923D01*
X580183Y420500D01*
X581656D01*
X583309Y420943D01*
X584791Y421799D01*
X586001Y423009D01*
X586857Y424491D01*
X587300Y426144D01*
Y427856D01*
X586857Y429509D01*
X586001Y430991D01*
X584791Y432201D01*
X583309Y433057D01*
X581656Y433500D01*
X579944D01*
X578291Y433057D01*
X576809Y432201D01*
X575599Y430991D01*
X574743Y429509D01*
X574300Y427856D01*
Y426383D01*
X573723Y425988D01*
X573074Y425813D01*
X569890Y428997D01*
X568974Y429609D01*
X567893Y429824D01*
X567893Y429824D01*
X561275D01*
X560601Y430991D01*
X559391Y432201D01*
X557909Y433057D01*
X556256Y433500D01*
X554544D01*
X552891Y433057D01*
X551409Y432201D01*
X550199Y430991D01*
X549343Y429509D01*
X548900Y427856D01*
Y426144D01*
X549343Y424491D01*
X550199Y423009D01*
X551409Y421799D01*
X552891Y420943D01*
X554544Y420500D01*
X556256D01*
X557909Y420943D01*
X559391Y421799D01*
X560601Y423009D01*
X561275Y424176D01*
X566723D01*
X568829Y422070D01*
X568302Y420800D01*
X567244D01*
X565591Y420357D01*
X564109Y419501D01*
X562899Y418291D01*
X562043Y416809D01*
X561600Y415156D01*
Y413444D01*
X562043Y411791D01*
X562899Y410309D01*
X564109Y409099D01*
X565591Y408243D01*
X566444Y408014D01*
X566277Y406744D01*
X476583D01*
X476416Y408014D01*
X477269Y408243D01*
X478751Y409099D01*
X479961Y410309D01*
X480817Y411791D01*
X481260Y413444D01*
Y415156D01*
X480817Y416809D01*
X479961Y418291D01*
X478751Y419501D01*
X477269Y420357D01*
X475616Y420800D01*
X473904D01*
X472251Y420357D01*
X470769Y419501D01*
X469559Y418291D01*
X468703Y416809D01*
X468260Y415156D01*
Y413444D01*
X468703Y411791D01*
X469559Y410309D01*
X470769Y409099D01*
X472251Y408243D01*
X473104Y408014D01*
X472937Y406744D01*
X470030D01*
X464884Y411890D01*
Y421125D01*
X466051Y421799D01*
X467261Y423009D01*
X468117Y424491D01*
X468560Y426144D01*
Y427856D01*
X468117Y429509D01*
X467261Y430991D01*
X466051Y432201D01*
X464569Y433057D01*
X462916Y433500D01*
X461204D01*
X459551Y433057D01*
X458069Y432201D01*
X456859Y430991D01*
X456003Y429509D01*
X455560Y427856D01*
Y426144D01*
X456003Y424491D01*
X456859Y423009D01*
X458069Y421799D01*
X459236Y421125D01*
Y410720D01*
X459236Y410720D01*
X459451Y409639D01*
X460063Y408723D01*
X465622Y403164D01*
X465095Y401894D01*
X378360D01*
X371544Y408710D01*
Y421125D01*
X372711Y421799D01*
X373921Y423009D01*
X374777Y424491D01*
X375220Y426144D01*
Y427856D01*
X374777Y429509D01*
X373921Y430991D01*
X372711Y432201D01*
X371229Y433057D01*
X369576Y433500D01*
X367864D01*
X366211Y433057D01*
X364729Y432201D01*
X363519Y430991D01*
X362663Y429509D01*
X362220Y427856D01*
Y426144D01*
X362663Y424491D01*
X363519Y423009D01*
X364729Y421799D01*
X365896Y421125D01*
Y407540D01*
X365896Y407540D01*
X366111Y406459D01*
X366723Y405543D01*
X375193Y397073D01*
X375193Y397073D01*
X376109Y396461D01*
X377190Y396246D01*
X377190Y396246D01*
X644504D01*
X644647Y396103D01*
X645934Y395570D01*
X647121D01*
X647754Y395016D01*
X648130Y394528D01*
Y393294D01*
X648663Y392007D01*
X649647Y391023D01*
X650934Y390490D01*
X652326D01*
X653613Y391023D01*
X654597Y392007D01*
X655130Y393294D01*
Y394528D01*
X655506Y395016D01*
X656139Y395570D01*
X657121D01*
X657754Y395016D01*
X658130Y394528D01*
Y393294D01*
X658663Y392007D01*
X659647Y391023D01*
X660934Y390490D01*
X662326D01*
X663613Y391023D01*
X664597Y392007D01*
X665130Y393294D01*
Y394528D01*
X665506Y395016D01*
X666139Y395570D01*
X667326D01*
X668613Y396103D01*
X669597Y397088D01*
X670130Y398374D01*
Y399766D01*
X669597Y401053D01*
X668613Y402037D01*
X667326Y402570D01*
X667124D01*
X659737Y409957D01*
X659737Y409957D01*
X658821Y410569D01*
X657740Y410784D01*
X657740Y410784D01*
X633671D01*
X633097Y412054D01*
X633688Y412939D01*
X633998Y414500D01*
Y427000D01*
Y435422D01*
X721092D01*
Y418000D01*
Y397228D01*
X706840D01*
X705279Y396918D01*
X703956Y396034D01*
X703956Y396034D01*
X695616Y387694D01*
X694732Y386371D01*
X694422Y384810D01*
X694422Y384810D01*
Y376339D01*
X689661Y371578D01*
X629920D01*
X628359Y371268D01*
X627036Y370384D01*
X626152Y369061D01*
X625842Y367500D01*
Y365704D01*
X624572Y365178D01*
X624283Y365467D01*
X623217Y365908D01*
X605328Y383798D01*
X605814Y384971D01*
X641553D01*
X643222Y383303D01*
X643663Y382238D01*
X644647Y381253D01*
X645934Y380720D01*
X647326D01*
X648613Y381253D01*
X649597Y382238D01*
X650130Y383524D01*
Y384916D01*
X649597Y386203D01*
X648613Y387187D01*
X647547Y387628D01*
X644983Y390193D01*
X643990Y390856D01*
X642820Y391089D01*
X642820Y391089D01*
X100330D01*
X100330Y391089D01*
X99159Y390856D01*
X98167Y390193D01*
X98167Y390193D01*
X86537Y378563D01*
X85874Y377571D01*
X85641Y376400D01*
X85641Y376400D01*
Y360740D01*
X84709Y360201D01*
X83499Y358991D01*
X82643Y357509D01*
X82200Y355856D01*
Y354144D01*
X82643Y352491D01*
X83499Y351009D01*
X84709Y349799D01*
X86191Y348943D01*
X87844Y348500D01*
X89556D01*
X91209Y348943D01*
X92691Y349799D01*
X93901Y351009D01*
X94757Y352491D01*
X95200Y354144D01*
Y355856D01*
X94757Y357509D01*
X93901Y358991D01*
X92691Y360201D01*
X91759Y360740D01*
Y375133D01*
X101597Y384971D01*
X190346D01*
X190832Y383798D01*
X179877Y372843D01*
X179214Y371851D01*
X178981Y370680D01*
X178981Y370680D01*
Y360740D01*
X178049Y360201D01*
X176839Y358991D01*
X175983Y357509D01*
X175540Y355856D01*
Y354144D01*
X175983Y352491D01*
X176839Y351009D01*
X178049Y349799D01*
X179531Y348943D01*
X181184Y348500D01*
X182896D01*
X184549Y348943D01*
X186031Y349799D01*
X187241Y351009D01*
X188097Y352491D01*
X188540Y354144D01*
Y355856D01*
X188097Y357509D01*
X187241Y358991D01*
X186031Y360201D01*
X185099Y360740D01*
Y369413D01*
X195577Y379891D01*
X280516D01*
X281002Y378718D01*
X273217Y370933D01*
X272554Y369941D01*
X272321Y368770D01*
X272321Y368770D01*
Y360740D01*
X271389Y360201D01*
X270179Y358991D01*
X269323Y357509D01*
X268880Y355856D01*
Y354144D01*
X269323Y352491D01*
X270179Y351009D01*
X271389Y349799D01*
X272871Y348943D01*
X274524Y348500D01*
X276236D01*
X277889Y348943D01*
X279371Y349799D01*
X280581Y351009D01*
X281437Y352491D01*
X281880Y354144D01*
Y355856D01*
X281437Y357509D01*
X280581Y358991D01*
X279371Y360201D01*
X278439Y360740D01*
Y367503D01*
X280548Y369613D01*
X281687Y368955D01*
X281580Y368556D01*
Y366844D01*
X282023Y365191D01*
X282879Y363709D01*
X284089Y362499D01*
X285571Y361643D01*
X287224Y361200D01*
X288936D01*
X290589Y361643D01*
X292071Y362499D01*
X293281Y363709D01*
X294137Y365191D01*
X294580Y366844D01*
Y368556D01*
X294137Y370209D01*
X293281Y371691D01*
X292071Y372901D01*
X290963Y373541D01*
X291303Y374811D01*
X378197D01*
X378537Y373541D01*
X377429Y372901D01*
X376219Y371691D01*
X375363Y370209D01*
X374920Y368556D01*
Y366844D01*
X375363Y365191D01*
X376219Y363709D01*
X377429Y362499D01*
X378911Y361643D01*
X380564Y361200D01*
X382276D01*
X383929Y361643D01*
X385411Y362499D01*
X386621Y363709D01*
X387477Y365191D01*
X387920Y366844D01*
Y368556D01*
X387477Y370209D01*
X386621Y371691D01*
X385411Y372901D01*
X384302Y373541D01*
X384643Y374811D01*
X471537D01*
X471878Y373541D01*
X470769Y372901D01*
X469559Y371691D01*
X468703Y370209D01*
X468260Y368556D01*
Y366844D01*
X468703Y365191D01*
X469559Y363709D01*
X470769Y362499D01*
X472251Y361643D01*
X473904Y361200D01*
X475616D01*
X477269Y361643D01*
X478751Y362499D01*
X479961Y363709D01*
X480817Y365191D01*
X481260Y366844D01*
Y368556D01*
X480817Y370209D01*
X479961Y371691D01*
X478751Y372901D01*
X477643Y373541D01*
X477983Y374811D01*
X564877D01*
X565218Y373541D01*
X564109Y372901D01*
X562899Y371691D01*
X562043Y370209D01*
X561600Y368556D01*
Y366844D01*
X562043Y365191D01*
X562899Y363709D01*
X564109Y362499D01*
X565591Y361643D01*
X567244Y361200D01*
X568956D01*
X570609Y361643D01*
X572091Y362499D01*
X573301Y363709D01*
X574157Y365191D01*
X574600Y366844D01*
Y368556D01*
X574157Y370209D01*
X573301Y371691D01*
X572091Y372901D01*
X570983Y373541D01*
X571323Y374811D01*
X590663D01*
X618892Y346583D01*
X619333Y345517D01*
X620317Y344533D01*
X621604Y344000D01*
X622996D01*
X624283Y344533D01*
X624572Y344822D01*
X625842Y344296D01*
Y342500D01*
X626152Y340939D01*
X626743Y340054D01*
X626169Y338784D01*
X588500D01*
X580054Y347230D01*
X580580Y348500D01*
X581656D01*
X583309Y348943D01*
X584791Y349799D01*
X586001Y351009D01*
X586857Y352491D01*
X587300Y354144D01*
Y355856D01*
X586857Y357509D01*
X586001Y358991D01*
X584791Y360201D01*
X583309Y361057D01*
X581656Y361500D01*
X579944D01*
X578291Y361057D01*
X576809Y360201D01*
X575599Y358991D01*
X574743Y357509D01*
X574300Y355856D01*
Y354780D01*
X573030Y354254D01*
X570287Y356997D01*
X569371Y357609D01*
X568290Y357824D01*
X568290Y357824D01*
X561275D01*
X560601Y358991D01*
X559391Y360201D01*
X557909Y361057D01*
X556256Y361500D01*
X554544D01*
X552891Y361057D01*
X551409Y360201D01*
X550199Y358991D01*
X549343Y357509D01*
X548900Y355856D01*
Y354144D01*
X549343Y352491D01*
X550199Y351009D01*
X551409Y349799D01*
X552891Y348943D01*
X554544Y348500D01*
X556256D01*
X557909Y348943D01*
X559391Y349799D01*
X560601Y351009D01*
X561275Y352176D01*
X567120D01*
X569271Y350025D01*
X569117Y349428D01*
X568700Y348800D01*
X567244D01*
X565591Y348357D01*
X564109Y347501D01*
X562899Y346291D01*
X562043Y344809D01*
X561600Y343156D01*
Y341444D01*
X562043Y339791D01*
X562899Y338309D01*
X564109Y337099D01*
X565591Y336243D01*
X566444Y336014D01*
X566277Y334744D01*
X476583D01*
X476416Y336014D01*
X477269Y336243D01*
X478751Y337099D01*
X479961Y338309D01*
X480817Y339791D01*
X481260Y341444D01*
Y343156D01*
X480817Y344809D01*
X479961Y346291D01*
X478751Y347501D01*
X477269Y348357D01*
X475616Y348800D01*
X473904D01*
X472251Y348357D01*
X470769Y347501D01*
X469559Y346291D01*
X468703Y344809D01*
X468260Y343156D01*
Y341444D01*
X468703Y339791D01*
X469559Y338309D01*
X470769Y337099D01*
X472251Y336243D01*
X473104Y336014D01*
X472937Y334744D01*
X470030D01*
X464884Y339890D01*
Y349125D01*
X466051Y349799D01*
X467261Y351009D01*
X468117Y352491D01*
X468560Y354144D01*
Y355856D01*
X468117Y357509D01*
X467261Y358991D01*
X466051Y360201D01*
X464569Y361057D01*
X462916Y361500D01*
X461204D01*
X459551Y361057D01*
X458069Y360201D01*
X456859Y358991D01*
X456003Y357509D01*
X455560Y355856D01*
Y354144D01*
X456003Y352491D01*
X456859Y351009D01*
X458069Y349799D01*
X459236Y349125D01*
Y338720D01*
X459236Y338720D01*
X459451Y337639D01*
X460063Y336723D01*
X465622Y331164D01*
X465095Y329894D01*
X378360D01*
X371544Y336710D01*
Y349125D01*
X372711Y349799D01*
X373921Y351009D01*
X374777Y352491D01*
X375220Y354144D01*
Y355856D01*
X374777Y357509D01*
X373921Y358991D01*
X372711Y360201D01*
X371229Y361057D01*
X369576Y361500D01*
X367864D01*
X366211Y361057D01*
X364729Y360201D01*
X363519Y358991D01*
X362663Y357509D01*
X362220Y355856D01*
Y354144D01*
X362663Y352491D01*
X363519Y351009D01*
X364729Y349799D01*
X365896Y349125D01*
Y335540D01*
X365896Y335540D01*
X366111Y334459D01*
X366723Y333543D01*
X375193Y325073D01*
X375193Y325073D01*
X376109Y324461D01*
X377190Y324246D01*
X377190Y324246D01*
X644504D01*
X644647Y324103D01*
X645934Y323570D01*
X647121D01*
X647754Y323016D01*
X648130Y322528D01*
Y321294D01*
X648663Y320008D01*
X649647Y319023D01*
X650934Y318490D01*
X652326D01*
X653613Y319023D01*
X654597Y320008D01*
X655130Y321294D01*
Y322528D01*
X655506Y323016D01*
X656139Y323570D01*
X657121D01*
X657754Y323016D01*
X658130Y322528D01*
Y321294D01*
X658663Y320008D01*
X659647Y319023D01*
X660934Y318490D01*
X662326D01*
X663613Y319023D01*
X664597Y320008D01*
X665130Y321294D01*
Y322528D01*
X665506Y323016D01*
X666139Y323570D01*
X667326D01*
X668613Y324103D01*
X669597Y325088D01*
X670130Y326374D01*
Y327766D01*
X669597Y329053D01*
X668613Y330037D01*
X667326Y330570D01*
X667124D01*
X659737Y337957D01*
X659737Y337957D01*
X658821Y338569D01*
X657740Y338784D01*
X657740Y338784D01*
X633671D01*
X633097Y340054D01*
X633688Y340939D01*
X633998Y342500D01*
Y355000D01*
Y363422D01*
X691350D01*
X691350Y363422D01*
X692911Y363732D01*
X694234Y364616D01*
X701384Y371766D01*
X701384Y371766D01*
X702268Y373089D01*
X702578Y374650D01*
Y383121D01*
X708529Y389072D01*
X721092D01*
Y346000D01*
X721402Y344439D01*
X722286Y343116D01*
X723609Y342232D01*
X725170Y341922D01*
X726731Y342232D01*
X728054Y343116D01*
X728938Y344439D01*
X729248Y346000D01*
Y393150D01*
Y418000D01*
Y439420D01*
Y490000D01*
Y511810D01*
X729248Y511810D01*
X729248Y511810D01*
Y562000D01*
Y584200D01*
Y634000D01*
Y656590D01*
Y666710D01*
X730518Y667236D01*
X734437Y663317D01*
X734437Y663317D01*
X735430Y662654D01*
X736600Y662421D01*
X736600Y662421D01*
X747911D01*
Y489584D01*
X747911Y489583D01*
X748144Y488413D01*
X748807Y487420D01*
X754782Y481446D01*
X755223Y480381D01*
X756207Y479396D01*
X757494Y478863D01*
X758886D01*
X760173Y479396D01*
X761157Y480381D01*
X761690Y481667D01*
Y483060D01*
X761157Y484346D01*
X760173Y485331D01*
X759107Y485772D01*
X754029Y490850D01*
Y544065D01*
X755299Y544743D01*
X756019Y544262D01*
X757580Y543952D01*
X759141Y544262D01*
X760464Y545146D01*
X797904Y582586D01*
X797904Y582586D01*
X798788Y583909D01*
X799098Y585470D01*
Y716280D01*
X798788Y717841D01*
X797904Y719164D01*
X796581Y720048D01*
X795020Y720358D01*
X793459Y720048D01*
X792136Y719164D01*
X791252Y717841D01*
X790942Y716280D01*
Y681384D01*
X789672Y680858D01*
X789383Y681147D01*
X788096Y681680D01*
X786704D01*
X785417Y681147D01*
X784433Y680163D01*
X783900Y678876D01*
Y677484D01*
X784433Y676197D01*
X785417Y675213D01*
X786704Y674680D01*
X788096D01*
X789383Y675213D01*
X789672Y675502D01*
X790942Y674976D01*
Y587159D01*
X755299Y551516D01*
X754029Y552043D01*
Y610243D01*
X754439Y610552D01*
X755299Y610913D01*
X756340Y610481D01*
X757732D01*
X759018Y611014D01*
X760003Y611999D01*
X760536Y613285D01*
Y614678D01*
X760003Y615964D01*
X759018Y616949D01*
X757732Y617481D01*
X756340D01*
X755299Y617050D01*
X754439Y617411D01*
X754029Y617720D01*
Y662421D01*
X774209D01*
X775274Y661980D01*
X776666D01*
X777953Y662513D01*
X778937Y663497D01*
X779470Y664784D01*
Y666176D01*
X778937Y667463D01*
X777953Y668447D01*
X776666Y668980D01*
X775274D01*
X774209Y668539D01*
X737867D01*
X734579Y671827D01*
Y708660D01*
X734579Y708660D01*
X734346Y709830D01*
X733683Y710823D01*
X729843Y714663D01*
X728851Y715326D01*
X727680Y715559D01*
X727680Y715559D01*
X695007D01*
X694302Y716615D01*
X694380Y716804D01*
Y718196D01*
X693847Y719482D01*
X692863Y720467D01*
X691576Y721000D01*
X690184D01*
X688897Y720467D01*
X687913Y719482D01*
X687380Y718196D01*
Y716804D01*
X687402Y716751D01*
X686430Y715779D01*
X685896Y716000D01*
X684504D01*
X683218Y715467D01*
X682233Y714482D01*
X681700Y713196D01*
Y711804D01*
X682233Y710517D01*
X683218Y709533D01*
X684504Y709000D01*
X684926D01*
X685452Y707730D01*
X684301Y706578D01*
X633998D01*
Y715000D01*
Y727500D01*
X633688Y729061D01*
X632804Y730384D01*
X631481Y731268D01*
X629920Y731578D01*
X628359Y731268D01*
X627036Y730384D01*
X626152Y729061D01*
X625842Y727500D01*
Y725704D01*
X624572Y725178D01*
X624283Y725467D01*
X623217Y725908D01*
X605328Y743798D01*
X605814Y744971D01*
X641553D01*
X643222Y743303D01*
X643663Y742237D01*
X644647Y741253D01*
X645934Y740720D01*
X647326D01*
X648613Y741253D01*
X649597Y742237D01*
X650130Y743524D01*
Y744916D01*
X649597Y746203D01*
X648613Y747187D01*
X647547Y747628D01*
X644983Y750193D01*
X643990Y750856D01*
X642820Y751089D01*
D02*
G37*
G36*
X737296Y738830D02*
X735904D01*
X734617Y738297D01*
X733633Y737313D01*
X733100Y736026D01*
Y734634D01*
X733633Y733347D01*
X734617Y732363D01*
X735904Y731830D01*
X737296D01*
X738583Y732363D01*
X739567Y733347D01*
X740100Y734634D01*
Y736026D01*
X739567Y737313D01*
X738583Y738297D01*
X737296Y738830D01*
D02*
G37*
G36*
X195596Y734200D02*
X193884D01*
X192231Y733757D01*
X190749Y732901D01*
X189539Y731691D01*
X188683Y730209D01*
X188240Y728556D01*
Y726844D01*
X188683Y725191D01*
X189539Y723709D01*
X190749Y722499D01*
X192231Y721643D01*
X193884Y721200D01*
X195596D01*
X197249Y721643D01*
X198731Y722499D01*
X199941Y723709D01*
X200797Y725191D01*
X201240Y726844D01*
Y728556D01*
X200797Y730209D01*
X199941Y731691D01*
X198731Y732901D01*
X197249Y733757D01*
X195596Y734200D01*
D02*
G37*
G36*
X102256D02*
X100544D01*
X98891Y733757D01*
X97409Y732901D01*
X96199Y731691D01*
X95343Y730209D01*
X94900Y728556D01*
Y726844D01*
X95343Y725191D01*
X96199Y723709D01*
X97409Y722499D01*
X98891Y721643D01*
X100544Y721200D01*
X102256D01*
X103909Y721643D01*
X105391Y722499D01*
X106601Y723709D01*
X107457Y725191D01*
X107900Y726844D01*
Y728556D01*
X107457Y730209D01*
X106601Y731691D01*
X105391Y732901D01*
X103909Y733757D01*
X102256Y734200D01*
D02*
G37*
G36*
X488316Y721500D02*
X486604D01*
X484951Y721057D01*
X483469Y720201D01*
X482259Y718991D01*
X481403Y717509D01*
X480960Y715856D01*
Y714144D01*
X481403Y712491D01*
X482259Y711009D01*
X483469Y709799D01*
X484951Y708943D01*
X486604Y708500D01*
X488316D01*
X489969Y708943D01*
X491451Y709799D01*
X492661Y711009D01*
X493517Y712491D01*
X493960Y714144D01*
Y715856D01*
X493517Y717509D01*
X492661Y718991D01*
X491451Y720201D01*
X489969Y721057D01*
X488316Y721500D01*
D02*
G37*
G36*
X394976D02*
X393264D01*
X391611Y721057D01*
X390129Y720201D01*
X388919Y718991D01*
X388063Y717509D01*
X387620Y715856D01*
Y714144D01*
X388063Y712491D01*
X388919Y711009D01*
X390129Y709799D01*
X391611Y708943D01*
X393264Y708500D01*
X394976D01*
X396629Y708943D01*
X398111Y709799D01*
X399321Y711009D01*
X400177Y712491D01*
X400620Y714144D01*
Y715856D01*
X400177Y717509D01*
X399321Y718991D01*
X398111Y720201D01*
X396629Y721057D01*
X394976Y721500D01*
D02*
G37*
G36*
X301636D02*
X299924D01*
X298271Y721057D01*
X296789Y720201D01*
X295579Y718991D01*
X294723Y717509D01*
X294280Y715856D01*
Y714144D01*
X294723Y712491D01*
X295579Y711009D01*
X296789Y709799D01*
X298271Y708943D01*
X299924Y708500D01*
X301636D01*
X303289Y708943D01*
X304771Y709799D01*
X305981Y711009D01*
X306837Y712491D01*
X307280Y714144D01*
Y715856D01*
X306837Y717509D01*
X305981Y718991D01*
X304771Y720201D01*
X303289Y721057D01*
X301636Y721500D01*
D02*
G37*
G36*
X208296D02*
X206584D01*
X204931Y721057D01*
X203449Y720201D01*
X202239Y718991D01*
X201383Y717509D01*
X200940Y715856D01*
Y714144D01*
X201383Y712491D01*
X202239Y711009D01*
X203449Y709799D01*
X204931Y708943D01*
X206584Y708500D01*
X208296D01*
X209949Y708943D01*
X211431Y709799D01*
X212641Y711009D01*
X213497Y712491D01*
X213940Y714144D01*
Y715856D01*
X213497Y717509D01*
X212641Y718991D01*
X211431Y720201D01*
X209949Y721057D01*
X208296Y721500D01*
D02*
G37*
G36*
X114956D02*
X113244D01*
X111591Y721057D01*
X110109Y720201D01*
X108899Y718991D01*
X108043Y717509D01*
X107600Y715856D01*
Y714144D01*
X108043Y712491D01*
X108899Y711009D01*
X110109Y709799D01*
X111591Y708943D01*
X113244Y708500D01*
X114956D01*
X116609Y708943D01*
X118091Y709799D01*
X119301Y711009D01*
X120157Y712491D01*
X120600Y714144D01*
Y715856D01*
X120157Y717509D01*
X119301Y718991D01*
X118091Y720201D01*
X116609Y721057D01*
X114956Y721500D01*
D02*
G37*
G36*
X382276Y708800D02*
X380564D01*
X378911Y708357D01*
X377429Y707501D01*
X376219Y706291D01*
X375363Y704809D01*
X374920Y703156D01*
Y701444D01*
X375363Y699791D01*
X376219Y698309D01*
X377429Y697099D01*
X378911Y696243D01*
X380564Y695800D01*
X382276D01*
X383929Y696243D01*
X385411Y697099D01*
X386621Y698309D01*
X387477Y699791D01*
X387920Y701444D01*
Y703156D01*
X387477Y704809D01*
X386621Y706291D01*
X385411Y707501D01*
X383929Y708357D01*
X382276Y708800D01*
D02*
G37*
G36*
X288936D02*
X287224D01*
X285571Y708357D01*
X284089Y707501D01*
X282879Y706291D01*
X282023Y704809D01*
X281580Y703156D01*
Y701444D01*
X282023Y699791D01*
X282879Y698309D01*
X284089Y697099D01*
X285571Y696243D01*
X287224Y695800D01*
X288936D01*
X290589Y696243D01*
X292071Y697099D01*
X293281Y698309D01*
X294137Y699791D01*
X294580Y701444D01*
Y703156D01*
X294137Y704809D01*
X293281Y706291D01*
X292071Y707501D01*
X290589Y708357D01*
X288936Y708800D01*
D02*
G37*
G36*
X195596D02*
X193884D01*
X192231Y708357D01*
X190749Y707501D01*
X189539Y706291D01*
X188683Y704809D01*
X188240Y703156D01*
Y701444D01*
X188683Y699791D01*
X189539Y698309D01*
X190749Y697099D01*
X192231Y696243D01*
X193884Y695800D01*
X195596D01*
X197249Y696243D01*
X198731Y697099D01*
X199941Y698309D01*
X200797Y699791D01*
X201240Y701444D01*
Y703156D01*
X200797Y704809D01*
X199941Y706291D01*
X198731Y707501D01*
X197249Y708357D01*
X195596Y708800D01*
D02*
G37*
G36*
X102256D02*
X100544D01*
X98891Y708357D01*
X97409Y707501D01*
X96199Y706291D01*
X95343Y704809D01*
X94900Y703156D01*
Y701444D01*
X95343Y699791D01*
X96199Y698309D01*
X97409Y697099D01*
X98891Y696243D01*
X100544Y695800D01*
X102256D01*
X103909Y696243D01*
X105391Y697099D01*
X106601Y698309D01*
X107457Y699791D01*
X107900Y701444D01*
Y703156D01*
X107457Y704809D01*
X106601Y706291D01*
X105391Y707501D01*
X103909Y708357D01*
X102256Y708800D01*
D02*
G37*
G36*
X751266Y694380D02*
X749874D01*
X748587Y693847D01*
X747603Y692863D01*
X747070Y691576D01*
Y690184D01*
X747603Y688897D01*
X748587Y687913D01*
X749874Y687380D01*
X751266D01*
X752553Y687913D01*
X753537Y688897D01*
X754070Y690184D01*
Y691576D01*
X753537Y692863D01*
X752553Y693847D01*
X751266Y694380D01*
D02*
G37*
G36*
X195596Y662200D02*
X193884D01*
X192231Y661757D01*
X190749Y660901D01*
X189539Y659691D01*
X188683Y658209D01*
X188240Y656556D01*
Y654844D01*
X188683Y653191D01*
X189539Y651709D01*
X190749Y650499D01*
X192231Y649643D01*
X193884Y649200D01*
X195596D01*
X197249Y649643D01*
X198731Y650499D01*
X199941Y651709D01*
X200797Y653191D01*
X201240Y654844D01*
Y656556D01*
X200797Y658209D01*
X199941Y659691D01*
X198731Y660901D01*
X197249Y661757D01*
X195596Y662200D01*
D02*
G37*
G36*
X102256D02*
X100544D01*
X98891Y661757D01*
X97409Y660901D01*
X96199Y659691D01*
X95343Y658209D01*
X94900Y656556D01*
Y654844D01*
X95343Y653191D01*
X96199Y651709D01*
X97409Y650499D01*
X98891Y649643D01*
X100544Y649200D01*
X102256D01*
X103909Y649643D01*
X105391Y650499D01*
X106601Y651709D01*
X107457Y653191D01*
X107900Y654844D01*
Y656556D01*
X107457Y658209D01*
X106601Y659691D01*
X105391Y660901D01*
X103909Y661757D01*
X102256Y662200D01*
D02*
G37*
G36*
X691576Y649000D02*
X690184D01*
X688897Y648467D01*
X687913Y647483D01*
X687380Y646196D01*
Y644804D01*
X687402Y644751D01*
X686430Y643779D01*
X685896Y644000D01*
X684504D01*
X683218Y643467D01*
X682233Y642483D01*
X681700Y641196D01*
Y639804D01*
X682233Y638517D01*
X683218Y637533D01*
X684504Y637000D01*
X685896D01*
X687183Y637533D01*
X688167Y638517D01*
X688700Y639804D01*
Y641196D01*
X688678Y641249D01*
X689650Y642221D01*
X690184Y642000D01*
X691576D01*
X692863Y642533D01*
X693847Y643517D01*
X694380Y644804D01*
Y646196D01*
X693847Y647483D01*
X692863Y648467D01*
X691576Y649000D01*
D02*
G37*
G36*
X779147Y644456D02*
X777755D01*
X776469Y643923D01*
X775484Y642939D01*
X774951Y641652D01*
Y640260D01*
X775484Y638973D01*
X776469Y637989D01*
X777755Y637456D01*
X779147D01*
X780434Y637989D01*
X781418Y638973D01*
X781951Y640260D01*
Y641652D01*
X781418Y642939D01*
X780434Y643923D01*
X779147Y644456D01*
D02*
G37*
G36*
X488316Y649500D02*
X486604D01*
X484951Y649057D01*
X483469Y648201D01*
X482259Y646991D01*
X481403Y645509D01*
X480960Y643856D01*
Y642144D01*
X481403Y640491D01*
X482259Y639009D01*
X483469Y637799D01*
X484951Y636943D01*
X486604Y636500D01*
X488316D01*
X489969Y636943D01*
X491451Y637799D01*
X492661Y639009D01*
X493517Y640491D01*
X493960Y642144D01*
Y643856D01*
X493517Y645509D01*
X492661Y646991D01*
X491451Y648201D01*
X489969Y649057D01*
X488316Y649500D01*
D02*
G37*
G36*
X394976D02*
X393264D01*
X391611Y649057D01*
X390129Y648201D01*
X388919Y646991D01*
X388063Y645509D01*
X387620Y643856D01*
Y642144D01*
X388063Y640491D01*
X388919Y639009D01*
X390129Y637799D01*
X391611Y636943D01*
X393264Y636500D01*
X394976D01*
X396629Y636943D01*
X398111Y637799D01*
X399321Y639009D01*
X400177Y640491D01*
X400620Y642144D01*
Y643856D01*
X400177Y645509D01*
X399321Y646991D01*
X398111Y648201D01*
X396629Y649057D01*
X394976Y649500D01*
D02*
G37*
G36*
X301636D02*
X299924D01*
X298271Y649057D01*
X296789Y648201D01*
X295579Y646991D01*
X294723Y645509D01*
X294280Y643856D01*
Y642144D01*
X294723Y640491D01*
X295579Y639009D01*
X296789Y637799D01*
X298271Y636943D01*
X299924Y636500D01*
X301636D01*
X303289Y636943D01*
X304771Y637799D01*
X305981Y639009D01*
X306837Y640491D01*
X307280Y642144D01*
Y643856D01*
X306837Y645509D01*
X305981Y646991D01*
X304771Y648201D01*
X303289Y649057D01*
X301636Y649500D01*
D02*
G37*
G36*
X208296D02*
X206584D01*
X204931Y649057D01*
X203449Y648201D01*
X202239Y646991D01*
X201383Y645509D01*
X200940Y643856D01*
Y642144D01*
X201383Y640491D01*
X202239Y639009D01*
X203449Y637799D01*
X204931Y636943D01*
X206584Y636500D01*
X208296D01*
X209949Y636943D01*
X211431Y637799D01*
X212641Y639009D01*
X213497Y640491D01*
X213940Y642144D01*
Y643856D01*
X213497Y645509D01*
X212641Y646991D01*
X211431Y648201D01*
X209949Y649057D01*
X208296Y649500D01*
D02*
G37*
G36*
X114956D02*
X113244D01*
X111591Y649057D01*
X110109Y648201D01*
X108899Y646991D01*
X108043Y645509D01*
X107600Y643856D01*
Y642144D01*
X108043Y640491D01*
X108899Y639009D01*
X110109Y637799D01*
X111591Y636943D01*
X113244Y636500D01*
X114956D01*
X116609Y636943D01*
X118091Y637799D01*
X119301Y639009D01*
X120157Y640491D01*
X120600Y642144D01*
Y643856D01*
X120157Y645509D01*
X119301Y646991D01*
X118091Y648201D01*
X116609Y649057D01*
X114956Y649500D01*
D02*
G37*
G36*
X382276Y636800D02*
X380564D01*
X378911Y636357D01*
X377429Y635501D01*
X376219Y634291D01*
X375363Y632809D01*
X374920Y631156D01*
Y629444D01*
X375363Y627791D01*
X376219Y626309D01*
X377429Y625099D01*
X378911Y624243D01*
X380564Y623800D01*
X382276D01*
X383929Y624243D01*
X385411Y625099D01*
X386621Y626309D01*
X387477Y627791D01*
X387920Y629444D01*
Y631156D01*
X387477Y632809D01*
X386621Y634291D01*
X385411Y635501D01*
X383929Y636357D01*
X382276Y636800D01*
D02*
G37*
G36*
X288936D02*
X287224D01*
X285571Y636357D01*
X284089Y635501D01*
X282879Y634291D01*
X282023Y632809D01*
X281580Y631156D01*
Y629444D01*
X282023Y627791D01*
X282879Y626309D01*
X284089Y625099D01*
X285571Y624243D01*
X287224Y623800D01*
X288936D01*
X290589Y624243D01*
X292071Y625099D01*
X293281Y626309D01*
X294137Y627791D01*
X294580Y629444D01*
Y631156D01*
X294137Y632809D01*
X293281Y634291D01*
X292071Y635501D01*
X290589Y636357D01*
X288936Y636800D01*
D02*
G37*
G36*
X195596D02*
X193884D01*
X192231Y636357D01*
X190749Y635501D01*
X189539Y634291D01*
X188683Y632809D01*
X188240Y631156D01*
Y629444D01*
X188683Y627791D01*
X189539Y626309D01*
X190749Y625099D01*
X192231Y624243D01*
X193884Y623800D01*
X195596D01*
X197249Y624243D01*
X198731Y625099D01*
X199941Y626309D01*
X200797Y627791D01*
X201240Y629444D01*
Y631156D01*
X200797Y632809D01*
X199941Y634291D01*
X198731Y635501D01*
X197249Y636357D01*
X195596Y636800D01*
D02*
G37*
G36*
X102256D02*
X100544D01*
X98891Y636357D01*
X97409Y635501D01*
X96199Y634291D01*
X95343Y632809D01*
X94900Y631156D01*
Y629444D01*
X95343Y627791D01*
X96199Y626309D01*
X97409Y625099D01*
X98891Y624243D01*
X100544Y623800D01*
X102256D01*
X103909Y624243D01*
X105391Y625099D01*
X106601Y626309D01*
X107457Y627791D01*
X107900Y629444D01*
Y631156D01*
X107457Y632809D01*
X106601Y634291D01*
X105391Y635501D01*
X103909Y636357D01*
X102256Y636800D01*
D02*
G37*
G36*
X701735Y630067D02*
X700343D01*
X699056Y629534D01*
X698072Y628550D01*
X697539Y627263D01*
Y625871D01*
X698072Y624584D01*
X699056Y623600D01*
X700343Y623067D01*
X701735D01*
X703021Y623600D01*
X704006Y624584D01*
X704539Y625871D01*
Y627263D01*
X704006Y628550D01*
X703021Y629534D01*
X701735Y630067D01*
D02*
G37*
G36*
X737296Y616910D02*
X735904D01*
X734617Y616377D01*
X733633Y615393D01*
X733100Y614106D01*
Y612714D01*
X733633Y611427D01*
X734617Y610443D01*
X735904Y609910D01*
X737296D01*
X738583Y610443D01*
X739567Y611427D01*
X740100Y612714D01*
Y614106D01*
X739567Y615393D01*
X738583Y616377D01*
X737296Y616910D01*
D02*
G37*
G36*
X195596Y590200D02*
X193884D01*
X192231Y589757D01*
X190749Y588901D01*
X189539Y587691D01*
X188683Y586209D01*
X188240Y584556D01*
Y582844D01*
X188683Y581191D01*
X189539Y579709D01*
X190749Y578499D01*
X192231Y577643D01*
X193884Y577200D01*
X195596D01*
X197249Y577643D01*
X198731Y578499D01*
X199941Y579709D01*
X200797Y581191D01*
X201240Y582844D01*
Y584556D01*
X200797Y586209D01*
X199941Y587691D01*
X198731Y588901D01*
X197249Y589757D01*
X195596Y590200D01*
D02*
G37*
G36*
X102256D02*
X100544D01*
X98891Y589757D01*
X97409Y588901D01*
X96199Y587691D01*
X95343Y586209D01*
X94900Y584556D01*
Y582844D01*
X95343Y581191D01*
X96199Y579709D01*
X97409Y578499D01*
X98891Y577643D01*
X100544Y577200D01*
X102256D01*
X103909Y577643D01*
X105391Y578499D01*
X106601Y579709D01*
X107457Y581191D01*
X107900Y582844D01*
Y584556D01*
X107457Y586209D01*
X106601Y587691D01*
X105391Y588901D01*
X103909Y589757D01*
X102256Y590200D01*
D02*
G37*
G36*
X691576Y577000D02*
X690184D01*
X688897Y576467D01*
X687913Y575482D01*
X687380Y574196D01*
Y572804D01*
X687402Y572751D01*
X686430Y571779D01*
X685896Y572000D01*
X684504D01*
X683218Y571467D01*
X682233Y570483D01*
X681700Y569196D01*
Y567804D01*
X682233Y566517D01*
X683218Y565533D01*
X684504Y565000D01*
X685896D01*
X687183Y565533D01*
X688167Y566517D01*
X688700Y567804D01*
Y569196D01*
X688678Y569249D01*
X689650Y570221D01*
X690184Y570000D01*
X691576D01*
X692863Y570533D01*
X693847Y571517D01*
X694380Y572804D01*
Y574196D01*
X693847Y575482D01*
X692863Y576467D01*
X691576Y577000D01*
D02*
G37*
G36*
X488316Y577500D02*
X486604D01*
X484951Y577057D01*
X483469Y576201D01*
X482259Y574991D01*
X481403Y573509D01*
X480960Y571856D01*
Y570144D01*
X481403Y568491D01*
X482259Y567009D01*
X483469Y565799D01*
X484951Y564943D01*
X486604Y564500D01*
X488316D01*
X489969Y564943D01*
X491451Y565799D01*
X492661Y567009D01*
X493517Y568491D01*
X493960Y570144D01*
Y571856D01*
X493517Y573509D01*
X492661Y574991D01*
X491451Y576201D01*
X489969Y577057D01*
X488316Y577500D01*
D02*
G37*
G36*
X394976D02*
X393264D01*
X391611Y577057D01*
X390129Y576201D01*
X388919Y574991D01*
X388063Y573509D01*
X387620Y571856D01*
Y570144D01*
X388063Y568491D01*
X388919Y567009D01*
X390129Y565799D01*
X391611Y564943D01*
X393264Y564500D01*
X394976D01*
X396629Y564943D01*
X398111Y565799D01*
X399321Y567009D01*
X400177Y568491D01*
X400620Y570144D01*
Y571856D01*
X400177Y573509D01*
X399321Y574991D01*
X398111Y576201D01*
X396629Y577057D01*
X394976Y577500D01*
D02*
G37*
G36*
X301636D02*
X299924D01*
X298271Y577057D01*
X296789Y576201D01*
X295579Y574991D01*
X294723Y573509D01*
X294280Y571856D01*
Y570144D01*
X294723Y568491D01*
X295579Y567009D01*
X296789Y565799D01*
X298271Y564943D01*
X299924Y564500D01*
X301636D01*
X303289Y564943D01*
X304771Y565799D01*
X305981Y567009D01*
X306837Y568491D01*
X307280Y570144D01*
Y571856D01*
X306837Y573509D01*
X305981Y574991D01*
X304771Y576201D01*
X303289Y577057D01*
X301636Y577500D01*
D02*
G37*
G36*
X208296D02*
X206584D01*
X204931Y577057D01*
X203449Y576201D01*
X202239Y574991D01*
X201383Y573509D01*
X200940Y571856D01*
Y570144D01*
X201383Y568491D01*
X202239Y567009D01*
X203449Y565799D01*
X204931Y564943D01*
X206584Y564500D01*
X208296D01*
X209949Y564943D01*
X211431Y565799D01*
X212641Y567009D01*
X213497Y568491D01*
X213940Y570144D01*
Y571856D01*
X213497Y573509D01*
X212641Y574991D01*
X211431Y576201D01*
X209949Y577057D01*
X208296Y577500D01*
D02*
G37*
G36*
X114956D02*
X113244D01*
X111591Y577057D01*
X110109Y576201D01*
X108899Y574991D01*
X108043Y573509D01*
X107600Y571856D01*
Y570144D01*
X108043Y568491D01*
X108899Y567009D01*
X110109Y565799D01*
X111591Y564943D01*
X113244Y564500D01*
X114956D01*
X116609Y564943D01*
X118091Y565799D01*
X119301Y567009D01*
X120157Y568491D01*
X120600Y570144D01*
Y571856D01*
X120157Y573509D01*
X119301Y574991D01*
X118091Y576201D01*
X116609Y577057D01*
X114956Y577500D01*
D02*
G37*
G36*
X382276Y564800D02*
X380564D01*
X378911Y564357D01*
X377429Y563501D01*
X376219Y562291D01*
X375363Y560809D01*
X374920Y559156D01*
Y557444D01*
X375363Y555791D01*
X376219Y554309D01*
X377429Y553099D01*
X378911Y552243D01*
X380564Y551800D01*
X382276D01*
X383929Y552243D01*
X385411Y553099D01*
X386621Y554309D01*
X387477Y555791D01*
X387920Y557444D01*
Y559156D01*
X387477Y560809D01*
X386621Y562291D01*
X385411Y563501D01*
X383929Y564357D01*
X382276Y564800D01*
D02*
G37*
G36*
X288936D02*
X287224D01*
X285571Y564357D01*
X284089Y563501D01*
X282879Y562291D01*
X282023Y560809D01*
X281580Y559156D01*
Y557444D01*
X282023Y555791D01*
X282879Y554309D01*
X284089Y553099D01*
X285571Y552243D01*
X287224Y551800D01*
X288936D01*
X290589Y552243D01*
X292071Y553099D01*
X293281Y554309D01*
X294137Y555791D01*
X294580Y557444D01*
Y559156D01*
X294137Y560809D01*
X293281Y562291D01*
X292071Y563501D01*
X290589Y564357D01*
X288936Y564800D01*
D02*
G37*
G36*
X195596D02*
X193884D01*
X192231Y564357D01*
X190749Y563501D01*
X189539Y562291D01*
X188683Y560809D01*
X188240Y559156D01*
Y557444D01*
X188683Y555791D01*
X189539Y554309D01*
X190749Y553099D01*
X192231Y552243D01*
X193884Y551800D01*
X195596D01*
X197249Y552243D01*
X198731Y553099D01*
X199941Y554309D01*
X200797Y555791D01*
X201240Y557444D01*
Y559156D01*
X200797Y560809D01*
X199941Y562291D01*
X198731Y563501D01*
X197249Y564357D01*
X195596Y564800D01*
D02*
G37*
G36*
X102256D02*
X100544D01*
X98891Y564357D01*
X97409Y563501D01*
X96199Y562291D01*
X95343Y560809D01*
X94900Y559156D01*
Y557444D01*
X95343Y555791D01*
X96199Y554309D01*
X97409Y553099D01*
X98891Y552243D01*
X100544Y551800D01*
X102256D01*
X103909Y552243D01*
X105391Y553099D01*
X106601Y554309D01*
X107457Y555791D01*
X107900Y557444D01*
Y559156D01*
X107457Y560809D01*
X106601Y562291D01*
X105391Y563501D01*
X103909Y564357D01*
X102256Y564800D01*
D02*
G37*
G36*
X701735Y558227D02*
X700343D01*
X699056Y557694D01*
X698072Y556709D01*
X697539Y555423D01*
Y554030D01*
X698072Y552744D01*
X699056Y551759D01*
X700343Y551227D01*
X701735D01*
X703021Y551759D01*
X704006Y552744D01*
X704539Y554030D01*
Y555423D01*
X704006Y556709D01*
X703021Y557694D01*
X701735Y558227D01*
D02*
G37*
G36*
X737296Y522930D02*
X735904D01*
X734617Y522397D01*
X733633Y521413D01*
X733100Y520126D01*
Y518734D01*
X733633Y517447D01*
X734617Y516463D01*
X735904Y515930D01*
X737296D01*
X738583Y516463D01*
X739567Y517447D01*
X740100Y518734D01*
Y520126D01*
X739567Y521413D01*
X738583Y522397D01*
X737296Y522930D01*
D02*
G37*
G36*
X767776Y519120D02*
X766384D01*
X765097Y518587D01*
X764113Y517603D01*
X763580Y516316D01*
Y514924D01*
X764113Y513637D01*
X765097Y512653D01*
X766384Y512120D01*
X767776D01*
X769063Y512653D01*
X770047Y513637D01*
X770580Y514924D01*
Y516316D01*
X770047Y517603D01*
X769063Y518587D01*
X767776Y519120D01*
D02*
G37*
G36*
X195596Y518200D02*
X193884D01*
X192231Y517757D01*
X190749Y516901D01*
X189539Y515691D01*
X188683Y514209D01*
X188240Y512556D01*
Y510844D01*
X188683Y509191D01*
X189539Y507709D01*
X190749Y506499D01*
X192231Y505643D01*
X193884Y505200D01*
X195596D01*
X197249Y505643D01*
X198731Y506499D01*
X199941Y507709D01*
X200797Y509191D01*
X201240Y510844D01*
Y512556D01*
X200797Y514209D01*
X199941Y515691D01*
X198731Y516901D01*
X197249Y517757D01*
X195596Y518200D01*
D02*
G37*
G36*
X102256D02*
X100544D01*
X98891Y517757D01*
X97409Y516901D01*
X96199Y515691D01*
X95343Y514209D01*
X94900Y512556D01*
Y510844D01*
X95343Y509191D01*
X96199Y507709D01*
X97409Y506499D01*
X98891Y505643D01*
X100544Y505200D01*
X102256D01*
X103909Y505643D01*
X105391Y506499D01*
X106601Y507709D01*
X107457Y509191D01*
X107900Y510844D01*
Y512556D01*
X107457Y514209D01*
X106601Y515691D01*
X105391Y516901D01*
X103909Y517757D01*
X102256Y518200D01*
D02*
G37*
G36*
X691576Y505000D02*
X690184D01*
X688897Y504467D01*
X687913Y503483D01*
X687380Y502196D01*
Y500804D01*
X687402Y500751D01*
X686430Y499779D01*
X685896Y500000D01*
X684504D01*
X683218Y499467D01*
X682233Y498483D01*
X681700Y497196D01*
Y495804D01*
X682233Y494517D01*
X683218Y493533D01*
X684504Y493000D01*
X685896D01*
X687183Y493533D01*
X688167Y494517D01*
X688700Y495804D01*
Y497196D01*
X688678Y497249D01*
X689650Y498221D01*
X690184Y498000D01*
X691576D01*
X692863Y498533D01*
X693847Y499517D01*
X694380Y500804D01*
Y502196D01*
X693847Y503483D01*
X692863Y504467D01*
X691576Y505000D01*
D02*
G37*
G36*
X488316Y505500D02*
X486604D01*
X484951Y505057D01*
X483469Y504201D01*
X482259Y502991D01*
X481403Y501509D01*
X480960Y499856D01*
Y498144D01*
X481403Y496491D01*
X482259Y495009D01*
X483469Y493799D01*
X484951Y492943D01*
X486604Y492500D01*
X488316D01*
X489969Y492943D01*
X491451Y493799D01*
X492661Y495009D01*
X493517Y496491D01*
X493960Y498144D01*
Y499856D01*
X493517Y501509D01*
X492661Y502991D01*
X491451Y504201D01*
X489969Y505057D01*
X488316Y505500D01*
D02*
G37*
G36*
X394976D02*
X393264D01*
X391611Y505057D01*
X390129Y504201D01*
X388919Y502991D01*
X388063Y501509D01*
X387620Y499856D01*
Y498144D01*
X388063Y496491D01*
X388919Y495009D01*
X390129Y493799D01*
X391611Y492943D01*
X393264Y492500D01*
X394976D01*
X396629Y492943D01*
X398111Y493799D01*
X399321Y495009D01*
X400177Y496491D01*
X400620Y498144D01*
Y499856D01*
X400177Y501509D01*
X399321Y502991D01*
X398111Y504201D01*
X396629Y505057D01*
X394976Y505500D01*
D02*
G37*
G36*
X301636D02*
X299924D01*
X298271Y505057D01*
X296789Y504201D01*
X295579Y502991D01*
X294723Y501509D01*
X294280Y499856D01*
Y498144D01*
X294723Y496491D01*
X295579Y495009D01*
X296789Y493799D01*
X298271Y492943D01*
X299924Y492500D01*
X301636D01*
X303289Y492943D01*
X304771Y493799D01*
X305981Y495009D01*
X306837Y496491D01*
X307280Y498144D01*
Y499856D01*
X306837Y501509D01*
X305981Y502991D01*
X304771Y504201D01*
X303289Y505057D01*
X301636Y505500D01*
D02*
G37*
G36*
X208296D02*
X206584D01*
X204931Y505057D01*
X203449Y504201D01*
X202239Y502991D01*
X201383Y501509D01*
X200940Y499856D01*
Y498144D01*
X201383Y496491D01*
X202239Y495009D01*
X203449Y493799D01*
X204931Y492943D01*
X206584Y492500D01*
X208296D01*
X209949Y492943D01*
X211431Y493799D01*
X212641Y495009D01*
X213497Y496491D01*
X213940Y498144D01*
Y499856D01*
X213497Y501509D01*
X212641Y502991D01*
X211431Y504201D01*
X209949Y505057D01*
X208296Y505500D01*
D02*
G37*
G36*
X114956D02*
X113244D01*
X111591Y505057D01*
X110109Y504201D01*
X108899Y502991D01*
X108043Y501509D01*
X107600Y499856D01*
Y498144D01*
X108043Y496491D01*
X108899Y495009D01*
X110109Y493799D01*
X111591Y492943D01*
X113244Y492500D01*
X114956D01*
X116609Y492943D01*
X118091Y493799D01*
X119301Y495009D01*
X120157Y496491D01*
X120600Y498144D01*
Y499856D01*
X120157Y501509D01*
X119301Y502991D01*
X118091Y504201D01*
X116609Y505057D01*
X114956Y505500D01*
D02*
G37*
G36*
X382276Y492800D02*
X380564D01*
X378911Y492357D01*
X377429Y491501D01*
X376219Y490291D01*
X375363Y488809D01*
X374920Y487156D01*
Y485444D01*
X375363Y483791D01*
X376219Y482309D01*
X377429Y481099D01*
X378911Y480243D01*
X380564Y479800D01*
X382276D01*
X383929Y480243D01*
X385411Y481099D01*
X386621Y482309D01*
X387477Y483791D01*
X387920Y485444D01*
Y487156D01*
X387477Y488809D01*
X386621Y490291D01*
X385411Y491501D01*
X383929Y492357D01*
X382276Y492800D01*
D02*
G37*
G36*
X288936D02*
X287224D01*
X285571Y492357D01*
X284089Y491501D01*
X282879Y490291D01*
X282023Y488809D01*
X281580Y487156D01*
Y485444D01*
X282023Y483791D01*
X282879Y482309D01*
X284089Y481099D01*
X285571Y480243D01*
X287224Y479800D01*
X288936D01*
X290589Y480243D01*
X292071Y481099D01*
X293281Y482309D01*
X294137Y483791D01*
X294580Y485444D01*
Y487156D01*
X294137Y488809D01*
X293281Y490291D01*
X292071Y491501D01*
X290589Y492357D01*
X288936Y492800D01*
D02*
G37*
G36*
X195596D02*
X193884D01*
X192231Y492357D01*
X190749Y491501D01*
X189539Y490291D01*
X188683Y488809D01*
X188240Y487156D01*
Y485444D01*
X188683Y483791D01*
X189539Y482309D01*
X190749Y481099D01*
X192231Y480243D01*
X193884Y479800D01*
X195596D01*
X197249Y480243D01*
X198731Y481099D01*
X199941Y482309D01*
X200797Y483791D01*
X201240Y485444D01*
Y487156D01*
X200797Y488809D01*
X199941Y490291D01*
X198731Y491501D01*
X197249Y492357D01*
X195596Y492800D01*
D02*
G37*
G36*
X102256D02*
X100544D01*
X98891Y492357D01*
X97409Y491501D01*
X96199Y490291D01*
X95343Y488809D01*
X94900Y487156D01*
Y485444D01*
X95343Y483791D01*
X96199Y482309D01*
X97409Y481099D01*
X98891Y480243D01*
X100544Y479800D01*
X102256D01*
X103909Y480243D01*
X105391Y481099D01*
X106601Y482309D01*
X107457Y483791D01*
X107900Y485444D01*
Y487156D01*
X107457Y488809D01*
X106601Y490291D01*
X105391Y491501D01*
X103909Y492357D01*
X102256Y492800D01*
D02*
G37*
G36*
X701735Y486386D02*
X700343D01*
X699056Y485853D01*
X698072Y484869D01*
X697539Y483582D01*
Y482190D01*
X698072Y480904D01*
X699056Y479919D01*
X700343Y479386D01*
X701735D01*
X703021Y479919D01*
X704006Y480904D01*
X704539Y482190D01*
Y483582D01*
X704006Y484869D01*
X703021Y485853D01*
X701735Y486386D01*
D02*
G37*
G36*
X710626Y465780D02*
X709234D01*
X707947Y465247D01*
X706963Y464263D01*
X706430Y462976D01*
Y461584D01*
X706963Y460297D01*
X707947Y459313D01*
X709234Y458780D01*
X710626D01*
X711913Y459313D01*
X712897Y460297D01*
X713430Y461584D01*
Y462976D01*
X712897Y464263D01*
X711913Y465247D01*
X710626Y465780D01*
D02*
G37*
G36*
X195596Y446200D02*
X193884D01*
X192231Y445757D01*
X190749Y444901D01*
X189539Y443691D01*
X188683Y442209D01*
X188240Y440556D01*
Y438844D01*
X188683Y437191D01*
X189539Y435709D01*
X190749Y434499D01*
X192231Y433643D01*
X193884Y433200D01*
X195596D01*
X197249Y433643D01*
X198731Y434499D01*
X199941Y435709D01*
X200797Y437191D01*
X201240Y438844D01*
Y440556D01*
X200797Y442209D01*
X199941Y443691D01*
X198731Y444901D01*
X197249Y445757D01*
X195596Y446200D01*
D02*
G37*
G36*
X102256D02*
X100544D01*
X98891Y445757D01*
X97409Y444901D01*
X96199Y443691D01*
X95343Y442209D01*
X94900Y440556D01*
Y438844D01*
X95343Y437191D01*
X96199Y435709D01*
X97409Y434499D01*
X98891Y433643D01*
X100544Y433200D01*
X102256D01*
X103909Y433643D01*
X105391Y434499D01*
X106601Y435709D01*
X107457Y437191D01*
X107900Y438844D01*
Y440556D01*
X107457Y442209D01*
X106601Y443691D01*
X105391Y444901D01*
X103909Y445757D01*
X102256Y446200D01*
D02*
G37*
G36*
X691576Y433000D02*
X690184D01*
X688897Y432467D01*
X687913Y431483D01*
X687380Y430196D01*
Y428804D01*
X687402Y428751D01*
X686430Y427779D01*
X685896Y428000D01*
X684504D01*
X683218Y427467D01*
X682233Y426483D01*
X681700Y425196D01*
Y423804D01*
X682233Y422517D01*
X683218Y421533D01*
X684504Y421000D01*
X685896D01*
X687183Y421533D01*
X688167Y422517D01*
X688700Y423804D01*
Y425196D01*
X688678Y425249D01*
X689650Y426221D01*
X690184Y426000D01*
X691576D01*
X692863Y426533D01*
X693847Y427517D01*
X694380Y428804D01*
Y430196D01*
X693847Y431483D01*
X692863Y432467D01*
X691576Y433000D01*
D02*
G37*
G36*
X488316Y433500D02*
X486604D01*
X484951Y433057D01*
X483469Y432201D01*
X482259Y430991D01*
X481403Y429509D01*
X480960Y427856D01*
Y426144D01*
X481403Y424491D01*
X482259Y423009D01*
X483469Y421799D01*
X484951Y420943D01*
X486604Y420500D01*
X488316D01*
X489969Y420943D01*
X491451Y421799D01*
X492661Y423009D01*
X493517Y424491D01*
X493960Y426144D01*
Y427856D01*
X493517Y429509D01*
X492661Y430991D01*
X491451Y432201D01*
X489969Y433057D01*
X488316Y433500D01*
D02*
G37*
G36*
X394976D02*
X393264D01*
X391611Y433057D01*
X390129Y432201D01*
X388919Y430991D01*
X388063Y429509D01*
X387620Y427856D01*
Y426144D01*
X388063Y424491D01*
X388919Y423009D01*
X390129Y421799D01*
X391611Y420943D01*
X393264Y420500D01*
X394976D01*
X396629Y420943D01*
X398111Y421799D01*
X399321Y423009D01*
X400177Y424491D01*
X400620Y426144D01*
Y427856D01*
X400177Y429509D01*
X399321Y430991D01*
X398111Y432201D01*
X396629Y433057D01*
X394976Y433500D01*
D02*
G37*
G36*
X301636D02*
X299924D01*
X298271Y433057D01*
X296789Y432201D01*
X295579Y430991D01*
X294723Y429509D01*
X294280Y427856D01*
Y426144D01*
X294723Y424491D01*
X295579Y423009D01*
X296789Y421799D01*
X298271Y420943D01*
X299924Y420500D01*
X301636D01*
X303289Y420943D01*
X304771Y421799D01*
X305981Y423009D01*
X306837Y424491D01*
X307280Y426144D01*
Y427856D01*
X306837Y429509D01*
X305981Y430991D01*
X304771Y432201D01*
X303289Y433057D01*
X301636Y433500D01*
D02*
G37*
G36*
X208296D02*
X206584D01*
X204931Y433057D01*
X203449Y432201D01*
X202239Y430991D01*
X201383Y429509D01*
X200940Y427856D01*
Y426144D01*
X201383Y424491D01*
X202239Y423009D01*
X203449Y421799D01*
X204931Y420943D01*
X206584Y420500D01*
X208296D01*
X209949Y420943D01*
X211431Y421799D01*
X212641Y423009D01*
X213497Y424491D01*
X213940Y426144D01*
Y427856D01*
X213497Y429509D01*
X212641Y430991D01*
X211431Y432201D01*
X209949Y433057D01*
X208296Y433500D01*
D02*
G37*
G36*
X114956D02*
X113244D01*
X111591Y433057D01*
X110109Y432201D01*
X108899Y430991D01*
X108043Y429509D01*
X107600Y427856D01*
Y426144D01*
X108043Y424491D01*
X108899Y423009D01*
X110109Y421799D01*
X111591Y420943D01*
X113244Y420500D01*
X114956D01*
X116609Y420943D01*
X118091Y421799D01*
X119301Y423009D01*
X120157Y424491D01*
X120600Y426144D01*
Y427856D01*
X120157Y429509D01*
X119301Y430991D01*
X118091Y432201D01*
X116609Y433057D01*
X114956Y433500D01*
D02*
G37*
G36*
X382276Y420800D02*
X380564D01*
X378911Y420357D01*
X377429Y419501D01*
X376219Y418291D01*
X375363Y416809D01*
X374920Y415156D01*
Y413444D01*
X375363Y411791D01*
X376219Y410309D01*
X377429Y409099D01*
X378911Y408243D01*
X380564Y407800D01*
X382276D01*
X383929Y408243D01*
X385411Y409099D01*
X386621Y410309D01*
X387477Y411791D01*
X387920Y413444D01*
Y415156D01*
X387477Y416809D01*
X386621Y418291D01*
X385411Y419501D01*
X383929Y420357D01*
X382276Y420800D01*
D02*
G37*
G36*
X288936D02*
X287224D01*
X285571Y420357D01*
X284089Y419501D01*
X282879Y418291D01*
X282023Y416809D01*
X281580Y415156D01*
Y413444D01*
X282023Y411791D01*
X282879Y410309D01*
X284089Y409099D01*
X285571Y408243D01*
X287224Y407800D01*
X288936D01*
X290589Y408243D01*
X292071Y409099D01*
X293281Y410309D01*
X294137Y411791D01*
X294580Y413444D01*
Y415156D01*
X294137Y416809D01*
X293281Y418291D01*
X292071Y419501D01*
X290589Y420357D01*
X288936Y420800D01*
D02*
G37*
G36*
X195596D02*
X193884D01*
X192231Y420357D01*
X190749Y419501D01*
X189539Y418291D01*
X188683Y416809D01*
X188240Y415156D01*
Y413444D01*
X188683Y411791D01*
X189539Y410309D01*
X190749Y409099D01*
X192231Y408243D01*
X193884Y407800D01*
X195596D01*
X197249Y408243D01*
X198731Y409099D01*
X199941Y410309D01*
X200797Y411791D01*
X201240Y413444D01*
Y415156D01*
X200797Y416809D01*
X199941Y418291D01*
X198731Y419501D01*
X197249Y420357D01*
X195596Y420800D01*
D02*
G37*
G36*
X102256D02*
X100544D01*
X98891Y420357D01*
X97409Y419501D01*
X96199Y418291D01*
X95343Y416809D01*
X94900Y415156D01*
Y413444D01*
X95343Y411791D01*
X96199Y410309D01*
X97409Y409099D01*
X98891Y408243D01*
X100544Y407800D01*
X102256D01*
X103909Y408243D01*
X105391Y409099D01*
X106601Y410309D01*
X107457Y411791D01*
X107900Y413444D01*
Y415156D01*
X107457Y416809D01*
X106601Y418291D01*
X105391Y419501D01*
X103909Y420357D01*
X102256Y420800D01*
D02*
G37*
G36*
X701735Y414546D02*
X700343D01*
X699056Y414013D01*
X698072Y413028D01*
X697539Y411742D01*
Y410350D01*
X698072Y409063D01*
X699056Y408079D01*
X700343Y407546D01*
X701735D01*
X703021Y408079D01*
X704006Y409063D01*
X704539Y410350D01*
Y411742D01*
X704006Y413028D01*
X703021Y414013D01*
X701735Y414546D01*
D02*
G37*
G36*
X737296Y400692D02*
X735904D01*
X734617Y400160D01*
X733633Y399175D01*
X733100Y397889D01*
Y396496D01*
X733633Y395210D01*
X734617Y394225D01*
X735904Y393693D01*
X737296D01*
X738583Y394225D01*
X739567Y395210D01*
X740100Y396496D01*
Y397889D01*
X739567Y399175D01*
X738583Y400160D01*
X737296Y400692D01*
D02*
G37*
G36*
X195596Y374200D02*
X193884D01*
X192231Y373757D01*
X190749Y372901D01*
X189539Y371691D01*
X188683Y370209D01*
X188240Y368556D01*
Y366844D01*
X188683Y365191D01*
X189539Y363709D01*
X190749Y362499D01*
X192231Y361643D01*
X193884Y361200D01*
X195596D01*
X197249Y361643D01*
X198731Y362499D01*
X199941Y363709D01*
X200797Y365191D01*
X201240Y366844D01*
Y368556D01*
X200797Y370209D01*
X199941Y371691D01*
X198731Y372901D01*
X197249Y373757D01*
X195596Y374200D01*
D02*
G37*
G36*
X102256D02*
X100544D01*
X98891Y373757D01*
X97409Y372901D01*
X96199Y371691D01*
X95343Y370209D01*
X94900Y368556D01*
Y366844D01*
X95343Y365191D01*
X96199Y363709D01*
X97409Y362499D01*
X98891Y361643D01*
X100544Y361200D01*
X102256D01*
X103909Y361643D01*
X105391Y362499D01*
X106601Y363709D01*
X107457Y365191D01*
X107900Y366844D01*
Y368556D01*
X107457Y370209D01*
X106601Y371691D01*
X105391Y372901D01*
X103909Y373757D01*
X102256Y374200D01*
D02*
G37*
G36*
X488316Y361500D02*
X486604D01*
X484951Y361057D01*
X483469Y360201D01*
X482259Y358991D01*
X481403Y357509D01*
X480960Y355856D01*
Y354144D01*
X481403Y352491D01*
X482259Y351009D01*
X483469Y349799D01*
X484951Y348943D01*
X486604Y348500D01*
X488316D01*
X489969Y348943D01*
X491451Y349799D01*
X492661Y351009D01*
X493517Y352491D01*
X493960Y354144D01*
Y355856D01*
X493517Y357509D01*
X492661Y358991D01*
X491451Y360201D01*
X489969Y361057D01*
X488316Y361500D01*
D02*
G37*
G36*
X394976D02*
X393264D01*
X391611Y361057D01*
X390129Y360201D01*
X388919Y358991D01*
X388063Y357509D01*
X387620Y355856D01*
Y354144D01*
X388063Y352491D01*
X388919Y351009D01*
X390129Y349799D01*
X391611Y348943D01*
X393264Y348500D01*
X394976D01*
X396629Y348943D01*
X398111Y349799D01*
X399321Y351009D01*
X400177Y352491D01*
X400620Y354144D01*
Y355856D01*
X400177Y357509D01*
X399321Y358991D01*
X398111Y360201D01*
X396629Y361057D01*
X394976Y361500D01*
D02*
G37*
G36*
X301636D02*
X299924D01*
X298271Y361057D01*
X296789Y360201D01*
X295579Y358991D01*
X294723Y357509D01*
X294280Y355856D01*
Y354144D01*
X294723Y352491D01*
X295579Y351009D01*
X296789Y349799D01*
X298271Y348943D01*
X299924Y348500D01*
X301636D01*
X303289Y348943D01*
X304771Y349799D01*
X305981Y351009D01*
X306837Y352491D01*
X307280Y354144D01*
Y355856D01*
X306837Y357509D01*
X305981Y358991D01*
X304771Y360201D01*
X303289Y361057D01*
X301636Y361500D01*
D02*
G37*
G36*
X208296D02*
X206584D01*
X204931Y361057D01*
X203449Y360201D01*
X202239Y358991D01*
X201383Y357509D01*
X200940Y355856D01*
Y354144D01*
X201383Y352491D01*
X202239Y351009D01*
X203449Y349799D01*
X204931Y348943D01*
X206584Y348500D01*
X208296D01*
X209949Y348943D01*
X211431Y349799D01*
X212641Y351009D01*
X213497Y352491D01*
X213940Y354144D01*
Y355856D01*
X213497Y357509D01*
X212641Y358991D01*
X211431Y360201D01*
X209949Y361057D01*
X208296Y361500D01*
D02*
G37*
G36*
X114956D02*
X113244D01*
X111591Y361057D01*
X110109Y360201D01*
X108899Y358991D01*
X108043Y357509D01*
X107600Y355856D01*
Y354144D01*
X108043Y352491D01*
X108899Y351009D01*
X110109Y349799D01*
X111591Y348943D01*
X113244Y348500D01*
X114956D01*
X116609Y348943D01*
X118091Y349799D01*
X119301Y351009D01*
X120157Y352491D01*
X120600Y354144D01*
Y355856D01*
X120157Y357509D01*
X119301Y358991D01*
X118091Y360201D01*
X116609Y361057D01*
X114956Y361500D01*
D02*
G37*
G36*
X382276Y348800D02*
X380564D01*
X378911Y348357D01*
X377429Y347501D01*
X376219Y346291D01*
X375363Y344809D01*
X374920Y343156D01*
Y341444D01*
X375363Y339791D01*
X376219Y338309D01*
X377429Y337099D01*
X378911Y336243D01*
X380564Y335800D01*
X382276D01*
X383929Y336243D01*
X385411Y337099D01*
X386621Y338309D01*
X387477Y339791D01*
X387920Y341444D01*
Y343156D01*
X387477Y344809D01*
X386621Y346291D01*
X385411Y347501D01*
X383929Y348357D01*
X382276Y348800D01*
D02*
G37*
G36*
X288936D02*
X287224D01*
X285571Y348357D01*
X284089Y347501D01*
X282879Y346291D01*
X282023Y344809D01*
X281580Y343156D01*
Y341444D01*
X282023Y339791D01*
X282879Y338309D01*
X284089Y337099D01*
X285571Y336243D01*
X287224Y335800D01*
X288936D01*
X290589Y336243D01*
X292071Y337099D01*
X293281Y338309D01*
X294137Y339791D01*
X294580Y341444D01*
Y343156D01*
X294137Y344809D01*
X293281Y346291D01*
X292071Y347501D01*
X290589Y348357D01*
X288936Y348800D01*
D02*
G37*
G36*
X195596D02*
X193884D01*
X192231Y348357D01*
X190749Y347501D01*
X189539Y346291D01*
X188683Y344809D01*
X188240Y343156D01*
Y341444D01*
X188683Y339791D01*
X189539Y338309D01*
X190749Y337099D01*
X192231Y336243D01*
X193884Y335800D01*
X195596D01*
X197249Y336243D01*
X198731Y337099D01*
X199941Y338309D01*
X200797Y339791D01*
X201240Y341444D01*
Y343156D01*
X200797Y344809D01*
X199941Y346291D01*
X198731Y347501D01*
X197249Y348357D01*
X195596Y348800D01*
D02*
G37*
G36*
X102256D02*
X100544D01*
X98891Y348357D01*
X97409Y347501D01*
X96199Y346291D01*
X95343Y344809D01*
X94900Y343156D01*
Y341444D01*
X95343Y339791D01*
X96199Y338309D01*
X97409Y337099D01*
X98891Y336243D01*
X100544Y335800D01*
X102256D01*
X103909Y336243D01*
X105391Y337099D01*
X106601Y338309D01*
X107457Y339791D01*
X107900Y341444D01*
Y343156D01*
X107457Y344809D01*
X106601Y346291D01*
X105391Y347501D01*
X103909Y348357D01*
X102256Y348800D01*
D02*
G37*
G36*
X701735Y342705D02*
X700343D01*
X699056Y342173D01*
X698072Y341188D01*
X697539Y339902D01*
Y338509D01*
X698072Y337223D01*
X699056Y336238D01*
X700343Y335705D01*
X701735D01*
X703021Y336238D01*
X704006Y337223D01*
X704539Y338509D01*
Y339902D01*
X704006Y341188D01*
X703021Y342173D01*
X701735Y342705D01*
D02*
G37*
G36*
X712470Y379489D02*
X712125Y379420D01*
X711774D01*
X711449Y379286D01*
X711104Y379217D01*
X710812Y379022D01*
X710487Y378887D01*
X710239Y378639D01*
X709947Y378443D01*
X709751Y378151D01*
X709503Y377903D01*
X709368Y377578D01*
X709173Y377286D01*
X709105Y376941D01*
X708970Y376616D01*
Y376265D01*
X708901Y375920D01*
Y298450D01*
X708970Y298105D01*
Y297754D01*
X709105Y297429D01*
X709173Y297084D01*
X709368Y296792D01*
X709503Y296467D01*
X709751Y296219D01*
X709947Y295927D01*
X710239Y295731D01*
X710487Y295483D01*
X710812Y295348D01*
X711104Y295153D01*
X711449Y295084D01*
X711774Y294950D01*
X712125D01*
X712470Y294881D01*
X712815Y294950D01*
X713166D01*
X713491Y295084D01*
X713836Y295153D01*
X714128Y295348D01*
X714453Y295483D01*
X714701Y295731D01*
X714993Y295927D01*
X715189Y296219D01*
X715437Y296467D01*
X715572Y296792D01*
X715767Y297084D01*
X715835Y297429D01*
X715970Y297754D01*
Y298105D01*
X716039Y298450D01*
Y317483D01*
X717309Y318148D01*
X718125Y317810D01*
X719517D01*
X720803Y318343D01*
X721788Y319327D01*
X722321Y320614D01*
Y322006D01*
X721788Y323293D01*
X720803Y324277D01*
X719517Y324810D01*
X718125D01*
X717309Y324472D01*
X716039Y325137D01*
Y375920D01*
X715970Y376265D01*
Y376616D01*
X715835Y376941D01*
X715767Y377286D01*
X715572Y377578D01*
X715437Y377903D01*
X715189Y378151D01*
X714993Y378443D01*
X714701Y378639D01*
X714453Y378887D01*
X714128Y379022D01*
X713836Y379217D01*
X713491Y379286D01*
X713166Y379420D01*
X712815D01*
X712470Y379489D01*
D02*
G37*
G36*
X320250Y296656D02*
X318858D01*
X317571Y296123D01*
X316587Y295138D01*
X316054Y293852D01*
Y292459D01*
X316587Y291173D01*
X317571Y290188D01*
X318858Y289655D01*
X320250D01*
X321537Y290188D01*
X322521Y291173D01*
X323054Y292459D01*
Y293852D01*
X322521Y295138D01*
X321537Y296123D01*
X320250Y296656D01*
D02*
G37*
G36*
X301686Y283850D02*
X300294D01*
X299008Y283318D01*
X298023Y282333D01*
X297490Y281047D01*
Y279654D01*
X298023Y278368D01*
X299008Y277383D01*
X300294Y276850D01*
X301686D01*
X302973Y277383D01*
X303957Y278368D01*
X304490Y279654D01*
Y281047D01*
X303957Y282333D01*
X302973Y283318D01*
X301686Y283850D01*
D02*
G37*
G36*
X291126D02*
X289734D01*
X288448Y283318D01*
X287463Y282333D01*
X286930Y281047D01*
Y279654D01*
X287463Y278368D01*
X288448Y277383D01*
X289734Y276850D01*
X291126D01*
X292413Y277383D01*
X293397Y278368D01*
X293930Y279654D01*
Y281047D01*
X293397Y282333D01*
X292413Y283318D01*
X291126Y283850D01*
D02*
G37*
G36*
X767280Y454419D02*
X766935Y454350D01*
X766584D01*
X766259Y454216D01*
X765914Y454147D01*
X765622Y453952D01*
X765297Y453817D01*
X765049Y453569D01*
X764757Y453373D01*
X764561Y453081D01*
X764313Y452833D01*
X764178Y452508D01*
X763983Y452216D01*
X763914Y451871D01*
X763780Y451546D01*
Y451195D01*
X763711Y450850D01*
Y288090D01*
X763983Y286724D01*
X764757Y285567D01*
X772401Y277922D01*
Y270937D01*
X771131Y270596D01*
X770302Y272033D01*
X768533Y273802D01*
X766367Y275053D01*
X763951Y275700D01*
X761449D01*
X759033Y275053D01*
X756867Y273802D01*
X755161Y272096D01*
X755149Y272095D01*
X754805Y272123D01*
X753853Y272416D01*
X753668Y273344D01*
X752895Y274502D01*
X745473Y281923D01*
X744316Y282697D01*
X742950Y282969D01*
X726240D01*
X724874Y282697D01*
X723717Y281923D01*
X716297Y274503D01*
X715523Y273346D01*
X715251Y271980D01*
Y248920D01*
X715320Y248575D01*
Y248224D01*
X715454Y247899D01*
X715523Y247554D01*
X715718Y247262D01*
X715853Y246937D01*
X716101Y246689D01*
X716297Y246397D01*
X716589Y246201D01*
X716837Y245953D01*
X717162Y245818D01*
X717454Y245623D01*
X717799Y245555D01*
X718124Y245420D01*
X718475D01*
X718820Y245351D01*
X719165Y245420D01*
X719516D01*
X719841Y245555D01*
X720186Y245623D01*
X720478Y245818D01*
X720803Y245953D01*
X721051Y246201D01*
X721343Y246397D01*
X721539Y246689D01*
X721787Y246937D01*
X721922Y247262D01*
X722117Y247554D01*
X722186Y247899D01*
X722320Y248224D01*
Y248575D01*
X722389Y248920D01*
Y270502D01*
X727718Y275831D01*
X732442D01*
X732783Y274561D01*
X731467Y273802D01*
X729698Y272033D01*
X728447Y269867D01*
X727800Y267451D01*
Y264949D01*
X728447Y262533D01*
X729698Y260367D01*
X731467Y258598D01*
X733633Y257347D01*
X736049Y256700D01*
X738551D01*
X740967Y257347D01*
X743133Y258598D01*
X744902Y260367D01*
X745533Y261460D01*
X746803Y261119D01*
Y253129D01*
X747074Y251763D01*
X747848Y250605D01*
X753898Y244555D01*
X753847Y244467D01*
X753200Y242051D01*
Y239549D01*
X753847Y237133D01*
X755098Y234967D01*
X756867Y233198D01*
X759033Y231947D01*
X761449Y231300D01*
X763951D01*
X766367Y231947D01*
X768533Y233198D01*
X770302Y234967D01*
X771131Y236404D01*
X772401Y236063D01*
Y220137D01*
X771131Y219796D01*
X770302Y221233D01*
X768533Y223002D01*
X766367Y224253D01*
X763951Y224900D01*
X761449D01*
X759033Y224253D01*
X756867Y223002D01*
X755098Y221233D01*
X753847Y219067D01*
X753200Y216651D01*
Y214149D01*
X753847Y211733D01*
X755098Y209567D01*
X756867Y207798D01*
X757200Y207606D01*
X756859Y206336D01*
X750068D01*
X748702Y206064D01*
X747544Y205291D01*
X741055Y198802D01*
X740967Y198853D01*
X738551Y199500D01*
X736049D01*
X733633Y198853D01*
X731467Y197602D01*
X729698Y195833D01*
X728447Y193667D01*
X727800Y191251D01*
Y188749D01*
X728447Y186333D01*
X729698Y184167D01*
X731467Y182398D01*
X731867Y182167D01*
X731527Y180897D01*
X704260D01*
X694449Y190708D01*
Y357500D01*
X694380Y357845D01*
Y358196D01*
X694246Y358521D01*
X694177Y358866D01*
X693982Y359158D01*
X693847Y359483D01*
X693599Y359731D01*
X693403Y360023D01*
X693111Y360219D01*
X692863Y360467D01*
X692538Y360602D01*
X692246Y360797D01*
X691901Y360866D01*
X691576Y361000D01*
X691225D01*
X690880Y361069D01*
X690535Y361000D01*
X690184D01*
X689859Y360866D01*
X689514Y360797D01*
X689222Y360602D01*
X688897Y360467D01*
X688649Y360219D01*
X688357Y360023D01*
X688161Y359731D01*
X687913Y359483D01*
X687778Y359158D01*
X687583Y358866D01*
X687514Y358521D01*
X687380Y358196D01*
Y357845D01*
X687311Y357500D01*
Y356826D01*
X687120Y356561D01*
X686596Y356156D01*
X686041Y355940D01*
X685896Y356000D01*
X685545D01*
X685200Y356069D01*
X684855Y356000D01*
X684504D01*
X684179Y355866D01*
X683835Y355797D01*
X683542Y355602D01*
X683218Y355467D01*
X682969Y355219D01*
X682677Y355023D01*
X682482Y354731D01*
X682233Y354483D01*
X682098Y354158D01*
X681903Y353866D01*
X681835Y353521D01*
X681700Y353196D01*
Y352845D01*
X681632Y352500D01*
Y276059D01*
X681407Y275788D01*
X680726Y275321D01*
X680362Y275191D01*
X680146Y275280D01*
X679795D01*
X679450Y275349D01*
X679105Y275280D01*
X678754D01*
X678429Y275145D01*
X678084Y275077D01*
X677792Y274882D01*
X677467Y274747D01*
X677219Y274499D01*
X676927Y274303D01*
X676731Y274011D01*
X676483Y273763D01*
X676348Y273438D01*
X676153Y273146D01*
X676085Y272801D01*
X675950Y272476D01*
Y272125D01*
X675881Y271780D01*
Y248920D01*
X675950Y248575D01*
Y248224D01*
X676085Y247899D01*
X676153Y247554D01*
X676348Y247262D01*
X676483Y246937D01*
X676731Y246689D01*
X676927Y246397D01*
X677219Y246201D01*
X677467Y245953D01*
X677792Y245818D01*
X678084Y245623D01*
X678429Y245555D01*
X678754Y245420D01*
X679105D01*
X679450Y245351D01*
X679795Y245420D01*
X680146D01*
X680362Y245509D01*
X680726Y245379D01*
X681407Y244912D01*
X681632Y244641D01*
Y179670D01*
X681903Y178304D01*
X682677Y177146D01*
X697747Y162077D01*
X698904Y161303D01*
X700270Y161031D01*
X728421D01*
X728447Y160933D01*
X729698Y158767D01*
X731467Y156998D01*
X733633Y155747D01*
X736049Y155100D01*
X738551D01*
X740967Y155747D01*
X743133Y156998D01*
X744902Y158767D01*
X746153Y160933D01*
X746800Y163349D01*
Y165851D01*
X746153Y168267D01*
X744902Y170433D01*
X743133Y172202D01*
X742634Y172490D01*
X742975Y173760D01*
X748493D01*
X753898Y168355D01*
X753847Y168267D01*
X753200Y165851D01*
Y163349D01*
X753847Y160933D01*
X755098Y158767D01*
X756867Y156998D01*
X759033Y155747D01*
X761449Y155100D01*
X763951D01*
X766367Y155747D01*
X768533Y156998D01*
X770302Y158767D01*
X771553Y160933D01*
X772200Y163349D01*
Y165851D01*
X771553Y168267D01*
X770302Y170433D01*
X768533Y172202D01*
X766367Y173453D01*
X763951Y174100D01*
X761449D01*
X759033Y173453D01*
X758945Y173402D01*
X752495Y179852D01*
X751337Y180625D01*
X749972Y180897D01*
X743073D01*
X742733Y182167D01*
X743133Y182398D01*
X744902Y184167D01*
X746153Y186333D01*
X746800Y188749D01*
Y191251D01*
X746153Y193667D01*
X746102Y193755D01*
X751546Y199199D01*
X757093D01*
X757433Y197929D01*
X756867Y197602D01*
X755098Y195833D01*
X753847Y193667D01*
X753200Y191251D01*
Y188749D01*
X753847Y186333D01*
X755098Y184167D01*
X756867Y182398D01*
X759033Y181147D01*
X761449Y180500D01*
X763951D01*
X766367Y181147D01*
X768533Y182398D01*
X770302Y184167D01*
X771553Y186333D01*
X772200Y188749D01*
Y191251D01*
X771553Y193667D01*
X770302Y195833D01*
X768533Y197602D01*
X767967Y197929D01*
X768307Y199199D01*
X769187D01*
X770553Y199471D01*
X771711Y200244D01*
X778493Y207027D01*
X779267Y208184D01*
X779539Y209550D01*
Y279400D01*
X779267Y280766D01*
X778493Y281923D01*
X770849Y289568D01*
Y450850D01*
X770780Y451195D01*
Y451546D01*
X770646Y451871D01*
X770577Y452216D01*
X770382Y452508D01*
X770247Y452833D01*
X769999Y453081D01*
X769803Y453373D01*
X769511Y453569D01*
X769263Y453817D01*
X768938Y453952D01*
X768646Y454147D01*
X768301Y454216D01*
X767976Y454350D01*
X767625D01*
X767280Y454419D01*
D02*
G37*
G36*
X642046Y275480D02*
X640654D01*
X639367Y274947D01*
X638383Y273963D01*
X637850Y272676D01*
Y271284D01*
X638383Y269997D01*
X639367Y269013D01*
X640654Y268480D01*
X642046D01*
X643333Y269013D01*
X644317Y269997D01*
X644850Y271284D01*
Y272676D01*
X644317Y273963D01*
X643333Y274947D01*
X642046Y275480D01*
D02*
G37*
G36*
X518856Y265270D02*
X517464D01*
X516177Y264737D01*
X515193Y263753D01*
X514660Y262466D01*
Y261074D01*
X515193Y259787D01*
X516177Y258803D01*
X517464Y258270D01*
X518856D01*
X520143Y258803D01*
X521127Y259787D01*
X521660Y261074D01*
Y262466D01*
X521127Y263753D01*
X520143Y264737D01*
X518856Y265270D01*
D02*
G37*
G36*
X617016Y265120D02*
X615624D01*
X614338Y264587D01*
X613353Y263603D01*
X612820Y262316D01*
Y260924D01*
X613353Y259637D01*
X614338Y258653D01*
X615624Y258120D01*
X617016D01*
X618303Y258653D01*
X619287Y259637D01*
X619820Y260924D01*
Y262316D01*
X619287Y263603D01*
X618303Y264587D01*
X617016Y265120D01*
D02*
G37*
G36*
X449270Y285509D02*
X448925Y285440D01*
X448574D01*
X448249Y285306D01*
X447904Y285237D01*
X447612Y285042D01*
X447287Y284907D01*
X447039Y284659D01*
X446747Y284463D01*
X446551Y284171D01*
X446303Y283923D01*
X446168Y283598D01*
X445973Y283306D01*
X445905Y282961D01*
X445770Y282636D01*
Y282285D01*
X445701Y281940D01*
Y256850D01*
Y249601D01*
X442033Y245932D01*
X441117Y246787D01*
X441252Y247112D01*
X441447Y247404D01*
X441516Y247749D01*
X441650Y248074D01*
Y248425D01*
X441719Y248770D01*
X441650Y249115D01*
Y249466D01*
X441516Y249791D01*
X441447Y250136D01*
X441252Y250428D01*
X441117Y250753D01*
X440869Y251001D01*
X440673Y251293D01*
X439573Y252394D01*
X438415Y253167D01*
X437049Y253439D01*
X321310D01*
X320965Y253370D01*
X320614D01*
X320289Y253236D01*
X319944Y253167D01*
X319652Y252972D01*
X319328Y252838D01*
X319079Y252589D01*
X318787Y252394D01*
X318591Y252102D01*
X318343Y251853D01*
X318209Y251528D01*
X318013Y251236D01*
X317945Y250891D01*
X317810Y250567D01*
Y250215D01*
X317742Y249870D01*
X317810Y249526D01*
Y249174D01*
X317945Y248850D01*
X318013Y248505D01*
X318209Y248213D01*
X318343Y247888D01*
X318591Y247639D01*
X318787Y247347D01*
X319079Y247152D01*
X319328Y246903D01*
X319652Y246769D01*
X319944Y246574D01*
X320289Y246505D01*
X320614Y246371D01*
X320965D01*
X321310Y246302D01*
X361932D01*
X362140Y245910D01*
X362322Y245032D01*
X361523Y244233D01*
X360990Y242947D01*
Y241554D01*
X361523Y240268D01*
X362508Y239283D01*
X363794Y238750D01*
X365186D01*
X366473Y239283D01*
X367457Y240268D01*
X367990Y241554D01*
Y242947D01*
X367457Y244233D01*
X366659Y245032D01*
X366840Y245910D01*
X367048Y246302D01*
X435571D01*
X435627Y246247D01*
X435919Y246051D01*
X436167Y245803D01*
X436492Y245668D01*
X436784Y245473D01*
X437129Y245404D01*
X437454Y245270D01*
X437805D01*
X438150Y245201D01*
X438495Y245270D01*
X438846D01*
X439171Y245404D01*
X439516Y245473D01*
X439808Y245668D01*
X440133Y245803D01*
X440988Y244887D01*
X438429Y242329D01*
X421069D01*
X419703Y242057D01*
X418545Y241283D01*
X402607Y225345D01*
X401833Y224187D01*
X401561Y222821D01*
Y109428D01*
X375392Y83259D01*
X346710D01*
X346365Y83190D01*
X346014D01*
X345689Y83056D01*
X345345Y82987D01*
X345052Y82792D01*
X344728Y82658D01*
X344479Y82409D01*
X344187Y82214D01*
X343992Y81922D01*
X343743Y81673D01*
X343609Y81348D01*
X343413Y81056D01*
X343345Y80711D01*
X343210Y80387D01*
Y80035D01*
X343142Y79690D01*
X343210Y79346D01*
Y78994D01*
X343345Y78670D01*
X343413Y78325D01*
X343609Y78033D01*
X343743Y77708D01*
X343992Y77459D01*
X344187Y77167D01*
X344479Y76972D01*
X344728Y76723D01*
X345052Y76589D01*
X345345Y76394D01*
X345689Y76325D01*
X346014Y76191D01*
X346365D01*
X346710Y76122D01*
X376870D01*
X378236Y76394D01*
X379394Y77167D01*
X407653Y105427D01*
X408427Y106584D01*
X408699Y107950D01*
Y221343D01*
X422547Y235191D01*
X439908D01*
X441273Y235463D01*
X442431Y236237D01*
X451793Y245599D01*
X452567Y246757D01*
X452839Y248122D01*
Y256850D01*
Y281940D01*
X452770Y282285D01*
Y282636D01*
X452635Y282961D01*
X452567Y283306D01*
X452372Y283598D01*
X452237Y283923D01*
X451989Y284171D01*
X451793Y284463D01*
X451501Y284659D01*
X451253Y284907D01*
X450928Y285042D01*
X450636Y285237D01*
X450291Y285306D01*
X449966Y285440D01*
X449615D01*
X449270Y285509D01*
D02*
G37*
G36*
X517736Y252270D02*
X516344D01*
X515057Y251737D01*
X514073Y250753D01*
X513540Y249466D01*
Y248074D01*
X514073Y246787D01*
X515057Y245803D01*
X516344Y245270D01*
X517736D01*
X519023Y245803D01*
X520007Y246787D01*
X520540Y248074D01*
Y249466D01*
X520007Y250753D01*
X519023Y251737D01*
X517736Y252270D01*
D02*
G37*
G36*
X626806Y239720D02*
X625414D01*
X624127Y239187D01*
X623143Y238203D01*
X622610Y236916D01*
Y235524D01*
X623143Y234237D01*
X624127Y233253D01*
X625414Y232720D01*
X626806D01*
X628093Y233253D01*
X629077Y234237D01*
X629610Y235524D01*
Y236916D01*
X629077Y238203D01*
X628093Y239187D01*
X626806Y239720D01*
D02*
G37*
G36*
X589976D02*
X588584D01*
X587297Y239187D01*
X586313Y238203D01*
X585780Y236916D01*
Y235524D01*
X586313Y234237D01*
X587297Y233253D01*
X588584Y232720D01*
X589976D01*
X591263Y233253D01*
X592247Y234237D01*
X592780Y235524D01*
Y236916D01*
X592247Y238203D01*
X591263Y239187D01*
X589976Y239720D01*
D02*
G37*
G36*
X738551Y250300D02*
X736049D01*
X733633Y249653D01*
X731467Y248402D01*
X729698Y246633D01*
X728447Y244467D01*
X727800Y242051D01*
Y239549D01*
X728447Y237133D01*
X729698Y234967D01*
X731467Y233198D01*
X733633Y231947D01*
X736049Y231300D01*
X738551D01*
X740967Y231947D01*
X743133Y233198D01*
X744902Y234967D01*
X746153Y237133D01*
X746800Y239549D01*
Y242051D01*
X746153Y244467D01*
X744902Y246633D01*
X743133Y248402D01*
X740967Y249653D01*
X738551Y250300D01*
D02*
G37*
G36*
X449966Y234695D02*
X448574D01*
X447287Y234162D01*
X446303Y233178D01*
X445770Y231891D01*
Y230499D01*
X446303Y229212D01*
X447287Y228228D01*
X448574Y227695D01*
X449966D01*
X451253Y228228D01*
X452237Y229212D01*
X452770Y230499D01*
Y231891D01*
X452237Y233178D01*
X451253Y234162D01*
X449966Y234695D01*
D02*
G37*
G36*
X738551Y224900D02*
X736049D01*
X733633Y224253D01*
X731467Y223002D01*
X729698Y221233D01*
X728447Y219067D01*
X727800Y216651D01*
Y214149D01*
X728447Y211733D01*
X729698Y209567D01*
X731467Y207798D01*
X733633Y206547D01*
X736049Y205900D01*
X738551D01*
X740967Y206547D01*
X743133Y207798D01*
X744902Y209567D01*
X746153Y211733D01*
X746800Y214149D01*
Y216651D01*
X746153Y219067D01*
X744902Y221233D01*
X743133Y223002D01*
X740967Y224253D01*
X738551Y224900D01*
D02*
G37*
G36*
X506198Y317008D02*
X504442Y316659D01*
X502953Y315664D01*
X501959Y314176D01*
X501610Y312420D01*
Y226158D01*
X483240Y207788D01*
X416254D01*
X414498Y207439D01*
X413009Y206444D01*
X412015Y204956D01*
X411665Y203200D01*
X412015Y201444D01*
X413009Y199956D01*
X414498Y198961D01*
X416254Y198612D01*
X485140D01*
X486896Y198961D01*
X488384Y199956D01*
X509442Y221014D01*
X510437Y222502D01*
X510786Y224258D01*
Y312420D01*
X510437Y314176D01*
X509442Y315664D01*
X507954Y316659D01*
X506198Y317008D01*
D02*
G37*
G36*
X764088Y149740D02*
X763970D01*
Y140470D01*
X773240D01*
Y140588D01*
X772522Y143268D01*
X771134Y145672D01*
X769172Y147634D01*
X766768Y149022D01*
X764088Y149740D01*
D02*
G37*
G36*
X761430D02*
X761312D01*
X758632Y149022D01*
X756228Y147634D01*
X754266Y145672D01*
X752878Y143268D01*
X752160Y140588D01*
Y140470D01*
X761430D01*
Y149740D01*
D02*
G37*
G36*
X738551Y148700D02*
X736049D01*
X733633Y148053D01*
X731467Y146802D01*
X729698Y145033D01*
X728447Y142867D01*
X727800Y140451D01*
Y137949D01*
X728447Y135533D01*
X729698Y133367D01*
X731467Y131598D01*
X733633Y130347D01*
X736049Y129700D01*
X738551D01*
X740967Y130347D01*
X743133Y131598D01*
X744902Y133367D01*
X746153Y135533D01*
X746800Y137949D01*
Y140451D01*
X746153Y142867D01*
X744902Y145033D01*
X743133Y146802D01*
X740967Y148053D01*
X738551Y148700D01*
D02*
G37*
G36*
X773240Y137930D02*
X763970D01*
Y128660D01*
X764088D01*
X766768Y129378D01*
X769172Y130766D01*
X771134Y132728D01*
X772522Y135132D01*
X773240Y137812D01*
Y137930D01*
D02*
G37*
G36*
X761430D02*
X752160D01*
Y137812D01*
X752878Y135132D01*
X754266Y132728D01*
X756228Y130766D01*
X758632Y129378D01*
X761312Y128660D01*
X761430D01*
Y137930D01*
D02*
G37*
G36*
X250886Y134882D02*
X249494D01*
X248208Y134350D01*
X247223Y133365D01*
X246690Y132079D01*
Y130686D01*
X247223Y129400D01*
X248208Y128415D01*
X249494Y127882D01*
X250886D01*
X252173Y128415D01*
X253157Y129400D01*
X253690Y130686D01*
Y132079D01*
X253157Y133365D01*
X252173Y134350D01*
X250886Y134882D01*
D02*
G37*
G36*
X764088Y124340D02*
X763970D01*
Y115070D01*
X773240D01*
Y115188D01*
X772522Y117868D01*
X771134Y120272D01*
X769172Y122234D01*
X766768Y123622D01*
X764088Y124340D01*
D02*
G37*
G36*
X761430D02*
X761312D01*
X758632Y123622D01*
X756228Y122234D01*
X754266Y120272D01*
X752878Y117868D01*
X752160Y115188D01*
Y115070D01*
X761430D01*
Y124340D01*
D02*
G37*
G36*
X746800Y123300D02*
X727800D01*
Y104300D01*
X746800D01*
Y123300D01*
D02*
G37*
G36*
X773240Y112530D02*
X763970D01*
Y103260D01*
X764088D01*
X766768Y103978D01*
X769172Y105366D01*
X771134Y107328D01*
X772522Y109732D01*
X773240Y112412D01*
Y112530D01*
D02*
G37*
G36*
X761430D02*
X752160D01*
Y112412D01*
X752878Y109732D01*
X754266Y107328D01*
X756228Y105366D01*
X758632Y103978D01*
X761312Y103260D01*
X761430D01*
Y112530D01*
D02*
G37*
G36*
X301688Y107322D02*
X300295D01*
X299009Y106789D01*
X298024Y105804D01*
X297491Y104518D01*
Y103125D01*
X298024Y101839D01*
X299009Y100855D01*
X300295Y100322D01*
X301688D01*
X302974Y100855D01*
X303958Y101839D01*
X304491Y103125D01*
Y104518D01*
X303958Y105804D01*
X302974Y106789D01*
X301688Y107322D01*
D02*
G37*
G36*
X265042Y85730D02*
X263650D01*
X262364Y85198D01*
X261379Y84213D01*
X260846Y82927D01*
Y81534D01*
X261379Y80248D01*
X262364Y79263D01*
X263650Y78731D01*
X265042D01*
X266329Y79263D01*
X267313Y80248D01*
X267846Y81534D01*
Y82927D01*
X267313Y84213D01*
X266329Y85198D01*
X265042Y85730D01*
D02*
G37*
G36*
Y76841D02*
X263650D01*
X262364Y76308D01*
X261379Y75323D01*
X260846Y74037D01*
Y72644D01*
X261379Y71358D01*
X262364Y70373D01*
X263650Y69840D01*
X265042D01*
X266329Y70373D01*
X267313Y71358D01*
X267846Y72644D01*
Y74037D01*
X267313Y75323D01*
X266329Y76308D01*
X265042Y76841D01*
D02*
G37*
G36*
X588706Y35250D02*
X587314D01*
X586027Y34717D01*
X585665Y34354D01*
X584835Y33857D01*
X584005Y34354D01*
X583643Y34717D01*
X582356Y35250D01*
X580964D01*
X579677Y34717D01*
X579315Y34354D01*
X578485Y33857D01*
X577655Y34354D01*
X577293Y34717D01*
X576006Y35250D01*
X574614D01*
X573327Y34717D01*
X572343Y33733D01*
X571810Y32446D01*
Y31054D01*
X572343Y29767D01*
X572706Y29405D01*
X573203Y28575D01*
X572706Y27745D01*
X572343Y27383D01*
X571810Y26096D01*
Y24704D01*
X572343Y23417D01*
X573327Y22433D01*
X574614Y21900D01*
X576006D01*
X577293Y22433D01*
X577655Y22796D01*
X578485Y23293D01*
X579315Y22796D01*
X579677Y22433D01*
X580964Y21900D01*
X582356D01*
X583643Y22433D01*
X584005Y22796D01*
X584835Y23293D01*
X585665Y22796D01*
X586027Y22433D01*
X587314Y21900D01*
X588706D01*
X589993Y22433D01*
X590977Y23417D01*
X591510Y24704D01*
Y26096D01*
X590977Y27383D01*
X590614Y27745D01*
X590117Y28575D01*
X590614Y29405D01*
X590977Y29767D01*
X591510Y31054D01*
Y32446D01*
X590977Y33733D01*
X589993Y34717D01*
X588706Y35250D01*
D02*
G37*
G36*
X756378Y32751D02*
X754986D01*
X753700Y32218D01*
X752715Y31234D01*
X752560Y30858D01*
X751185D01*
X751029Y31234D01*
X750045Y32218D01*
X748758Y32751D01*
X747366D01*
X746080Y32218D01*
X745095Y31234D01*
X744562Y29947D01*
Y28555D01*
X745095Y27268D01*
X746080Y26284D01*
X747366Y25751D01*
X748758D01*
X750045Y26284D01*
X751029Y27268D01*
X751185Y27644D01*
X752560D01*
X752715Y27268D01*
X753700Y26284D01*
X754986Y25751D01*
X756378D01*
X757665Y26284D01*
X758649Y27268D01*
X759182Y28555D01*
Y29947D01*
X758649Y31234D01*
X757665Y32218D01*
X756378Y32751D01*
D02*
G37*
G36*
X319951Y32097D02*
X318558D01*
X317272Y31565D01*
X316287Y30580D01*
X315754Y29294D01*
Y27901D01*
X316287Y26615D01*
X317272Y25630D01*
X318558Y25097D01*
X319951D01*
X321237Y25630D01*
X322221Y26615D01*
X322754Y27901D01*
Y29294D01*
X322221Y30580D01*
X321237Y31565D01*
X319951Y32097D01*
D02*
G37*
%LPD*%
D11*
X376870Y79690D02*
X405130Y107950D01*
Y222821D01*
X346710Y79690D02*
X376870D01*
X437049Y249870D02*
X438150Y248770D01*
X321310Y249870D02*
X437049D01*
X712470Y298450D02*
Y375920D01*
X439908Y238760D02*
X449270Y248122D01*
X421069Y238760D02*
X439908D01*
X449270Y248122D02*
Y256850D01*
X405130Y222821D02*
X421069Y238760D01*
X449270Y256850D02*
Y281940D01*
X679450Y248920D02*
Y271780D01*
X718820Y248920D02*
Y271980D01*
X742950Y279400D02*
X750371Y271979D01*
Y253129D02*
X762700Y240800D01*
X750371Y253129D02*
Y271979D01*
X726240Y279400D02*
X742950D01*
X718820Y271980D02*
X726240Y279400D01*
X769187Y202768D02*
X775970Y209550D01*
X737300Y190000D02*
X750068Y202768D01*
X769187D01*
X775970Y209550D02*
Y279400D01*
X767280Y288090D02*
X775970Y279400D01*
X767280Y288090D02*
Y450850D01*
X690880Y189230D02*
X702782Y177328D01*
X749972D02*
X762700Y164600D01*
X702782Y177328D02*
X749972D01*
X690880Y189230D02*
Y357500D01*
X685200Y179670D02*
Y352500D01*
Y179670D02*
X700270Y164600D01*
X737300D01*
D13*
X567893Y427000D02*
X586933Y407960D01*
X555400Y427000D02*
X567893D01*
X586933Y407960D02*
X657740D01*
X568157Y499000D02*
X587197Y479960D01*
X555400Y499000D02*
X568157D01*
X587197Y479960D02*
X657740D01*
X555400Y643000D02*
X568051D01*
X587091Y623960D02*
X657740D01*
X568051Y643000D02*
X587091Y623960D01*
X587615Y695960D02*
X657740D01*
X555400Y715000D02*
X568576D01*
X587615Y695960D01*
X555400Y355000D02*
X568290D01*
X587330Y335960D01*
X555400Y571000D02*
X568190D01*
X587230Y551960D01*
X377190Y327070D02*
X646630D01*
X368720Y335540D02*
X377190Y327070D01*
X368720Y335540D02*
Y355000D01*
X651780Y331920D02*
X656630Y327070D01*
X468860Y331920D02*
X651780D01*
X462060Y338720D02*
X468860Y331920D01*
X462060Y338720D02*
Y355000D01*
X657740Y335960D02*
X666630Y327070D01*
X587330Y335960D02*
X657740D01*
X377190Y399070D02*
X646630D01*
X368720Y407540D02*
X377190Y399070D01*
X368720Y407540D02*
Y427000D01*
X651780Y403920D02*
X656630Y399070D01*
X468860Y403920D02*
X651780D01*
X462060Y410720D02*
X468860Y403920D01*
X462060Y410720D02*
Y427000D01*
X657740Y407960D02*
X666630Y399070D01*
X377190Y471070D02*
X646630D01*
X368720Y479540D02*
X377190Y471070D01*
X368720Y479540D02*
Y499000D01*
X651780Y475920D02*
X656630Y471070D01*
X468860Y475920D02*
X651780D01*
X462060Y482720D02*
X468860Y475920D01*
X462060Y482720D02*
Y499000D01*
X657740Y479960D02*
X666630Y471070D01*
X377190Y543070D02*
X646630D01*
X368720Y551540D02*
X377190Y543070D01*
X368720Y551540D02*
Y571000D01*
X651780Y547920D02*
X656630Y543070D01*
X468860Y547920D02*
X651780D01*
X462060Y554720D02*
X468860Y547920D01*
X462060Y554720D02*
Y571000D01*
X657740Y551960D02*
X666630Y543070D01*
X587230Y551960D02*
X657740D01*
X377190Y615070D02*
X646630D01*
X368720Y623540D02*
X377190Y615070D01*
X368720Y623540D02*
Y643000D01*
X651780Y619920D02*
X656630Y615070D01*
X468860Y619920D02*
X651780D01*
X462060Y626720D02*
X468860Y619920D01*
X462060Y626720D02*
Y643000D01*
X657740Y623960D02*
X666630Y615070D01*
X657740Y695960D02*
X666630Y687070D01*
X368720Y695540D02*
Y715000D01*
Y695540D02*
X377190Y687070D01*
X646630D01*
X462060Y698720D02*
X468860Y691920D01*
X651780D01*
X656630Y687070D01*
X462060Y698720D02*
Y715000D01*
D14*
X10000Y397430D02*
X7502Y396761D01*
X5672Y394934D01*
X5000Y392436D01*
Y11989D02*
X5535Y9315D01*
X7051Y7049D01*
X9318Y5534D01*
X11992Y5000D01*
X25000Y766130D02*
X24772Y768735D01*
X24095Y771260D01*
X22990Y773630D01*
X21491Y775772D01*
X19642Y777621D01*
X17500Y779120D01*
X15130Y780225D01*
X12605Y780902D01*
X10000Y781130D01*
Y397430D02*
X12605Y397658D01*
X15130Y398335D01*
X17500Y399440D01*
X19642Y400939D01*
X21491Y402788D01*
X22990Y404930D01*
X24095Y407300D01*
X24772Y409825D01*
X25000Y412430D01*
X5000Y786130D02*
X5670Y783630D01*
X7500Y781800D01*
X10000Y781130D01*
X11992Y845000D02*
X9316Y844465D01*
X7048Y842947D01*
X5532Y840677D01*
X5000Y838000D01*
X89000Y836000D02*
X89163Y833520D01*
X89647Y831082D01*
X90446Y828729D01*
X91545Y826500D01*
X92926Y824434D01*
X94565Y822565D01*
X96434Y820926D01*
X98500Y819546D01*
X100729Y818446D01*
X103082Y817647D01*
X105520Y817163D01*
X108000Y817000D01*
X358000D02*
X360480Y817163D01*
X362918Y817647D01*
X365271Y818446D01*
X367500Y819546D01*
X369566Y820926D01*
X371435Y822565D01*
X373074Y824434D01*
X374454Y826500D01*
X375554Y828729D01*
X376353Y831082D01*
X376837Y833520D01*
X377000Y836000D01*
X89000Y836009D02*
X88692Y838335D01*
X87793Y840502D01*
X86365Y842363D01*
X84504Y843792D01*
X82337Y844691D01*
X80011Y845000D01*
X825000Y420000D02*
X825228Y417395D01*
X825905Y414870D01*
X827010Y412500D01*
X828509Y410358D01*
X830358Y408509D01*
X832500Y407010D01*
X834870Y405905D01*
X837395Y405228D01*
X840000Y405000D01*
X838011Y5000D02*
X840685Y5535D01*
X842951Y7051D01*
X844466Y9318D01*
X845000Y11992D01*
X845000Y400000D02*
X844330Y402500D01*
X842500Y404330D01*
X840000Y405000D01*
X839967Y775000D02*
X837371Y774768D01*
X834855Y774090D01*
X832494Y772986D01*
X830359Y771491D01*
X828516Y769649D01*
X827019Y767515D01*
X825914Y765154D01*
X825235Y762638D01*
X825001Y760043D01*
X840010Y775000D02*
X842496Y775667D01*
X844321Y777483D01*
X845001Y779966D01*
X473000Y836009D02*
X472691Y838336D01*
X471791Y840505D01*
X470361Y842367D01*
X468498Y843796D01*
X466328Y844694D01*
X464000Y845000D01*
X473000Y836000D02*
X473163Y833520D01*
X473647Y831082D01*
X474446Y828729D01*
X475546Y826500D01*
X476926Y824434D01*
X478565Y822565D01*
X480434Y820926D01*
X482500Y819546D01*
X484729Y818446D01*
X487082Y817647D01*
X489520Y817163D01*
X492000Y817000D01*
X386000Y845000D02*
X383672Y844694D01*
X381503Y843796D01*
X379639Y842367D01*
X378209Y840505D01*
X377309Y838336D01*
X377000Y836009D01*
X742000Y817000D02*
X744480Y817163D01*
X746918Y817647D01*
X749271Y818446D01*
X751500Y819546D01*
X753566Y820926D01*
X755435Y822565D01*
X757074Y824434D01*
X758455Y826500D01*
X759554Y828729D01*
X760353Y831082D01*
X760837Y833520D01*
X761000Y836000D01*
X845000Y838000D02*
X844467Y840679D01*
X842950Y842950D01*
X840679Y844467D01*
X838000Y845000D01*
X770000D02*
X767672Y844694D01*
X765502Y843796D01*
X763639Y842367D01*
X762209Y840505D01*
X761309Y838336D01*
X761000Y836009D01*
X5000Y12012D02*
X5000Y392427D01*
X12016Y5000D02*
X837988Y5000D01*
X25000Y412430D02*
Y766130D01*
X5000Y786130D02*
Y838000D01*
X12004Y845000D02*
X79977Y845000D01*
X108000Y817000D02*
X358000D01*
X825000Y420000D02*
Y759903D01*
X845000Y780099D02*
Y838000D01*
X845000Y12016D02*
X845000Y400000D01*
X386000Y845000D02*
X464000D01*
X492000Y817000D02*
X742000D01*
X770000Y845000D02*
X838000D01*
D26*
X750970Y489583D02*
Y665480D01*
Y489583D02*
X758190Y482363D01*
X731520Y670560D02*
X736600Y665480D01*
X750970D01*
X775970D01*
X731520Y670560D02*
Y708660D01*
X727680Y712500D02*
X731520Y708660D01*
X685200Y712500D02*
X727680D01*
X591930Y377870D02*
X622300Y347500D01*
X284480Y377870D02*
X591930D01*
X275380Y368770D02*
X284480Y377870D01*
X275380Y355000D02*
Y368770D01*
X601850Y382950D02*
X622300Y362500D01*
X194310Y382950D02*
X601850D01*
X182040Y370680D02*
X194310Y382950D01*
X182040Y355000D02*
Y370680D01*
X642820Y388030D02*
X646630Y384220D01*
X100330Y388030D02*
X642820D01*
X88700Y376400D02*
X100330Y388030D01*
X88700Y355000D02*
Y376400D01*
X591930Y449870D02*
X622300Y419500D01*
X284480Y449870D02*
X591930D01*
X275380Y440770D02*
X284480Y449870D01*
X275380Y427000D02*
Y440770D01*
X601850Y454950D02*
X622300Y434500D01*
X194310Y454950D02*
X601850D01*
X182040Y442680D02*
X194310Y454950D01*
X182040Y427000D02*
Y442680D01*
X642820Y460030D02*
X646630Y456220D01*
X100330Y460030D02*
X642820D01*
X88700Y448400D02*
X100330Y460030D01*
X88700Y427000D02*
Y448400D01*
X591930Y521870D02*
X622300Y491500D01*
X284480Y521870D02*
X591930D01*
X275380Y512770D02*
X284480Y521870D01*
X275380Y499000D02*
Y512770D01*
X601850Y526950D02*
X622300Y506500D01*
X194310Y526950D02*
X601850D01*
X182040Y514680D02*
X194310Y526950D01*
X182040Y499000D02*
Y514680D01*
X642820Y532030D02*
X646630Y528220D01*
X100330Y532030D02*
X642820D01*
X88700Y520400D02*
X100330Y532030D01*
X88700Y499000D02*
Y520400D01*
X591930Y593870D02*
X622300Y563500D01*
X284480Y593870D02*
X591930D01*
X275380Y584770D02*
X284480Y593870D01*
X275380Y571000D02*
Y584770D01*
X601850Y598950D02*
X622300Y578500D01*
X194310Y598950D02*
X601850D01*
X182040Y586680D02*
X194310Y598950D01*
X182040Y571000D02*
Y586680D01*
X642820Y604030D02*
X646630Y600220D01*
X100330Y604030D02*
X642820D01*
X88700Y592400D02*
X100330Y604030D01*
X88700Y571000D02*
Y592400D01*
X591930Y665870D02*
X622300Y635500D01*
X284480Y665870D02*
X591930D01*
X275380Y656770D02*
X284480Y665870D01*
X275380Y643000D02*
Y656770D01*
X601850Y670950D02*
X622300Y650500D01*
X194310Y670950D02*
X601850D01*
X182040Y658680D02*
X194310Y670950D01*
X182040Y643000D02*
Y658680D01*
X642820Y676030D02*
X646630Y672220D01*
X100330Y676030D02*
X642820D01*
X88700Y664400D02*
X100330Y676030D01*
X88700Y643000D02*
Y664400D01*
Y715000D02*
Y736400D01*
X100330Y748030D01*
X642820D02*
X646630Y744220D01*
X100330Y748030D02*
X642820D01*
X182040Y715000D02*
Y730680D01*
X194310Y742950D01*
X601850D02*
X622300Y722500D01*
X194310Y742950D02*
X601850D01*
X275380Y715000D02*
Y728770D01*
X284480Y737870D01*
X591930D01*
X622300Y707500D01*
D27*
X795020Y585470D02*
Y716280D01*
X757580Y548030D02*
X795020Y585470D01*
X725170Y393150D02*
Y418000D01*
Y346000D02*
Y393150D01*
X706840D02*
X725170D01*
X698500Y384810D02*
X706840Y393150D01*
X698500Y374650D02*
Y384810D01*
X691350Y367500D02*
X698500Y374650D01*
X629920Y367500D02*
X691350D01*
X689490Y706000D02*
X725170D01*
X685990Y702500D02*
X689490Y706000D01*
X629920Y702500D02*
X685990D01*
X629920Y715000D02*
Y727500D01*
Y702500D02*
Y715000D01*
X725170Y656590D02*
Y706000D01*
Y634000D02*
Y656590D01*
X724080Y655500D02*
X725170Y656590D01*
X629920Y655500D02*
X724080D01*
X629920Y643000D02*
Y655500D01*
Y630500D02*
Y643000D01*
X725170Y584200D02*
Y634000D01*
Y562000D02*
Y584200D01*
X724470Y583500D02*
X725170Y584200D01*
X629920Y583500D02*
X724470D01*
X629920Y571000D02*
Y583500D01*
Y558500D02*
Y571000D01*
X725170Y511810D02*
Y562000D01*
Y490000D02*
Y511810D01*
X629920Y511500D02*
X724860D01*
X725170Y511810D01*
X629920Y499000D02*
Y511500D01*
Y486500D02*
Y499000D01*
X725170Y439420D02*
Y490000D01*
Y418000D02*
Y439420D01*
X629920Y439500D02*
X725090D01*
X725170Y439420D01*
X629920Y427000D02*
Y439500D01*
Y414500D02*
Y427000D01*
Y355000D02*
Y367500D01*
Y342500D02*
Y355000D01*
D28*
X506198Y224258D02*
Y312420D01*
X416254Y203200D02*
X485140D01*
X506198Y224258D01*
D29*
X833968Y14577D02*
D03*
D30*
X834140Y832698D02*
D03*
D31*
X15212Y812378D02*
D03*
D32*
X15240Y16510D02*
D03*
D33*
X52165Y19835D02*
D03*
X19835D02*
D03*
Y52165D02*
D03*
X52165D02*
D03*
X58860Y36000D02*
D03*
X36000Y13140D02*
D03*
X13140Y36000D02*
D03*
X36000Y58860D02*
D03*
X830164Y239835D02*
D03*
X797835D02*
D03*
Y272164D02*
D03*
X830164D02*
D03*
X836860Y256000D02*
D03*
X814000Y233140D02*
D03*
X791140Y256000D02*
D03*
X814000Y278860D02*
D03*
X36000Y836860D02*
D03*
X13140Y814000D02*
D03*
X36000Y791140D02*
D03*
X58860Y814000D02*
D03*
X52165Y830164D02*
D03*
X19835D02*
D03*
Y797835D02*
D03*
X52165D02*
D03*
X36000Y278860D02*
D03*
X13140Y256000D02*
D03*
X36000Y233140D02*
D03*
X58860Y256000D02*
D03*
X52165Y272164D02*
D03*
X19835D02*
D03*
Y239835D02*
D03*
X52165D02*
D03*
Y347836D02*
D03*
X19835D02*
D03*
Y380164D02*
D03*
X52165D02*
D03*
X58860Y364000D02*
D03*
X36000Y341140D02*
D03*
X13140Y364000D02*
D03*
X36000Y386860D02*
D03*
X830164Y797835D02*
D03*
X797835D02*
D03*
Y830164D02*
D03*
X830164D02*
D03*
X836860Y814000D02*
D03*
X814000Y791140D02*
D03*
X791140Y814000D02*
D03*
X814000Y836860D02*
D03*
Y386860D02*
D03*
X791140Y364000D02*
D03*
X814000Y341140D02*
D03*
X836860Y364000D02*
D03*
X830164Y380164D02*
D03*
X797835D02*
D03*
Y347836D02*
D03*
X830164D02*
D03*
X425000Y58860D02*
D03*
X402140Y36000D02*
D03*
X425000Y13140D02*
D03*
X447860Y36000D02*
D03*
X441164Y52165D02*
D03*
X408835D02*
D03*
Y19835D02*
D03*
X441164D02*
D03*
X425000Y836860D02*
D03*
X402140Y814000D02*
D03*
X425000Y791140D02*
D03*
X447860Y814000D02*
D03*
X441164Y830164D02*
D03*
X408835D02*
D03*
Y797835D02*
D03*
X441164D02*
D03*
X830164Y19835D02*
D03*
X797835D02*
D03*
Y52165D02*
D03*
X830164D02*
D03*
X836860Y36000D02*
D03*
X814000Y13140D02*
D03*
X791140Y36000D02*
D03*
X814000Y58860D02*
D03*
D34*
X36000Y36000D02*
D03*
X814000Y256000D02*
D03*
X36000Y814000D02*
D03*
Y256000D02*
D03*
Y364000D02*
D03*
X814000Y814000D02*
D03*
Y364000D02*
D03*
X425000Y36000D02*
D03*
Y814000D02*
D03*
X814000Y36000D02*
D03*
D35*
X5024Y96317D02*
D03*
X576358Y5024D02*
D03*
X844976Y222862D02*
D03*
X5024Y112317D02*
D03*
X5024Y815243D02*
D03*
X25024Y697361D02*
D03*
X824976Y678187D02*
D03*
X175173Y816976D02*
D03*
X5024Y272317D02*
D03*
X402189Y844976D02*
D03*
X844976Y174862D02*
D03*
X287173Y816976D02*
D03*
X111173D02*
D03*
X95808Y821438D02*
D03*
X775303Y844976D02*
D03*
X5024Y304317D02*
D03*
X844976Y382862D02*
D03*
X5024Y144317D02*
D03*
X303173Y816976D02*
D03*
X844976Y94862D02*
D03*
X25024Y489361D02*
D03*
X112359Y5024D02*
D03*
X844976Y286862D02*
D03*
X25024Y441361D02*
D03*
Y505361D02*
D03*
X384359Y5024D02*
D03*
X544358D02*
D03*
X532346Y816976D02*
D03*
X844976Y302862D02*
D03*
Y366862D02*
D03*
Y334862D02*
D03*
X844976Y829843D02*
D03*
X25024Y649361D02*
D03*
X5024Y368317D02*
D03*
X64359Y5024D02*
D03*
X628346Y816976D02*
D03*
X736358Y5024D02*
D03*
X5024Y224317D02*
D03*
X724346Y816976D02*
D03*
X256359Y5024D02*
D03*
X6008Y783273D02*
D03*
X160359Y5024D02*
D03*
X640359Y5024D02*
D03*
X143173Y816976D02*
D03*
X25024Y425362D02*
D03*
Y665361D02*
D03*
X5024Y240317D02*
D03*
X824976Y438187D02*
D03*
X704358Y5024D02*
D03*
X844976Y781843D02*
D03*
X564346Y816976D02*
D03*
X823303Y844976D02*
D03*
X5024Y799243D02*
D03*
X676346Y816976D02*
D03*
X844976Y126862D02*
D03*
X96359Y5024D02*
D03*
X25024Y553361D02*
D03*
X824976Y614187D02*
D03*
X376593Y832105D02*
D03*
X824976Y726187D02*
D03*
X335173Y816976D02*
D03*
X824976Y646187D02*
D03*
X224359Y5024D02*
D03*
X844976Y30863D02*
D03*
X500346Y816976D02*
D03*
X5024Y128317D02*
D03*
X450189Y844976D02*
D03*
X5024Y384317D02*
D03*
X473818Y830573D02*
D03*
X844976Y158862D02*
D03*
X25024Y585361D02*
D03*
X824976Y470187D02*
D03*
X791303Y844976D02*
D03*
X20614Y776742D02*
D03*
X592359Y5024D02*
D03*
X255173Y816976D02*
D03*
X271173D02*
D03*
X48359Y5024D02*
D03*
X784358Y5024D02*
D03*
X844976Y62863D02*
D03*
X59740Y844976D02*
D03*
X528358Y5024D02*
D03*
X386190Y844907D02*
D03*
X25024Y633361D02*
D03*
X191173Y816976D02*
D03*
X824976Y550187D02*
D03*
X831912Y772605D02*
D03*
X272359Y5024D02*
D03*
X824976Y758187D02*
D03*
X844976Y206863D02*
D03*
X351173Y816976D02*
D03*
X16359Y5024D02*
D03*
X672358Y5024D02*
D03*
X25024Y617361D02*
D03*
X740346Y816976D02*
D03*
X844976Y398862D02*
D03*
X5024Y192317D02*
D03*
X27740Y844976D02*
D03*
X824976Y710187D02*
D03*
X320359Y5024D02*
D03*
X336359D02*
D03*
X612346Y816976D02*
D03*
X844976Y190863D02*
D03*
X824976Y502187D02*
D03*
X5024Y320317D02*
D03*
X580346Y816976D02*
D03*
X768358Y5024D02*
D03*
X5024Y64317D02*
D03*
X824976Y566187D02*
D03*
X43740Y844976D02*
D03*
X25024Y601361D02*
D03*
X844976Y318862D02*
D03*
X844976Y797843D02*
D03*
X304359Y5024D02*
D03*
X24659Y409366D02*
D03*
X13535Y397865D02*
D03*
X192359Y5024D02*
D03*
X25024Y457361D02*
D03*
X5024Y288317D02*
D03*
X434189Y844976D02*
D03*
X824976Y694187D02*
D03*
X844976Y350862D02*
D03*
X5024Y48317D02*
D03*
Y32317D02*
D03*
X844976Y110863D02*
D03*
X692346Y816976D02*
D03*
X416359Y5024D02*
D03*
X207173Y816976D02*
D03*
X239173D02*
D03*
X128359Y5024D02*
D03*
X844976Y78863D02*
D03*
X824976Y486187D02*
D03*
X844976Y14863D02*
D03*
X708346Y816976D02*
D03*
X368359Y5024D02*
D03*
X608358Y5024D02*
D03*
X319173Y816976D02*
D03*
X496358Y5024D02*
D03*
X223173Y816976D02*
D03*
X400359Y5024D02*
D03*
X25024Y761361D02*
D03*
X832358Y5024D02*
D03*
X824976Y454187D02*
D03*
X720358Y5024D02*
D03*
X844976Y238862D02*
D03*
X13234Y844976D02*
D03*
X800358Y5024D02*
D03*
X844976Y254862D02*
D03*
X32359Y5024D02*
D03*
X75740Y844976D02*
D03*
X755352Y822528D02*
D03*
X176359Y5024D02*
D03*
X844976Y142863D02*
D03*
X25024Y729361D02*
D03*
Y681361D02*
D03*
X824976Y518187D02*
D03*
X688358Y5024D02*
D03*
X548346Y816976D02*
D03*
X25024Y569361D02*
D03*
X844976Y270863D02*
D03*
X466186Y844635D02*
D03*
X816358Y5024D02*
D03*
X25024Y473361D02*
D03*
X352359Y5024D02*
D03*
X5024Y831243D02*
D03*
X824976Y422187D02*
D03*
X367004Y819297D02*
D03*
X5024Y176317D02*
D03*
X25024Y745361D02*
D03*
X752358Y5024D02*
D03*
X484429Y818598D02*
D03*
X448358Y5024D02*
D03*
X824976Y598187D02*
D03*
X844976Y46863D02*
D03*
X5024Y336317D02*
D03*
X127173Y816976D02*
D03*
X88895Y835867D02*
D03*
X824976Y742187D02*
D03*
X432359Y5024D02*
D03*
X807303Y844976D02*
D03*
X208359Y5024D02*
D03*
X624358Y5024D02*
D03*
X25024Y521361D02*
D03*
X824976Y582187D02*
D03*
X5024Y352317D02*
D03*
Y256317D02*
D03*
X644346Y816976D02*
D03*
X5024Y80317D02*
D03*
X656358Y5024D02*
D03*
X831582Y407614D02*
D03*
X5024Y160317D02*
D03*
X159173Y816976D02*
D03*
X844976Y813843D02*
D03*
X144359Y5024D02*
D03*
X516346Y816976D02*
D03*
X288359Y5024D02*
D03*
X80359Y5024D02*
D03*
X480359Y5024D02*
D03*
X839302Y844803D02*
D03*
X464358Y5024D02*
D03*
X5024Y16317D02*
D03*
X240359Y5024D02*
D03*
X560359Y5024D02*
D03*
X824976Y630187D02*
D03*
X512359Y5024D02*
D03*
X5024Y208317D02*
D03*
X596346Y816976D02*
D03*
X761199Y837421D02*
D03*
X25024Y713361D02*
D03*
Y537361D02*
D03*
X418189Y844976D02*
D03*
X660346Y816976D02*
D03*
X824976Y534187D02*
D03*
Y662187D02*
D03*
D36*
X555400Y427000D02*
D03*
X568100Y439700D02*
D03*
Y414300D02*
D03*
X580800Y427000D02*
D03*
X555400Y355000D02*
D03*
X568100Y367700D02*
D03*
Y342300D02*
D03*
X580800Y355000D02*
D03*
X462060D02*
D03*
X474760Y367700D02*
D03*
Y342300D02*
D03*
X487460Y355000D02*
D03*
X368720Y427000D02*
D03*
X381420Y439700D02*
D03*
Y414300D02*
D03*
X394120Y427000D02*
D03*
X462060D02*
D03*
X474760Y439700D02*
D03*
Y414300D02*
D03*
X487460Y427000D02*
D03*
X368720Y355000D02*
D03*
X381420Y367700D02*
D03*
Y342300D02*
D03*
X394120Y355000D02*
D03*
X275380D02*
D03*
X288080Y367700D02*
D03*
Y342300D02*
D03*
X300780Y355000D02*
D03*
X275380Y427000D02*
D03*
X288080Y439700D02*
D03*
Y414300D02*
D03*
X300780Y427000D02*
D03*
X275380Y499000D02*
D03*
X288080Y511700D02*
D03*
Y486300D02*
D03*
X300780Y499000D02*
D03*
X368720D02*
D03*
X381420Y511700D02*
D03*
Y486300D02*
D03*
X394120Y499000D02*
D03*
X462060D02*
D03*
X474760Y511700D02*
D03*
Y486300D02*
D03*
X487460Y499000D02*
D03*
X555400D02*
D03*
X568100Y511700D02*
D03*
Y486300D02*
D03*
X580800Y499000D02*
D03*
X555400Y571000D02*
D03*
X568100Y583700D02*
D03*
Y558300D02*
D03*
X580800Y571000D02*
D03*
X462060D02*
D03*
X474760Y583700D02*
D03*
Y558300D02*
D03*
X487460Y571000D02*
D03*
X368720D02*
D03*
X381420Y583700D02*
D03*
Y558300D02*
D03*
X394120Y571000D02*
D03*
X275380D02*
D03*
X288080Y583700D02*
D03*
Y558300D02*
D03*
X300780Y571000D02*
D03*
X182040D02*
D03*
X194740Y583700D02*
D03*
Y558300D02*
D03*
X207440Y571000D02*
D03*
X182040Y499000D02*
D03*
X194740Y511700D02*
D03*
Y486300D02*
D03*
X207440Y499000D02*
D03*
X182040Y427000D02*
D03*
X194740Y439700D02*
D03*
Y414300D02*
D03*
X207440Y427000D02*
D03*
X182040Y355000D02*
D03*
X194740Y367700D02*
D03*
Y342300D02*
D03*
X207440Y355000D02*
D03*
X88700D02*
D03*
X101400Y367700D02*
D03*
Y342300D02*
D03*
X114100Y355000D02*
D03*
X88700Y427000D02*
D03*
X101400Y439700D02*
D03*
Y414300D02*
D03*
X114100Y427000D02*
D03*
X88700Y499000D02*
D03*
X101400Y511700D02*
D03*
Y486300D02*
D03*
X114100Y499000D02*
D03*
X88700Y571000D02*
D03*
X101400Y583700D02*
D03*
Y558300D02*
D03*
X114100Y571000D02*
D03*
X182040Y643000D02*
D03*
X194740Y655700D02*
D03*
Y630300D02*
D03*
X207440Y643000D02*
D03*
X275380D02*
D03*
X288080Y655700D02*
D03*
Y630300D02*
D03*
X300780Y643000D02*
D03*
X368720D02*
D03*
X381420Y655700D02*
D03*
Y630300D02*
D03*
X394120Y643000D02*
D03*
X462060D02*
D03*
X474760Y655700D02*
D03*
Y630300D02*
D03*
X487460Y643000D02*
D03*
X580800D02*
D03*
X568100Y630300D02*
D03*
Y655700D02*
D03*
X555400Y643000D02*
D03*
Y715000D02*
D03*
X568100Y727700D02*
D03*
Y702300D02*
D03*
X580800Y715000D02*
D03*
X462060D02*
D03*
X474760Y727700D02*
D03*
Y702300D02*
D03*
X487460Y715000D02*
D03*
X368720D02*
D03*
X381420Y727700D02*
D03*
Y702300D02*
D03*
X394120Y715000D02*
D03*
X275380D02*
D03*
X288080Y727700D02*
D03*
Y702300D02*
D03*
X300780Y715000D02*
D03*
X182040D02*
D03*
X194740Y727700D02*
D03*
Y702300D02*
D03*
X207440Y715000D02*
D03*
X88700D02*
D03*
X101400Y727700D02*
D03*
Y702300D02*
D03*
X114100Y715000D02*
D03*
X88700Y643000D02*
D03*
X101400Y655700D02*
D03*
Y630300D02*
D03*
X114100Y643000D02*
D03*
D37*
X762700Y113800D02*
D03*
Y139200D02*
D03*
Y164600D02*
D03*
Y190000D02*
D03*
Y215400D02*
D03*
Y240800D02*
D03*
Y266200D02*
D03*
X737300Y139200D02*
D03*
Y164600D02*
D03*
Y190000D02*
D03*
Y215400D02*
D03*
Y240800D02*
D03*
Y266200D02*
D03*
D38*
Y113800D02*
D03*
D39*
X581660Y31750D02*
D03*
X575310D02*
D03*
Y25400D02*
D03*
X588010Y31750D02*
D03*
Y25400D02*
D03*
X581660D02*
D03*
X438150Y143002D02*
D03*
X453280D02*
D03*
X280670Y139700D02*
D03*
X382270Y66013D02*
D03*
Y34192D02*
D03*
Y50103D02*
D03*
X403119Y78740D02*
D03*
X387209D02*
D03*
X231140Y26670D02*
D03*
Y44688D02*
D03*
X260350Y45639D02*
D03*
X231140Y62706D02*
D03*
X264346Y73341D02*
D03*
Y82231D02*
D03*
Y91121D02*
D03*
X231140Y98743D02*
D03*
Y116761D02*
D03*
X260350Y117711D02*
D03*
X250190Y131383D02*
D03*
X231140Y134779D02*
D03*
X374650Y28598D02*
D03*
X319254D02*
D03*
X327496Y64030D02*
D03*
X346710Y68261D02*
D03*
Y79690D02*
D03*
X300991Y103822D02*
D03*
X300990Y110170D02*
D03*
X283963Y113981D02*
D03*
X250190Y138111D02*
D03*
X231140Y152797D02*
D03*
X251460Y159462D02*
D03*
X231140Y170815D02*
D03*
X251460Y177481D02*
D03*
X231140Y188833D02*
D03*
Y206851D02*
D03*
X251460Y207802D02*
D03*
X297180Y218011D02*
D03*
X231140Y224869D02*
D03*
X251460Y225820D02*
D03*
X231140Y242887D02*
D03*
X251460Y243838D02*
D03*
X231140Y260906D02*
D03*
X251460Y261856D02*
D03*
X290430Y274000D02*
D03*
X231140Y278924D02*
D03*
X290430Y280350D02*
D03*
X231140Y296942D02*
D03*
X251460Y297892D02*
D03*
X231140Y314960D02*
D03*
X271780D02*
D03*
X374650Y145730D02*
D03*
X381000Y167211D02*
D03*
Y183121D02*
D03*
X354330Y185100D02*
D03*
X318135Y200340D02*
D03*
X389890Y205740D02*
D03*
Y219004D02*
D03*
Y232269D02*
D03*
X364490Y242250D02*
D03*
X321310Y243521D02*
D03*
Y249870D02*
D03*
X364490Y256220D02*
D03*
X315806Y279257D02*
D03*
X307848D02*
D03*
X300990Y280350D02*
D03*
X319554Y293155D02*
D03*
X374650D02*
D03*
X356870Y312420D02*
D03*
X370311D02*
D03*
X383752D02*
D03*
X397192D02*
D03*
X778451Y640956D02*
D03*
X757036Y613982D02*
D03*
X775970Y665480D02*
D03*
X787400Y678180D02*
D03*
X795020Y716280D02*
D03*
X750570Y690880D02*
D03*
X431800Y228600D02*
D03*
X652861Y360044D02*
D03*
X659211D02*
D03*
X665561D02*
D03*
X652861Y347344D02*
D03*
Y353694D02*
D03*
X659211Y347344D02*
D03*
Y353694D02*
D03*
X665561Y347344D02*
D03*
Y353694D02*
D03*
X653259Y431635D02*
D03*
X659609D02*
D03*
X665959D02*
D03*
X653259Y418935D02*
D03*
Y425285D02*
D03*
X659609Y418935D02*
D03*
Y425285D02*
D03*
X665959Y418935D02*
D03*
Y425285D02*
D03*
X652861Y504192D02*
D03*
X659211D02*
D03*
X665561D02*
D03*
X652861Y491492D02*
D03*
Y497842D02*
D03*
X659211Y491492D02*
D03*
Y497842D02*
D03*
X665561Y491492D02*
D03*
Y497842D02*
D03*
X652930Y576190D02*
D03*
X659280D02*
D03*
X665630D02*
D03*
X652930Y563490D02*
D03*
Y569840D02*
D03*
X659280Y563490D02*
D03*
Y569840D02*
D03*
X665630Y563490D02*
D03*
Y569840D02*
D03*
X653319Y648122D02*
D03*
X659669D02*
D03*
X666019D02*
D03*
X653319Y635422D02*
D03*
Y641772D02*
D03*
X659669Y635422D02*
D03*
Y641772D02*
D03*
X666019Y635422D02*
D03*
Y641772D02*
D03*
X653130Y722500D02*
D03*
X659480D02*
D03*
X665830D02*
D03*
X653130Y709800D02*
D03*
Y716150D02*
D03*
X659480Y709800D02*
D03*
Y716150D02*
D03*
X665830Y709800D02*
D03*
Y716150D02*
D03*
X794279Y309880D02*
D03*
X821161D02*
D03*
X803910Y565150D02*
D03*
Y547132D02*
D03*
Y529114D02*
D03*
Y511096D02*
D03*
Y493078D02*
D03*
Y475059D02*
D03*
Y457041D02*
D03*
Y439023D02*
D03*
Y421005D02*
D03*
X748062Y29251D02*
D03*
X755682D02*
D03*
X677148Y791210D02*
D03*
X695166D02*
D03*
X713184D02*
D03*
X767239D02*
D03*
X749221D02*
D03*
X731202D02*
D03*
X605076D02*
D03*
X623094D02*
D03*
X641112D02*
D03*
X659130D02*
D03*
X587057D02*
D03*
X569039D02*
D03*
X551021D02*
D03*
X533003D02*
D03*
X514985D02*
D03*
X496967D02*
D03*
X478949D02*
D03*
X460931D02*
D03*
X388858D02*
D03*
X82550D02*
D03*
X100568D02*
D03*
X118586D02*
D03*
X136604D02*
D03*
X154622D02*
D03*
X172641D02*
D03*
X190659D02*
D03*
X208677D02*
D03*
X226695D02*
D03*
X244713D02*
D03*
X262731D02*
D03*
X280749D02*
D03*
X298768D02*
D03*
X370840D02*
D03*
X352822D02*
D03*
X334804D02*
D03*
X316786D02*
D03*
X712470Y375920D02*
D03*
Y298450D02*
D03*
X527050Y208280D02*
D03*
Y224190D02*
D03*
X701040Y292629D02*
D03*
Y274320D02*
D03*
Y260879D02*
D03*
Y236220D02*
D03*
Y222779D02*
D03*
Y209338D02*
D03*
X700299Y153670D02*
D03*
X686858D02*
D03*
X579120Y64770D02*
D03*
Y78211D02*
D03*
Y91652D02*
D03*
X769620Y71861D02*
D03*
Y85302D02*
D03*
X687070Y105410D02*
D03*
X700511D02*
D03*
X713952D02*
D03*
X687070Y121920D02*
D03*
X700511D02*
D03*
X713952D02*
D03*
X679450Y248920D02*
D03*
Y271780D02*
D03*
X718820Y248920D02*
D03*
X633730Y262890D02*
D03*
X615950Y320040D02*
D03*
Y342900D02*
D03*
Y381000D02*
D03*
Y414020D02*
D03*
X617220Y450850D02*
D03*
Y486410D02*
D03*
X618490Y523240D02*
D03*
X615950Y558800D02*
D03*
X617220Y594360D02*
D03*
Y609600D02*
D03*
X622300Y643890D02*
D03*
X613410Y633730D02*
D03*
X618490Y668020D02*
D03*
X615950Y681990D02*
D03*
X613410Y704850D02*
D03*
X623570Y736600D02*
D03*
X767239Y755174D02*
D03*
X749221D02*
D03*
X687070Y671830D02*
D03*
Y681990D02*
D03*
X708660Y697230D02*
D03*
X750570Y681990D02*
D03*
X712470Y670560D02*
D03*
Y679450D02*
D03*
X709930Y601980D02*
D03*
X687070Y596900D02*
D03*
Y607060D02*
D03*
X778510Y647700D02*
D03*
X803910Y579120D02*
D03*
X737870Y595630D02*
D03*
X716280Y527050D02*
D03*
X736600Y525780D02*
D03*
X793750Y535940D02*
D03*
Y494030D02*
D03*
X792480Y450850D02*
D03*
X758190Y474980D02*
D03*
X712470Y454660D02*
D03*
X744220Y452120D02*
D03*
X687070Y378460D02*
D03*
Y389890D02*
D03*
X709930Y381000D02*
D03*
X737870Y379730D02*
D03*
X793750Y405130D02*
D03*
X774700D02*
D03*
X516044Y268357D02*
D03*
X441960Y227330D02*
D03*
X424180Y203200D02*
D03*
X416254D02*
D03*
X635000Y294640D02*
D03*
X676910Y106680D02*
D03*
X583346Y177941D02*
D03*
X615950Y223520D02*
D03*
X637540D02*
D03*
X675640Y304800D02*
D03*
X662940Y262890D02*
D03*
X744220Y346000D02*
D03*
X463788Y116840D02*
D03*
X445770D02*
D03*
Y124460D02*
D03*
X689398Y745490D02*
D03*
X702839D02*
D03*
X716280D02*
D03*
X729721D02*
D03*
X756920Y574040D02*
D03*
Y560599D02*
D03*
Y534882D02*
D03*
Y521441D02*
D03*
Y508000D02*
D03*
Y494559D02*
D03*
X687070Y461751D02*
D03*
Y448310D02*
D03*
Y535411D02*
D03*
Y521970D02*
D03*
X760730Y297498D02*
D03*
Y310938D02*
D03*
Y324379D02*
D03*
Y337820D02*
D03*
Y405024D02*
D03*
Y391583D02*
D03*
Y378142D02*
D03*
Y364702D02*
D03*
Y351261D02*
D03*
X729177Y290393D02*
D03*
X575733Y287620D02*
D03*
X521970Y285150D02*
D03*
X478790Y215300D02*
D03*
X435610D02*
D03*
X419030Y78740D02*
D03*
X434940D02*
D03*
X450850D02*
D03*
X556260Y146121D02*
D03*
Y130210D02*
D03*
Y114300D02*
D03*
Y177941D02*
D03*
Y162031D02*
D03*
X528320Y180269D02*
D03*
Y116628D02*
D03*
Y132539D02*
D03*
Y148449D02*
D03*
Y55668D02*
D03*
Y69109D02*
D03*
Y82550D02*
D03*
X688340Y58208D02*
D03*
Y71649D02*
D03*
Y85090D02*
D03*
X816610Y96203D02*
D03*
Y109643D02*
D03*
Y123084D02*
D03*
Y136525D02*
D03*
Y149966D02*
D03*
Y163407D02*
D03*
Y176848D02*
D03*
Y190288D02*
D03*
Y203729D02*
D03*
X791210D02*
D03*
Y190288D02*
D03*
Y176848D02*
D03*
Y163407D02*
D03*
Y149966D02*
D03*
Y136525D02*
D03*
Y123084D02*
D03*
Y109643D02*
D03*
Y96203D02*
D03*
Y82762D02*
D03*
X807720Y309880D02*
D03*
X677148Y773192D02*
D03*
X659130D02*
D03*
X641112D02*
D03*
X623094D02*
D03*
X749221D02*
D03*
X767239D02*
D03*
X785257D02*
D03*
X731202D02*
D03*
X713184D02*
D03*
X695166D02*
D03*
X605076D02*
D03*
X44450Y83661D02*
D03*
Y101679D02*
D03*
Y119698D02*
D03*
Y317738D02*
D03*
Y299720D02*
D03*
Y209788D02*
D03*
Y191770D02*
D03*
Y173752D02*
D03*
Y155734D02*
D03*
Y137716D02*
D03*
X54610Y444024D02*
D03*
Y426006D02*
D03*
Y407988D02*
D03*
Y462042D02*
D03*
Y768350D02*
D03*
Y750332D02*
D03*
Y732314D02*
D03*
Y714296D02*
D03*
Y696277D02*
D03*
Y678259D02*
D03*
Y660241D02*
D03*
Y642223D02*
D03*
Y624205D02*
D03*
Y606187D02*
D03*
Y588169D02*
D03*
Y570151D02*
D03*
Y552132D02*
D03*
Y480060D02*
D03*
Y498078D02*
D03*
Y516096D02*
D03*
Y534114D02*
D03*
X181610Y80724D02*
D03*
Y62706D02*
D03*
Y44688D02*
D03*
Y26670D02*
D03*
X132080Y80724D02*
D03*
Y62706D02*
D03*
Y44688D02*
D03*
Y26670D02*
D03*
X82550D02*
D03*
Y44688D02*
D03*
Y62706D02*
D03*
Y80724D02*
D03*
X181610Y98743D02*
D03*
Y116761D02*
D03*
Y134779D02*
D03*
Y152797D02*
D03*
Y170815D02*
D03*
Y188833D02*
D03*
Y206851D02*
D03*
Y224869D02*
D03*
Y242887D02*
D03*
Y260906D02*
D03*
Y278924D02*
D03*
Y296942D02*
D03*
Y314960D02*
D03*
X132080Y98743D02*
D03*
Y116761D02*
D03*
Y134779D02*
D03*
Y152797D02*
D03*
Y170815D02*
D03*
Y188833D02*
D03*
Y206851D02*
D03*
Y224869D02*
D03*
Y242887D02*
D03*
Y260906D02*
D03*
Y278924D02*
D03*
Y296942D02*
D03*
Y314960D02*
D03*
X82550Y98743D02*
D03*
Y116761D02*
D03*
Y134779D02*
D03*
Y152797D02*
D03*
Y170815D02*
D03*
Y188833D02*
D03*
Y206851D02*
D03*
Y224869D02*
D03*
Y242887D02*
D03*
Y260906D02*
D03*
Y278924D02*
D03*
Y296942D02*
D03*
Y314960D02*
D03*
X521970Y303530D02*
D03*
X535411D02*
D03*
X562292D02*
D03*
X575733D02*
D03*
X589174D02*
D03*
X635000Y304800D02*
D03*
X410633Y312420D02*
D03*
X424074D02*
D03*
X437515D02*
D03*
X450956D02*
D03*
X464397D02*
D03*
X477837D02*
D03*
X491278D02*
D03*
X449270Y281940D02*
D03*
X757580Y548030D02*
D03*
X767080Y515620D02*
D03*
X506198Y312420D02*
D03*
X745490Y706120D02*
D03*
X671830Y744220D02*
D03*
Y681990D02*
D03*
Y672220D02*
D03*
X744220Y634000D02*
D03*
Y562000D02*
D03*
X671830Y609990D02*
D03*
Y600220D02*
D03*
Y537990D02*
D03*
Y528220D02*
D03*
Y465990D02*
D03*
Y456220D02*
D03*
X744220Y490220D02*
D03*
Y417830D02*
D03*
X671830Y393990D02*
D03*
Y384220D02*
D03*
Y321990D02*
D03*
X556260Y207247D02*
D03*
X497840Y102870D02*
D03*
X528320Y164359D02*
D03*
X505460Y163830D02*
D03*
X481330Y194310D02*
D03*
X459740Y261770D02*
D03*
X441543Y295888D02*
D03*
X626110Y236220D02*
D03*
X589280D02*
D03*
X449270Y231195D02*
D03*
X438150Y248770D02*
D03*
X518160Y261770D02*
D03*
X641350Y271980D02*
D03*
X767280Y450850D02*
D03*
X736600Y519430D02*
D03*
X758190Y482363D02*
D03*
X616320Y261620D02*
D03*
X517040Y248770D02*
D03*
X718821Y321310D02*
D03*
X718820Y447040D02*
D03*
X709930Y462280D02*
D03*
Y591820D02*
D03*
X736600Y397192D02*
D03*
X718821Y535940D02*
D03*
Y664210D02*
D03*
X736600Y735330D02*
D03*
Y613410D02*
D03*
X725170Y346000D02*
D03*
Y418000D02*
D03*
Y490000D02*
D03*
Y562000D02*
D03*
Y706000D02*
D03*
Y634000D02*
D03*
X701039Y698407D02*
D03*
Y554727D02*
D03*
Y482886D02*
D03*
Y411046D02*
D03*
Y339205D02*
D03*
Y626567D02*
D03*
X690880Y357500D02*
D03*
X629920Y355000D02*
D03*
Y342500D02*
D03*
Y367500D02*
D03*
X661630Y321990D02*
D03*
X651630D02*
D03*
X685200Y352500D02*
D03*
X622300Y347500D02*
D03*
X646630Y327070D02*
D03*
X622300Y362500D02*
D03*
X656630Y327070D02*
D03*
X646630Y384220D02*
D03*
X666630Y327070D02*
D03*
X690880Y429500D02*
D03*
X629920Y427000D02*
D03*
Y414500D02*
D03*
Y439500D02*
D03*
X661630Y393990D02*
D03*
X651630D02*
D03*
X685200Y424500D02*
D03*
X622300Y419500D02*
D03*
X646630Y399070D02*
D03*
X622300Y434500D02*
D03*
X656630Y399070D02*
D03*
X646630Y456220D02*
D03*
X666630Y399070D02*
D03*
X690880Y501500D02*
D03*
X629920Y499000D02*
D03*
Y486500D02*
D03*
Y511500D02*
D03*
X661630Y465990D02*
D03*
X651630D02*
D03*
X685200Y496500D02*
D03*
X622300Y491500D02*
D03*
X646630Y471070D02*
D03*
X622300Y506500D02*
D03*
X656630Y471070D02*
D03*
X646630Y528220D02*
D03*
X666630Y471070D02*
D03*
X690880Y573500D02*
D03*
X629920Y571000D02*
D03*
Y558500D02*
D03*
Y583500D02*
D03*
X661630Y537990D02*
D03*
X651630D02*
D03*
X685200Y568500D02*
D03*
X622300Y563500D02*
D03*
X646630Y543070D02*
D03*
X622300Y578500D02*
D03*
X656630Y543070D02*
D03*
X646630Y600220D02*
D03*
X666630Y543070D02*
D03*
X690880Y645500D02*
D03*
X629920Y643000D02*
D03*
Y630500D02*
D03*
Y655500D02*
D03*
X661630Y609990D02*
D03*
X651630D02*
D03*
X685200Y640500D02*
D03*
X622300Y635500D02*
D03*
X646630Y615070D02*
D03*
X622300Y650500D02*
D03*
X656630Y615070D02*
D03*
X646630Y672220D02*
D03*
X666630Y615070D02*
D03*
Y687070D02*
D03*
X646630Y744220D02*
D03*
X622300Y722500D02*
D03*
X646630Y687070D02*
D03*
X622300Y707500D02*
D03*
X656630Y687070D02*
D03*
X651630Y681990D02*
D03*
X661630D02*
D03*
X685200Y712500D02*
D03*
X690880Y717500D02*
D03*
X629920Y715000D02*
D03*
Y702500D02*
D03*
Y727500D02*
D03*
M02*
