M48
;Layer_Color=9474304
;FILE_FORMAT=4:2
METRIC,TZ
;TYPE=PLATED
T01F00S00C0.20
T02F00S00C0.30
T03F00S00C0.60
T04F00S00C1.10
T05F00S00C3.30
%
T01
X7481Y293
X7557
X7696Y719
Y853
X7912Y828
Y962
Y1096
Y1231
Y1365
Y1500
Y1634
Y1768
Y1903
Y2037
X8166
Y1903
Y1768
Y1634
Y1500
Y1365
Y1231
Y1096
Y962
X7140Y1054
X7005
Y1219
X7140
X7003Y1537
X7010Y2093
Y2228
Y2362
Y2609
Y2743
Y2926
X7125Y2984
X7292Y2904
X7607Y2975
Y3109
Y3244
Y3378
Y3513
Y3647
Y3781
Y3916
Y4050
X7747Y4051
X7938
X7366Y3972
X7379Y3797
X7125Y3759
X7099Y3810
X7010Y4110
Y3392
X7252Y3460
X7442
X7188Y3213
X7188Y2489
X7943Y3099
X8077
X8212
X6756Y3048
X6718Y3220
X6616
X6516
X6466Y3271
X6566
X6666
X6656Y3473
X6592
X6529
Y3537
Y3600
X6592
X6656
Y3537
X6592
X6852Y3525
X6909Y3575
X6871Y3785
Y3899
X6718Y3940
Y3842
X6616Y3940
X6516
X6466Y3991
X6566
X6666
X6466Y3842
X6299Y3675
Y3550
Y3425
X6223Y3475
X6160Y3429
Y3200
X6350Y3048
Y2946
X6414Y2720
X6337Y2629
X6163Y2616
X6261Y2362
X6160Y2235
X6375
X5893Y2362
X5563Y2072
Y1779
Y1620
Y1461
Y1302
Y1143
X5283Y1166
Y1325
Y1484
Y1644
Y1803
X5271Y2083
Y2242
X5170Y2488
X5182Y2618
X5160Y2684
X5220Y2852
Y3035
X5354
X5623
X5757
X5892
X5757Y2876
X5062Y3124
X4913
X4778
X4644
X4510
X4375
X4241
X4106
X3972
X3838
X3703
X3569
X3747Y2932
X3645Y2562
Y2423
X3899Y2323
Y2190
Y2057
X4163Y2032
X4242
X4356Y2153
X4318Y2286
X4420Y2273
X4493Y2312
X4381Y2488
X4597Y2618
X4493Y2819
X4415Y2959
X4788Y2153
X4813Y1943
X5055Y1638
X4978Y1029
X4638Y1168
X4458
Y1245
X4533Y1430
X4381
X3747Y1457
X3810Y1672
Y1831
X3543Y1851
X3181Y2003
X2972Y2180
X3213Y2435
Y2499
X3158Y2793
X3078
X3010Y2804
X3196Y2932
X3010Y1102
X3010Y1038
X3275Y640
X3467Y683
Y797
X3872Y787
X4031
X4190
X4349
X4508
X5283Y826
Y691
Y557
X5791Y648
Y782
Y917
X5817Y317
X5753
Y254
X5817
X5880
Y317
X6883Y582
Y716
Y851
X6871Y1054
X6769Y1067
X6871Y1219
X6869Y1537
X6794Y2489
Y2718
X6629Y2629
X6223Y3625
X6160Y3810
Y4140
X6299Y4145
X5833Y1779
X3823Y660
Y501
Y342
X3747Y286
X3193
X2604Y456
X2311Y447
Y267
Y627
Y987
Y1168
Y1348
Y1528
Y1708
Y1888
Y2069
Y2249
Y2429
Y2609
Y2789
Y2969
Y3150
X2515Y2979
Y2619
Y2438
Y2258
Y2078
Y1775
Y1595
X2502Y1381
Y1314
X2604Y1177
X2840Y1140
X2807Y1397
X2643Y911
Y822
Y733
X1816Y807
Y627
Y447
Y267
X1321
Y447
Y627
Y807
Y987
Y1168
Y1348
Y1528
Y1708
Y1888
Y2069
Y2249
Y2429
Y2609
Y2789
Y2969
Y3150
X1816
Y2969
Y2789
Y2609
Y2429
Y2249
Y2069
Y1888
Y1708
Y1528
Y1348
Y1168
Y987
X826
Y807
Y627
Y447
Y267
Y1168
Y1348
Y1528
Y1708
Y1888
Y2069
Y2249
Y2429
Y2609
Y2789
Y2969
Y3150
X445Y3177
Y2997
Y2098
Y1918
Y1738
Y1557
Y1377
Y1197
Y1017
Y837
X546Y4080
X2718Y3150
X2904Y2804
Y2740
X546Y4260
Y4440
Y4620
Y4801
Y4981
Y5161
Y5341
Y5521
Y5702
Y5882
Y6062
Y6242
Y6422
Y6602
Y6783
Y6963
Y7143
Y7323
Y7503
Y7683
X826Y7912
X1006
X1186
X1366
X1546
X1726
X1907
X2087
X2267
X2447
X2627
X2807
X2988
X3168
X3348
X3528
X3708
X3889
X4609
X4789
X4970
X5150
X5330
X5510
X5690
X5871
X6051
X6231
X6411
X6591
X6771
Y7732
X6591
X6411
X6231
X6051
X6236Y7366
X6223Y7225
X6299Y7275
Y7150
Y7025
X6223Y7075
X6134Y7049
X6160Y6820
X6185Y6680
X6223Y6505
Y6439
Y6355
X6134Y6337
X6299Y6305
Y6430
Y6555
X6533Y6481
X6597
X6660
Y6418
X6597
X6533
Y6354
X6597
X6660
X6666Y6151
X6566
X6466
X6516Y6100
X6616
X6718
Y6002
X6871Y5969
Y6071
X6852Y6405
X6909Y6455
X6871Y6718
Y6820
X6718
Y6722
X6616Y6820
X6516
X6466Y6871
X6566
X6666
X6658Y7098
X6595
X6531
Y7161
Y7225
X6595
X6658
Y7161
X6595
X6852Y7125
X6909Y7175
X6894Y7455
X6718Y7442
X6466
Y6722
Y6002
X6529Y5762
X6593
X6656
Y5698
X6593
X6529
Y5635
X6593
X6656
X6666Y5431
X6566
X6466
X6516Y5380
X6616
X6718
Y5282
X6871Y5220
Y5354
X6852Y5685
X6909Y5735
X6299Y5710
Y5585
X6223Y5635
X6160Y5588
X6223Y5785
X6299Y5835
X6172Y5944
Y6096
X6185Y5232
X6223Y5065
X6299Y5115
Y4990
Y4865
X6223Y4915
X6172Y4864
Y4508
X6223Y4345
X6299Y4395
Y4270
X6223Y4195
X6533Y4189
Y4253
Y4316
X6596
X6660
Y4253
X6596
Y4189
X6660
X6852Y4245
X6909Y4295
X6871Y4483
Y4618
X6718Y4660
Y4562
X6616Y4660
X6516
X6466Y4711
X6566
X6666
X6656Y4915
X6592
X6529
Y4978
Y5042
X6592
X6656
Y4978
X6592
X6852Y4965
X6909Y5015
X6466Y5282
Y4562
X7125Y4547
X7099Y4623
X7188Y4470
X7442Y4521
X7673Y4508
X7925
X8039Y4570
Y4751
Y4931
X7938Y4940
X8039Y5111
Y5291
X7938Y5359
X8039Y5471
Y5651
Y5791
X7569Y5740
Y5606
X7576Y5480
X7569Y5349
Y5214
Y5080
Y4946
X7582Y4824
Y4750
X7442Y4902
X7252Y4900
X7010Y4829
X7163Y5271
X7188Y5359
X7366Y5258
Y5194
X7671Y5156
X7442Y5620
X7252
X7010Y5547
X7099Y5918
Y6020
X7010Y6266
X7252Y6340
X7442
X7366Y6134
X7379Y5956
X7570Y6140
X7785Y6410
X7785Y6477
X7760Y6655
X7874Y6782
X7506Y6820
Y6909
X7455Y7061
X7252Y7060
X7087Y6972
X7010Y6984
X7125Y6794
Y6706
X7188Y6642
X7163Y7455
X7028
X7297
X7366Y7353
X7492Y7552
X7672
Y7732
Y7912
X7492
X7312
X7132
X6952
Y7732
X7132
X7312
X7492
X7853
X7950Y7163
X8039Y4390
Y4210
X7442Y4178
X7252Y4180
T02
X50Y163
X164Y50
X324
X484
X644
X804
X964
X1124
X1284
X1444
X1604
X1764
X1924
X2084
X2244
X2404
X2564
X2724
X2884Y50
X3044
X3204
X3364
X3524
X3684
X3844
X4004
X4164
X4324
X4484
X4644
X4804
X4964
X5124
X5284
X5444
X5604Y50
X5764
X5924
X6084
X6244
X6404
X6564
X6724
X6884
X7044
X7204
X7364
X7524
X7684
X7844
X8004
X8164
X8324
X8450Y149
Y309
Y469
Y629
Y789
Y949
Y1109
Y1269
X8450Y1429
Y1589
Y1749
Y1909
Y2069
Y2229
Y2389
Y2549
X8450Y2709
Y2869
Y3029
Y3189
Y3349
Y3509
Y3669
Y3829
Y3989
X8316Y4076
X247Y4094
X135Y3979
X50Y3843
Y3683
Y3523
Y3363
Y3203
Y3043
Y2883
Y2723
Y2563
Y2403
Y2243
Y2083
Y1923
Y1763
Y1603
Y1443
Y1283
Y1123
Y963
Y803
Y643
Y483
Y323
X250Y4254
Y4414
Y4574
Y4734
Y4894
Y5054
Y5214
Y5374
Y5534
Y5694
Y5854
Y6014
Y6174
Y6334
Y6494
Y6654
Y6814
Y6974
Y7134
Y7294
Y7454
Y7614
X206Y7767
X60Y7833
X50Y7992
X8450Y7978
Y7818
X8319Y7726
X8250Y7582
Y7422
Y7262
Y7102
Y6942
Y6782
Y6622
Y6462
Y6302
Y6142
Y5982
Y5822
Y5662
Y5502
Y5342
Y5182
Y5022
Y4862
Y4702
Y4542
Y4382
Y4222
X8450Y8138
Y8298
X8393Y8448
X8233Y8450
X8073
X7913
X7753
X7612Y8374
X7554Y8225
X7403Y8170
X7243
X7083
X6923
X6763
X6603
X6443
X6283
X6123
X5963
X5803
X5643
X5483
X5323
X5163
X5003
X4844Y8186
X4738Y8306
X4662Y8446
X4502Y8450
X4342
X4182
X4022
X3862Y8449
X3766Y8321
X3670Y8193
X3512Y8170
X3352
X3192
X3032
X2872
X2712
X2552
X2392
X2232
X2072
X1912
X1752
X1592
X1432
X1272
X1112
X958Y8214
X889Y8359
X757Y8450
X597
X437Y8450
X277Y8450
X132
X50Y8312
Y8152
T03
X198Y198
X360Y131
X522Y198
X4088
X4250Y131
X4412Y198
X7978
X8140Y131
X8302Y198
X8369Y360
X8302Y522
X8140Y589
X7978Y522
X7911Y360
X7978Y2398
X8140Y2331
X8302Y2398
X8369Y2560
X8302Y2722
X8140Y2789
X7978Y2722
X7911Y2560
X7978Y3478
X7911Y3640
X7978Y3802
X8140Y3869
X8302Y3802
X8369Y3640
X8302Y3478
X8140Y3411
X5681Y3423
X5554Y3550
X5681Y3677
X5808Y3550
X5681Y4143
X4748
Y3677
X4621Y3550
X4748Y3423
X4875Y3550
X3941
X3687
X3814Y3677
Y3423
Y4143
X3008Y3550
X4088Y522
X4250Y589
X4412Y522
X4479Y360
X4021
X589
X522Y522
X360Y589
X198Y522
X131Y360
X198Y2398
X131Y2560
X198Y2722
X360Y2789
X522Y2722
X589Y2560
X522Y2398
X360Y2331
Y3411
X522Y3478
X589Y3640
X522Y3802
X360Y3869
X198Y3802
X131Y3640
X198Y3478
X887Y3550
X1014Y3677
Y3423
X1141Y3550
X1820
X1947Y3677
Y3423
X2074Y3550
X2754
X2881Y3677
Y3423
Y4143
X1947
X1014
X887Y4270
X1014Y4397
X1141Y4270
X1820
X1947Y4397
X2074Y4270
X2754
X2881Y4397
Y4863
X2754Y4990
X2881Y5117
Y5583
X2754Y5710
X2881Y5837
Y6303
X2754Y6430
X2881Y6557
Y7023
X2754Y7150
X2881Y7277
X1947
X1820Y7150
X1947Y7023
X2074Y7150
X1947Y6557
X1820Y6430
X1947Y6303
X2074Y6430
X1947Y5837
X1820Y5710
X1947Y5583
X2074Y5710
X1947Y5117
X1820Y4990
X1947Y4863
X2074Y4990
X1141
X887
X1014Y5117
Y4863
Y5583
X887Y5710
X1014Y5837
X1141Y5710
X1014Y6303
X887Y6430
X1014Y6557
X1141Y6430
X1014Y7023
X887Y7150
X1014Y7277
X1141Y7150
X522Y7978
X360Y7911
X198Y7978
X131Y8140
X589
X3008Y7150
X3687
X3814Y7277
Y7023
X3941Y7150
X4621
X4748Y7277
Y7023
X4875Y7150
X5554
X5681Y7277
Y7023
X5808Y7150
Y6430
X5681Y6303
Y6557
X5554Y6430
X4875
X4621
X4748Y6557
Y6303
Y5837
X4621Y5710
X4748Y5583
X4875Y5710
X5554
X5681Y5837
Y5583
X5808Y5710
X5681Y5117
X5554Y4990
X5681Y4863
X5808Y4990
X5681Y4397
X5554Y4270
X5808
X4875
X4621
X4748Y4397
Y4863
X4621Y4990
X4748Y5117
X4875Y4990
X3941
X3687
X3814Y5117
Y4863
Y4397
X3687Y4270
X3941
X3008
Y4990
Y5710
X3687
X3814Y5837
Y5583
X3941Y5710
X3814Y6303
X3687Y6430
X3814Y6557
X3941Y6430
X3008
X4088Y7978
X4021Y8140
X4250Y7911
X4412Y7978
X4479Y8140
X7911
X7978Y7978
X8140Y7911
X8302Y7978
X8369Y8140
X8302Y8302
X8140Y8369
X7978Y8302
X4412
X4250Y8369
X4088Y8302
X522
X360Y8369
X198Y8302
T04
X7373Y1138
X7627
Y1392
Y1646
Y1900
Y2154
Y2408
Y2662
X7373
Y2408
Y2154
Y1900
Y1646
Y1392
T05
X8140Y360
Y2560
Y3640
X4250Y360
X360
Y2560
Y3640
Y8140
X4250
X8140
M30
